<svg width="16" height="16" viewBox="0 0 16 16" fill="none" xmlns="http://www.w3.org/2000/svg">
<path fill-rule="evenodd" clip-rule="evenodd" d="M9.7664 2.264C10.1291 2.376 10.4757 2.52 10.8064 2.696L12.2728 1.816C12.4257 1.72429 12.6049 1.68629 12.7818 1.70803C12.9588 1.72977 13.1234 1.81001 13.2496 1.936L14.064 2.7504C14.19 2.87656 14.2702 3.0412 14.292 3.21816C14.3137 3.39513 14.2757 3.57429 14.184 3.7272L13.304 5.1936C13.48 5.52427 13.624 5.87093 13.736 6.2336L15.3944 6.6488C15.5674 6.69214 15.721 6.79204 15.8307 6.93263C15.9404 7.07323 16 7.24646 16 7.4248V8.5752C16 8.75354 15.9404 8.92677 15.8307 9.06737C15.721 9.20796 15.5674 9.30786 15.3944 9.3512L13.736 9.7664C13.624 10.1291 13.48 10.4757 13.304 10.8064L14.184 12.2728C14.2757 12.4257 14.3137 12.6049 14.292 12.7818C14.2702 12.9588 14.19 13.1234 14.064 13.2496L13.2496 14.064C13.1234 14.19 12.9588 14.2702 12.7818 14.292C12.6049 14.3137 12.4257 14.2757 12.2728 14.184L10.8064 13.304C10.4757 13.48 10.1291 13.624 9.7664 13.736L9.3512 15.3944C9.30786 15.5674 9.20796 15.721 9.06737 15.8307C8.92677 15.9404 8.75354 16 8.5752 16H7.4248C7.24646 16 7.07323 15.9404 6.93263 15.8307C6.79204 15.721 6.69214 15.5674 6.6488 15.3944L6.2336 13.736C5.87416 13.6249 5.52596 13.4803 5.1936 13.304L3.7272 14.184C3.57429 14.2757 3.39513 14.3137 3.21816 14.292C3.0412 14.2702 2.87656 14.19 2.7504 14.064L1.936 13.2496C1.81001 13.1234 1.72977 12.9588 1.70803 12.7818C1.68629 12.6049 1.72429 12.4257 1.816 12.2728L2.696 10.8064C2.51971 10.474 2.37508 10.1258 2.264 9.7664L0.6056 9.3512C0.432736 9.3079 0.279279 9.20811 0.16957 9.06768C0.0598616 8.92725 0.000182914 8.75421 0 8.576V7.4256C4.68835e-06 7.24726 0.0596017 7.07403 0.169324 6.93343C0.279047 6.79284 0.432603 6.69294 0.6056 6.6496L2.264 6.2344C2.376 5.87173 2.52 5.52507 2.696 5.1944L1.816 3.728C1.72429 3.57509 1.68629 3.39593 1.70803 3.21896C1.72977 3.042 1.81001 2.87736 1.936 2.7512L2.7504 1.936C2.87656 1.81001 3.0412 1.72977 3.21816 1.70803C3.39513 1.68629 3.57429 1.72429 3.7272 1.816L5.1936 2.696C5.52427 2.52 5.87093 2.376 6.2336 2.264L6.6488 0.6056C6.6921 0.432736 6.79189 0.279279 6.93232 0.16957C7.07275 0.0598616 7.24579 0.000182914 7.424 0H8.5744C8.75274 4.68835e-06 8.92597 0.0596017 9.06657 0.169324C9.20716 0.279047 9.30706 0.432603 9.3504 0.6056L9.7664 2.264ZM8 11.2C8.84869 11.2 9.66263 10.8629 10.2627 10.2627C10.8629 9.66263 11.2 8.84869 11.2 8C11.2 7.15131 10.8629 6.33737 10.2627 5.73726C9.66263 5.13714 8.84869 4.8 8 4.8C7.15131 4.8 6.33737 5.13714 5.73726 5.73726C5.13714 6.33737 4.8 7.15131 4.8 8C4.8 8.84869 5.13714 9.66263 5.73726 10.2627C6.33737 10.8629 7.15131 11.2 8 11.2Z" fill="#242424"/>
</svg>
