<svg width="24" height="24" viewBox="0 0 24 24" fill="none" xmlns="http://www.w3.org/2000/svg">
<g clip-path="url(#clip0_488_1892)">
<path d="M16.281 12.969C16.4218 13.1099 16.5009 13.3009 16.5009 13.5C16.5009 13.6992 16.4218 13.8902 16.281 14.031C16.1402 14.1719 15.9492 14.251 15.75 14.251C15.5508 14.251 15.3598 14.1719 15.219 14.031L12.75 11.5605V15.75C12.75 15.9489 12.671 16.1397 12.5303 16.2804C12.3897 16.421 12.1989 16.5 12 16.5C11.8011 16.5 11.6103 16.421 11.4697 16.2804C11.329 16.1397 11.25 15.9489 11.25 15.75V11.5605L8.781 14.031C8.64017 14.1719 8.44916 14.251 8.25 14.251C8.05084 14.251 7.85983 14.1719 7.719 14.031C7.57817 13.8902 7.49905 13.6992 7.49905 13.5C7.49905 13.3009 7.57817 13.1099 7.719 12.969L11.469 9.21903C11.5393 9.14946 11.6223 9.09397 11.7135 9.05553C11.8971 8.9805 12.1029 8.9805 12.2865 9.05553C12.3777 9.09397 12.4607 9.14946 12.531 9.21903L16.281 12.969ZM24 15C24 16.1935 23.5259 17.3381 22.682 18.182C21.8381 19.0259 20.6935 19.5 19.5 19.5H3.75C2.75544 19.5 1.80161 19.1049 1.09835 18.4017C0.395088 17.6984 0 16.7446 0 15.75C0 14.7555 0.395088 13.8016 1.09835 13.0984C1.80161 12.3951 2.75544 12 3.75 12C4.00201 12.0003 4.25332 12.0265 4.5 12.078V12C4.49395 10.142 5.17949 8.34811 6.42319 6.96764C7.66688 5.58717 9.37974 4.71886 11.2284 4.53172C13.077 4.34457 14.9291 4.85198 16.4243 5.95518C17.9194 7.05838 18.9505 8.67844 19.317 10.5C19.9232 10.4754 20.5281 10.5735 21.0953 10.7886C21.6626 11.0037 22.1805 11.3312 22.618 11.7516C23.0554 12.1719 23.4033 12.6764 23.6408 13.2346C23.8783 13.7929 24.0005 14.3934 24 15ZM22.5 15C22.5037 14.5495 22.405 14.1041 22.2115 13.6973C22.018 13.2904 21.7346 12.9329 21.3827 12.6515C21.0309 12.3701 20.6197 12.1723 20.1803 12.073C19.7409 11.9737 19.2847 11.9754 18.846 12.078C18.7423 12.101 18.635 12.1018 18.531 12.0802C18.427 12.0586 18.3288 12.0151 18.2429 11.9527C18.1569 11.8903 18.0852 11.8104 18.0325 11.7182C17.9798 11.6261 17.9472 11.5237 17.937 11.418C17.791 9.88637 17.0605 8.46986 15.8972 7.46284C14.734 6.45581 13.2274 5.93573 11.6907 6.01066C10.1539 6.08558 8.7051 6.74976 7.64531 7.86517C6.58553 8.98058 5.99628 10.4614 6 12V13.1655C6.00004 13.2975 5.96526 13.4271 5.89917 13.5414C5.83308 13.6556 5.73802 13.7503 5.62359 13.8161C5.50916 13.8818 5.37942 13.9162 5.24745 13.9157C5.11549 13.9153 4.98598 13.88 4.872 13.8135C4.53287 13.6103 4.14534 13.5021 3.75 13.5C3.15326 13.5 2.58097 13.7371 2.15901 14.159C1.73705 14.581 1.5 15.1533 1.5 15.75C1.5 16.3468 1.73705 16.9191 2.15901 17.341C2.58097 17.763 3.15326 18 3.75 18H19.5C20.2956 18 21.0587 17.684 21.6213 17.1213C22.1839 16.5587 22.5 15.7957 22.5 15Z" fill="#1F4B82"/>
</g>
<defs>
<clipPath id="clip0_488_1892">
<rect width="24" height="24" fill="white"/>
</clipPath>
</defs>
</svg>
