<svg width="14" height="14" viewBox="0 0 14 14" fill="none" xmlns="http://www.w3.org/2000/svg">
<path fill-rule="evenodd" clip-rule="evenodd" d="M0.29289 0.29289C0.68342 -0.09763 1.31658 -0.09763 1.70711 0.29289L7 5.5858L12.2929 0.29289C12.6834 -0.09763 13.3166 -0.09763 13.7071 0.29289C14.0976 0.68342 14.0976 1.31658 13.7071 1.70711L8.4142 7L13.7071 12.2929C14.0976 12.6834 14.0976 13.3166 13.7071 13.7071C13.3166 14.0976 12.6834 14.0976 12.2929 13.7071L7 8.4142L1.70711 13.7071C1.31658 14.0976 0.68342 14.0976 0.29289 13.7071C-0.09763 13.3166 -0.09763 12.6834 0.29289 12.2929L5.5858 7L0.29289 1.70711C-0.09763 1.31658 -0.09763 0.68342 0.29289 0.29289Z" fill="#1F4B82"/>
</svg>
