<svg width="24" height="24" viewBox="0 0 24 24" fill="none" xmlns="http://www.w3.org/2000/svg">
<rect width="23.6862" height="23.6862" rx="11.8431" fill="#1F4B82" fill-opacity="0.52"/>
<path fill-rule="evenodd" clip-rule="evenodd" d="M17.4048 5.54917C16.6726 4.81694 15.4854 4.81694 14.7531 5.54917L5.90465 14.3977C5.6429 14.6594 5.46448 14.9928 5.39189 15.3558L5.02497 17.1904C4.85004 18.065 5.62119 18.8362 6.49584 18.6613L8.33043 18.2943C8.69341 18.2218 9.02678 18.0433 9.28853 17.7816L18.137 8.93306C18.8692 8.20082 18.8692 7.01364 18.137 6.28141L17.4048 5.54917ZM15.637 6.43306C15.8811 6.18898 16.2768 6.18898 16.5209 6.43306L17.2531 7.16529C17.4972 7.40937 17.4972 7.80509 17.2531 8.04918L15.5834 9.71892L13.9673 8.1028L15.637 6.43306ZM13.0834 8.98669L6.78853 15.2816C6.70128 15.3688 6.64181 15.4799 6.61761 15.6009L6.25069 17.4355L8.08528 17.0686C8.20627 17.0444 8.3174 16.9849 8.40465 16.8977L14.6995 10.6028L13.0834 8.98669Z" fill="white"/>
</svg>
