<svg width="21" height="24" viewBox="0 0 21 24" fill="none" xmlns="http://www.w3.org/2000/svg">
<path d="M2.04615 0H2.02615C1.93329 0.00191406 1.84156 0.0202093 1.75538 0.054C1.63078 0.102098 1.52122 0.181102 1.43757 0.283185C1.35392 0.385269 1.29907 0.50689 1.27846 0.636C1.25385 0.777 0.5 5.3925 0.5 7.5C0.5 8.925 1.18 10.1955 2.23846 11.0175C2.62308 11.319 2.80769 11.646 2.80769 11.919V12.669C2.80769 12.696 2.80615 12.723 2.80308 12.75C2.76154 13.14 2.57077 14.8935 2.39077 16.6965C2.21385 18.474 2.03846 20.3715 2.03846 21C2.03846 21.7956 2.36264 22.5587 2.93967 23.1213C3.51671 23.6839 4.29933 24 5.11538 24C5.93144 24 6.71406 23.6839 7.2911 23.1213C7.86813 22.5587 8.19231 21.7956 8.19231 21C8.19231 20.37 8.01692 18.474 7.84 16.6965C7.70847 15.3809 7.57103 14.0659 7.42769 12.7515L7.42308 12.669V11.919C7.42308 11.6445 7.60769 11.319 7.99231 11.0175C8.53444 10.5961 8.97225 10.0611 9.27321 9.45217C9.57418 8.84321 9.73057 8.17597 9.73077 7.5C9.73077 5.388 8.97231 0.7515 8.95231 0.6345C8.92968 0.493521 8.86628 0.361761 8.76954 0.254686C8.6728 0.147611 8.54674 0.0696659 8.40615 0.03C8.34163 0.0115869 8.27491 0.00150094 8.20769 0H8.17692H8.17846C7.97348 0.0015831 7.77744 0.0820894 7.63307 0.223977C7.48869 0.365865 7.40769 0.557634 7.40769 0.7575V6.7575C7.40981 6.85501 7.39222 6.95197 7.35591 7.04284C7.31959 7.13372 7.26528 7.21673 7.19606 7.28714C7.12685 7.35755 7.04409 7.41398 6.95251 7.4532C6.86092 7.49243 6.76231 7.51368 6.66231 7.51575C6.5623 7.51782 6.46286 7.50066 6.36965 7.46526C6.27644 7.42985 6.1913 7.3769 6.11909 7.30941C6.04687 7.24193 5.989 7.16124 5.94877 7.07194C5.90854 6.98265 5.88674 6.88651 5.88462 6.789V0.75C5.88462 0.551088 5.80357 0.360322 5.65931 0.21967C5.51505 0.0790178 5.3194 0 5.11538 0C4.91137 0 4.71572 0.0790178 4.57146 0.21967C4.4272 0.360322 4.34615 0.551088 4.34615 0.75V6.75L4.34769 6.798C4.34218 6.99492 4.25667 7.18165 4.10996 7.3171C3.96325 7.45254 3.76736 7.52562 3.56538 7.52025C3.36341 7.51488 3.1719 7.4315 3.03298 7.28846C2.89406 7.14541 2.81911 6.95442 2.82462 6.7575V0.759C2.82462 0.55796 2.74281 0.365132 2.59715 0.222835C2.4515 0.0805384 2.25235 0.000397312 2.04615 0ZM12.0385 6.75C12.0385 4.95979 12.7679 3.2429 14.0662 1.97703C15.3645 0.711159 17.1254 0 18.9615 0C19.1656 0 19.3612 0.0790178 19.5055 0.21967C19.6497 0.360322 19.7308 0.551088 19.7308 0.75V11.217L19.7615 11.553C19.8815 12.9008 19.9984 14.2488 20.1123 15.597C20.3031 17.8575 20.5 20.3385 20.5 21C20.5 21.7956 20.1758 22.5587 19.5988 23.1213C19.0218 23.6839 18.2391 24 17.4231 24C16.607 24 15.8244 23.6839 15.2474 23.1213C14.6703 22.5587 14.3462 21.7956 14.3462 21C14.3462 20.34 14.5431 17.8575 14.7338 15.597C14.8292 14.4555 14.9262 13.3515 14.9985 12.534L15.0446 12H14.3462C13.7341 12 13.1471 11.7629 12.7144 11.341C12.2816 10.919 12.0385 10.3467 12.0385 9.75V6.75Z" fill="#242424" fill-opacity="0.75"/>
</svg>
