<svg width="26" height="26" viewBox="0 0 26 26" fill="none" xmlns="http://www.w3.org/2000/svg">
<path d="M15.8599 6.51172C16.6457 6.51172 17.2826 7.14872 17.2827 7.93457C17.2827 8.72053 16.6458 9.35742 15.8599 9.35742C15.074 9.35732 14.437 8.72047 14.437 7.93457C14.4371 7.14878 15.0741 6.51182 15.8599 6.51172Z" fill="white" stroke="#1F4B82"/>
<path d="M1 17.7565C1.02353 19.101 1.57418 20.3825 2.53335 21.3249C3.49252 22.2673 4.78345 22.7952 6.1281 22.795H10.5895M1 17.7565V6.12824C1 4.76815 1.54028 3.46376 2.50199 2.50203C3.46369 1.5403 4.76804 1 6.1281 1H17.6663C19.0264 1 20.3307 1.5403 21.2924 2.50203C22.2541 3.46376 22.7944 4.76815 22.7944 6.12824V10.5898M1 17.7565L1.2282 17.5001L5.33837 12.5937C5.57903 12.3064 5.87972 12.0755 6.21928 11.917C6.55883 11.7585 6.929 11.6763 7.30371 11.6763C7.67843 11.6763 8.0486 11.7585 8.38815 11.917C8.72771 12.0755 9.0284 12.3064 9.26906 12.5937L10.8613 14.4937" stroke="#1F4B82" stroke-width="1.5" stroke-linecap="round" stroke-linejoin="round"/>
<path d="M18.9487 12.3975C20.6862 12.3975 22.353 13.0878 23.5815 14.3164C24.8101 15.545 25.5005 17.2117 25.5005 18.9492C25.5004 20.6865 24.8099 22.3526 23.5815 23.5811C22.353 24.8097 20.6862 25.5 18.9487 25.5C17.2114 25.4999 15.5454 24.8096 14.3169 23.5811C13.0884 22.3525 12.3981 20.6866 12.3979 18.9492C12.3979 17.2117 13.0883 15.545 14.3169 14.3164C15.5454 13.0879 17.2114 12.3976 18.9487 12.3975ZM18.9487 13.9707C18.6462 13.9708 18.356 14.0908 18.1421 14.3047C17.9282 14.5186 17.8082 14.8088 17.8081 15.1113V17.8076H15.1118C14.8093 17.8077 14.5191 17.9278 14.3052 18.1416C14.0912 18.3556 13.9712 18.6466 13.9712 18.9492C13.9713 19.2517 14.0913 19.542 14.3052 19.7559C14.5191 19.9697 14.8093 20.0898 15.1118 20.0898H17.8081V22.7871C17.8081 23.0896 17.9283 23.3798 18.1421 23.5938C18.356 23.8077 18.6462 23.9286 18.9487 23.9287C19.2513 23.9287 19.5424 23.8077 19.7563 23.5938C19.9701 23.3798 20.0903 23.0895 20.0903 22.7871V20.0898H22.7866C23.0891 20.0897 23.3794 19.9697 23.5933 19.7559C23.8071 19.542 23.9271 19.2517 23.9272 18.9492C23.9272 18.6466 23.8072 18.3556 23.5933 18.1416C23.3794 17.9278 23.0891 17.8077 22.7866 17.8076H20.0903V15.1113C20.0903 14.8089 19.9702 14.5186 19.7563 14.3047C19.5424 14.0907 19.2513 13.9707 18.9487 13.9707Z" fill="#1F4B82" stroke="#1F4B82"/>
</svg>
