<svg width="50" height="50" viewBox="0 0 50 50" fill="none" xmlns="http://www.w3.org/2000/svg">
<circle cx="25" cy="25" r="24.5" fill="white" stroke="#ECEDF1"/>
<path fill-rule="evenodd" clip-rule="evenodd" d="M15.5217 25.0025C15.5217 23.9758 15.6935 22.9914 16 22.0682L10.6348 18C9.58913 20.1081 9 22.4834 9 25.0025C9 27.5194 9.58841 29.8934 10.6326 32L15.9949 27.9239C15.6913 27.005 15.5217 26.0242 15.5217 25.0025Z" fill="#FBBC05"/>
<path fill-rule="evenodd" clip-rule="evenodd" d="M25.4142 15.5305C27.6774 15.5305 29.7215 16.3286 31.3276 17.6347L36 12.9908C33.1528 10.5238 29.5025 9 25.4142 9C19.0671 9 13.6121 12.6128 11 17.8916L16.4053 22C17.6508 18.237 21.2011 15.5305 25.4142 15.5305Z" fill="#EB4335"/>
<path fill-rule="evenodd" clip-rule="evenodd" d="M25.4844 33.4695C21.2507 33.4695 17.6832 30.763 16.4317 27L11 31.1077C13.6249 36.3872 19.1064 40 25.4844 40C29.421 40 33.1793 38.6155 36 36.0215L30.8442 32.0735C29.3894 32.9812 27.5576 33.4695 25.4844 33.4695Z" fill="#34A853"/>
<path fill-rule="evenodd" clip-rule="evenodd" d="M40 24.7294C40 23.8424 39.8571 22.8871 39.6429 22H25V27.8001H33.4286C33.0071 29.7775 31.86 31.2979 30.2186 32.2873L35.2386 36C38.1236 33.4384 40 29.6227 40 24.7294Z" fill="#4285F4"/>
</svg>
