<svg width="23" height="24" viewBox="0 0 23 24" fill="none" xmlns="http://www.w3.org/2000/svg">
<path d="M0.5 21.2571V8.91428C0.5 8.48 0.597625 8.06857 0.792875 7.68C0.988125 7.29143 1.25717 6.97143 1.6 6.72L9.85 0.548571C10.3312 0.182857 10.8812 0 11.5 0C12.1187 0 12.6687 0.182857 13.15 0.548571L21.4 6.72C21.7437 6.97143 22.0132 7.29143 22.2085 7.68C22.4037 8.06857 22.5009 8.48 22.5 8.91428V21.2571C22.5 22.0114 22.2305 22.6574 21.6915 23.195C21.1525 23.7326 20.5053 24.0009 19.75 24H15.625C15.2354 24 14.9091 23.8683 14.646 23.605C14.3829 23.3417 14.2509 23.0162 14.25 22.6286V15.7714C14.25 15.3829 14.118 15.0574 13.854 14.795C13.59 14.5326 13.2637 14.4009 12.875 14.4H10.125C9.73541 14.4 9.40908 14.5317 9.146 14.795C8.88291 15.0583 8.75091 15.3838 8.75 15.7714V22.6286C8.75 23.0171 8.618 23.3431 8.354 23.6064C8.09 23.8697 7.76366 24.0009 7.375 24H3.25C2.49375 24 1.84658 23.7317 1.3085 23.195C0.770416 22.6583 0.500917 22.0123 0.5 21.2571Z" fill="#242424" fill-opacity="0.75"/>
</svg>
