<svg width="9" height="15" viewBox="0 0 9 15" fill="none" xmlns="http://www.w3.org/2000/svg">
<path d="M4.36 15L0.58 8.4V7.52H1.02C1.72667 7.52 2.32 7.45333 2.8 7.32C3.29333 7.18667 3.68 6.96667 3.96 6.66C4.24 6.35333 4.40667 5.93333 4.46 5.4H0.58V4.12H4.44C4.34667 3.62667 4.16 3.22667 3.88 2.92C3.6 2.6 3.22 2.36667 2.74 2.22C2.27333 2.07333 1.7 2 1.02 2H0.58V0.719999H8.86V2H5.08C5.38667 2.25333 5.64 2.55333 5.84 2.9C6.04 3.24667 6.16667 3.65333 6.22 4.12H8.86V5.4H6.26C6.16667 6.37333 5.79333 7.13333 5.14 7.68C4.5 8.21333 3.64667 8.55333 2.58 8.7L6.4 15H4.36Z" fill="#1F4B82"/>
</svg>
