<svg width="16" height="17" viewBox="0 0 16 17" fill="none" xmlns="http://www.w3.org/2000/svg">
<path d="M9.46094 0.461914L9.471 0.469105L9.46094 0.461914Z" fill="url(#paint0_linear_700_3631)"/>
<path d="M10.2861 9.04708C8.84074 11.213 7.62544 13.599 4.86119 14.3297C4.83243 14.3368 4.80222 14.3282 4.78209 14.3066L0.266086 9.32322C0.132332 9.17509 0.19849 8.94066 0.388335 8.87881C2.24507 8.26901 3.40428 6.81641 4.43692 5.26745C5.86075 3.13457 7.08036 0.787402 9.75688 0.0179555C9.859 -0.0208764 9.97837 0.00357325 10.056 0.0884281C10.6558 0.750008 15.179 5.05603 15.1862 5.06466C15.189 5.0661 11.395 7.38451 10.2861 9.04708Z" fill="#66BB6A"/>
<path d="M6.11269 10.0366C6.01489 9.93879 5.89839 9.88989 5.7632 9.89132C5.62801 9.89276 5.45255 9.94742 5.23537 10.0553C4.94054 10.212 4.68454 10.2854 4.47024 10.2782C4.25595 10.2696 4.06323 10.1804 3.89352 10.0093C3.71949 9.83523 3.62745 9.64108 3.61882 9.42822C3.60875 9.21536 3.6821 9.0097 3.83887 8.81122L3.56417 8.53509C3.54479 8.5153 3.53394 8.48871 3.53394 8.46102C3.53394 8.43332 3.54479 8.40673 3.56417 8.38695L3.65334 8.29778C3.69361 8.25751 3.75976 8.25751 3.80147 8.29778L4.07761 8.57536C4.2804 8.42147 4.49469 8.35819 4.71905 8.38407C4.9204 8.40852 5.11888 8.50776 5.31304 8.6861C5.35043 8.72062 5.35043 8.78102 5.31448 8.81698L5.15052 8.98093C5.116 9.01545 5.05991 9.01545 5.02396 8.98237C4.89452 8.87019 4.76076 8.80547 4.62413 8.79109C4.46449 8.77383 4.32355 8.82561 4.20273 8.94642C4.07617 9.07298 4.01145 9.20242 4.01001 9.3333C4.00858 9.46561 4.0661 9.59074 4.1826 9.70723C4.29047 9.81654 4.41271 9.86688 4.54791 9.86112C4.6831 9.85537 4.85712 9.79784 5.07286 9.68854C5.28859 9.57923 5.47124 9.51164 5.62657 9.48431C5.78046 9.45698 5.9214 9.46417 6.04797 9.50445C6.17453 9.54615 6.2939 9.62238 6.40608 9.73456C6.58442 9.91434 6.67503 10.1128 6.67647 10.33C6.67791 10.5472 6.59161 10.7629 6.41615 10.9772L6.64627 11.2073C6.68654 11.2476 6.68654 11.3137 6.64627 11.3554L6.55853 11.4432C6.51826 11.4834 6.45211 11.4834 6.4104 11.4432L6.18028 11.213C5.96455 11.3914 5.73875 11.4762 5.50432 11.4647C5.29578 11.4547 5.09587 11.3655 4.90602 11.1972C4.89691 11.189 4.8896 11.1789 4.88456 11.1677C4.87951 11.1565 4.87684 11.1444 4.8767 11.1321C4.87657 11.1198 4.87898 11.1076 4.88377 11.0963C4.88857 11.085 4.89566 11.0748 4.90458 11.0663L5.07142 10.901C5.1045 10.8679 5.15771 10.865 5.19367 10.8952C5.32167 11.0059 5.45398 11.062 5.59061 11.0649C5.74738 11.0678 5.89695 10.9973 6.03934 10.8549C6.17885 10.7169 6.25507 10.573 6.26801 10.4278C6.27808 10.2825 6.22774 10.1516 6.11269 10.0366Z" fill="white"/>
<path d="M6.48074 11.048L6.17871 11.2163L3.84448 8.82021L3.76538 8.73967L4.07747 8.57715L6.4117 10.979L6.48074 11.048Z" fill="white"/>
<path opacity="0.5" d="M8.66839 7.48571C9.81378 7.48571 10.7423 6.55719 10.7423 5.4118C10.7423 4.26641 9.81378 3.33789 8.66839 3.33789C7.523 3.33789 6.59448 4.26641 6.59448 5.4118C6.59448 6.55719 7.523 7.48571 8.66839 7.48571Z" fill="#2E7D32"/>
<path d="M11.0096 10.1395C10.2689 11.2498 9.20172 13.3683 7.73186 14.5333C6.38281 15.6033 4.6814 16.1311 4.6814 16.1311L0 10.6486L0.194159 9.14427L4.78495 14.3089C4.80365 14.329 4.83241 14.3391 4.85974 14.3319C7.62543 13.6013 8.84072 11.2153 10.2861 9.04934C11.395 7.38677 13.0533 5.61488 15.1876 5.06836C15.3573 5.25533 15.2825 6.82298 15.097 6.88483C13.2057 7.51189 12.0451 8.5848 11.0096 10.1395Z" fill="#2E7D32"/>
<path d="M9.09546 10.8725L9.5298 12.4761C9.5298 12.4761 10.853 10.5402 11.0673 10.0714L10.5869 8.62598C9.94545 9.42419 9.09546 10.8725 9.09546 10.8725Z" fill="#FFC06C"/>
<path d="M8.98327 1.30822C9.09401 1.46786 9.28817 1.63326 9.60027 1.72962C9.71101 1.76414 9.82751 1.7814 9.944 1.7814C10.1914 1.7814 10.3985 1.70517 10.538 1.6347C10.8875 1.98562 11.3247 2.41277 11.7475 2.82698C12.1617 3.23256 12.5874 3.64964 12.9341 3.99625C12.8219 4.1674 12.7327 4.42628 12.7701 4.77576C12.7874 4.93685 12.901 5.1008 13.0218 5.23456C12.2567 5.72643 10.7882 6.81947 9.28242 8.74668C8.96457 9.1537 8.65392 9.6053 8.35477 10.0411C7.60977 11.1255 6.84033 12.2444 5.81632 12.929C5.69551 12.732 5.47258 12.4932 5.0742 12.394C4.97784 12.3696 4.88291 12.358 4.79231 12.358C4.5363 12.358 4.33495 12.453 4.19113 12.5652L2.01942 10.0684C2.20208 9.92602 2.37322 9.68296 2.39048 9.30759C2.39911 9.13213 2.30563 8.97248 2.1992 8.85167C3.25773 8.06784 4.37522 6.81803 4.9764 5.92059C5.06413 5.78971 5.15474 5.65308 5.24822 5.51213C6.18881 4.09261 7.46308 2.17691 8.98327 1.30822ZM9.09689 0.97168C7.26748 1.87776 5.81056 4.23787 4.77361 5.78252C4.09477 6.79358 2.86797 8.11243 1.81088 8.82435C1.81088 8.82435 2.15749 9.07028 2.14599 9.29321C2.11722 9.8915 1.6311 9.99218 1.6311 9.99218L4.18394 12.9261C4.18394 12.9261 4.37091 12.5982 4.79087 12.5982C4.85846 12.5982 4.93325 12.6069 5.01379 12.627C5.59195 12.7708 5.70845 13.2799 5.70845 13.2799C7.33939 12.3307 8.32457 10.3647 9.47227 8.89338C11.0299 6.89857 12.5788 5.76814 13.4173 5.27195C13.4173 5.27195 13.0319 4.95986 13.0103 4.747C12.9513 4.18753 13.2677 3.98618 13.2677 3.98618C12.527 3.23687 11.3103 2.07048 10.5739 1.32404C10.5739 1.32404 10.3064 1.53402 9.94256 1.53402C9.85627 1.53402 9.76422 1.52252 9.67074 1.49375C9.14147 1.33411 9.09689 0.97168 9.09689 0.97168Z" fill="#2E7D32"/>
<path d="M5.49533 3.65234L4.09595 5.76796L9.09519 10.8722C9.09519 10.8722 9.9121 9.58068 10.5852 8.6257L5.49533 3.65234Z" fill="#FFECB3"/>
<path opacity="0.68" d="M10.7884 9.2334C10.7884 9.2334 9.80177 9.73534 9.53282 11.2656C9.43071 11.8438 9.53138 12.4766 9.53138 12.4766L10.3454 11.2239L10.9279 9.48221L10.7884 9.2334Z" fill="#D69136"/>
<path d="M0 10.6479L4.66414 16.1117C4.66414 16.1117 4.87268 15.8025 4.92014 15.3207C4.96185 14.9007 4.81515 14.3427 4.81515 14.3427L0.194159 9.14355L0 10.6479Z" fill="#206022"/>
<defs>
<linearGradient id="paint0_linear_700_3631" x1="9.46619" y1="0.465756" x2="9.46619" y2="0.465756" gradientUnits="userSpaceOnUse">
<stop stop-color="#43A047"/>
<stop offset="0.999" stop-color="#66BB6A"/>
</linearGradient>
</defs>
</svg>
