<svg width="24" height="24" viewBox="0 0 24 24" fill="none" xmlns="http://www.w3.org/2000/svg">
<path d="M13.2483 5.396H5.35571V6.68459H13.2483V5.396Z" fill="#1F4B82"/>
<path d="M16.1537 5.67225L15.4626 4.93783L14.5242 5.82084L16.2138 7.61657L18.6193 4.72047L17.6281 3.89722L16.1537 5.67225Z" fill="#1F4B82"/>
<path d="M13.2483 9.42285H5.35571V10.7114H13.2483V9.42285Z" fill="#1F4B82"/>
<path d="M16.1537 9.69886L15.4626 8.96445L14.5242 9.84745L16.2138 11.6432L18.6193 8.74708L17.6281 7.92383L16.1537 9.69886Z" fill="#1F4B82"/>
<path d="M13.2483 13.4497H5.35571V14.7383H13.2483V13.4497Z" fill="#1F4B82"/>
<path d="M16.1537 13.7257L15.4626 12.9913L14.5242 13.8743L16.2138 15.67L18.6193 12.7739L17.6281 11.9507L16.1537 13.7257Z" fill="#1F4B82"/>
<path d="M13.2483 17.4766H5.35571V18.7652H13.2483V17.4766Z" fill="#1F4B82"/>
<path d="M16.1537 17.7526L15.4626 17.0182L14.5242 17.9012L16.2138 19.6969L18.6193 16.8008L17.6281 15.9775L16.1537 17.7526Z" fill="#1F4B82"/>
<path d="M21.302 1.85235C21.302 0.829289 20.4727 0 19.4497 0H4.55035C3.52729 0 2.698 0.829289 2.698 1.85235V22.1476C2.698 23.1707 3.52729 24 4.55035 24H19.4497C20.4727 24 21.302 23.1707 21.302 22.1476V1.85235ZM20.0134 22.1476C20.0134 22.459 19.761 22.7114 19.4497 22.7114H4.55035C4.23899 22.7114 3.98659 22.459 3.98659 22.1476V1.85235C3.98659 1.54099 4.23899 1.28859 4.55035 1.28859H19.4497C19.761 1.28859 20.0134 1.54099 20.0134 1.85235V22.1476Z" fill="#1F4B82"/>
</svg>
