<svg width="380" height="308" viewBox="0 0 380 308" fill="none" xmlns="http://www.w3.org/2000/svg">
<path opacity="0.4" d="M379.816 204.344C379.816 214.84 371.315 223.335 360.862 223.335C350.386 223.335 341.908 214.84 341.908 204.344C341.908 193.87 350.386 185.353 360.862 185.353C371.315 185.353 379.816 193.87 379.816 204.344Z" fill="#E5E5FF"/>
<path opacity="0.4" d="M48.9817 42.8162C64.949 42.8162 77.8837 55.7991 77.8837 71.7976C77.8837 87.7961 64.949 100.756 48.9817 100.756C33.0143 100.756 20.0566 87.7961 20.0566 71.7976C20.0566 55.7991 33.0143 42.8162 48.9817 42.8162Z" fill="#E5E5FF"/>
<path opacity="0.4" d="M163.051 23.4338C166.037 31.2144 162.155 39.9617 154.389 42.9312C146.601 45.9238 137.893 42.0335 134.907 34.2529C131.92 26.4724 135.826 17.725 143.591 14.7324C151.357 11.7629 160.087 15.6532 163.051 23.4338Z" fill="#E5E5FF"/>
<path d="M127.394 36.3017C126.475 36.3017 125.533 36.2326 124.614 36.0945L124.706 35.519C125.602 35.6571 126.498 35.7262 127.417 35.7262H127.509V36.3017H127.394ZM130.404 36.0484L130.312 35.496C131.231 35.3348 132.15 35.1046 133.046 34.7824L133.23 35.3348C132.311 35.6571 131.369 35.8873 130.404 36.0484ZM121.765 35.4039C120.846 35.1046 119.95 34.7133 119.077 34.2759L119.353 33.7695C120.18 34.2069 121.053 34.5752 121.949 34.8514L121.765 35.4039ZM135.918 34.1839L135.642 33.6774C136.469 33.2401 137.273 32.7106 138.008 32.1582L138.376 32.6185C137.595 33.194 136.768 33.7235 135.918 34.1839ZM116.596 32.7336C115.815 32.1582 115.08 31.5136 114.413 30.823L114.804 30.4317C115.47 31.0993 116.182 31.7208 116.941 32.2733L116.596 32.7336ZM140.536 30.6619L140.122 30.2706C140.765 29.58 141.363 28.8434 141.891 28.0607L142.373 28.383C141.822 29.1886 141.202 29.9483 140.536 30.6619ZM112.552 28.5671C111.978 27.7845 111.496 26.9327 111.059 26.058L111.588 25.8048C112.001 26.6565 112.484 27.4622 113.012 28.2448L112.552 28.5671ZM143.821 25.8508L143.292 25.5976C143.706 24.7459 144.028 23.8481 144.28 22.9504L144.832 23.1115C144.579 24.0323 144.234 24.9531 143.821 25.8508ZM110.025 23.3187C109.75 22.3979 109.543 21.4311 109.405 20.4643L109.979 20.3952C110.117 21.316 110.301 22.2598 110.577 23.1576L110.025 23.3187ZM145.406 20.2341L144.832 20.165C144.924 19.4975 144.97 18.8069 144.97 18.1163C144.97 17.8554 144.962 17.6022 144.947 17.3567L145.521 17.3106C145.536 17.5869 145.544 17.8554 145.544 18.1163C145.544 18.8299 145.498 19.5435 145.406 20.2341ZM109.841 17.5638L109.267 17.5408C109.313 16.574 109.405 15.6072 109.612 14.6404L110.163 14.7555C109.979 15.6762 109.887 16.62 109.841 17.5638ZM144.579 14.5483C144.395 13.6275 144.12 12.7067 143.798 11.832L144.326 11.6248C144.671 12.5226 144.947 13.4664 145.153 14.4332L144.579 14.5483ZM110.921 12.0392L110.37 11.832C110.714 10.9112 111.128 10.0365 111.61 9.18476L112.093 9.46099C111.633 10.2897 111.243 11.1414 110.921 12.0392ZM143.729 11.6939C143.384 10.8191 142.971 9.9444 142.488 9.13872L142.994 8.86249C143.476 9.69119 143.913 10.5659 144.257 11.4867L143.729 11.6939ZM113.701 7.11301L113.242 6.76772C113.839 6.00808 114.528 5.27146 115.24 4.62691L115.631 5.06428C114.919 5.68581 114.276 6.37639 113.701 7.11301ZM140.857 6.83678C140.26 6.12318 139.594 5.43259 138.881 4.81107L139.272 4.39672C140.007 5.01825 140.696 5.73185 141.317 6.46847L140.857 6.83678ZM117.837 3.33783L117.538 2.85442C118.342 2.32497 119.215 1.86458 120.111 1.47325L120.341 2.0027C119.468 2.37101 118.641 2.8314 117.837 3.33783ZM136.584 3.15367C135.803 2.64724 134.953 2.23289 134.08 1.86458L134.309 1.33514C135.205 1.70345 136.078 2.14082 136.906 2.67026L136.584 3.15367ZM122.983 1.08192L122.845 0.506437C123.787 0.276242 124.752 0.115106 125.717 0.0230286L125.763 0.598514C124.821 0.667573 123.902 0.828709 122.983 1.08192ZM131.369 0.989845C130.45 0.75965 129.531 0.621534 128.589 0.552476L128.635 -0.0230103C129.6 0.046048 130.565 0.207184 131.507 0.437378L131.369 0.989845Z" fill="#9192FF"/>
<path d="M308.342 237.422V236.847C309.284 236.824 310.249 236.801 311.191 236.732L311.237 237.307C310.272 237.376 309.307 237.399 308.342 237.422ZM305.47 237.399C304.505 237.376 303.54 237.33 302.598 237.261L302.621 236.686C303.586 236.755 304.528 236.801 305.493 236.824L305.47 237.399ZM314.109 237.054L314.04 236.479C314.982 236.387 315.924 236.248 316.866 236.11L316.958 236.663C316.016 236.824 315.051 236.962 314.109 237.054ZM299.704 236.985C298.762 236.87 297.797 236.709 296.855 236.548L296.947 235.995C297.889 236.156 298.854 236.294 299.773 236.41L299.704 236.985ZM319.806 236.156L319.692 235.604C320.611 235.397 321.553 235.189 322.471 234.936L322.609 235.512C321.69 235.742 320.748 235.949 319.806 236.156ZM294.029 235.995C293.087 235.788 292.145 235.558 291.226 235.328L291.387 234.752C292.283 235.005 293.225 235.236 294.144 235.443L294.029 235.995ZM325.389 234.706L325.228 234.154C326.124 233.877 327.043 233.578 327.939 233.256L328.123 233.785C327.227 234.108 326.308 234.43 325.389 234.706ZM288.469 234.476C287.55 234.2 286.631 233.877 285.735 233.532L285.942 233.003C286.838 233.325 287.734 233.647 288.653 233.946L288.469 234.476ZM330.788 232.726L330.582 232.197C331.455 231.829 332.328 231.437 333.178 231.023L333.43 231.552C332.557 231.967 331.684 232.358 330.788 232.726ZM283.047 232.427C282.174 232.059 281.278 231.644 280.428 231.23L280.681 230.701C281.531 231.115 282.404 231.529 283.277 231.898L283.047 232.427ZM336.004 230.263L335.728 229.757C336.555 229.297 337.405 228.836 338.209 228.353L338.508 228.836C337.681 229.343 336.854 229.803 336.004 230.263ZM277.855 229.895C277.028 229.435 276.178 228.951 275.351 228.445L275.649 227.961C276.476 228.445 277.303 228.928 278.13 229.389L277.855 229.895ZM340.943 227.317L340.644 226.833C341.426 226.304 342.23 225.752 342.988 225.199L343.309 225.659C342.551 226.235 341.747 226.787 340.943 227.317ZM272.938 226.879C272.134 226.35 271.353 225.775 270.572 225.199L270.916 224.739C271.698 225.314 272.479 225.867 273.26 226.396L272.938 226.879ZM345.607 223.91L345.239 223.473C345.997 222.874 346.733 222.253 347.445 221.631L347.812 222.068C347.1 222.69 346.365 223.311 345.607 223.91ZM268.32 223.427C267.562 222.805 266.827 222.184 266.138 221.539L266.505 221.102C267.218 221.746 267.953 222.368 268.688 222.989L268.32 223.427ZM349.926 220.089L349.536 219.674C350.202 219.007 350.891 218.316 351.534 217.626L351.948 218.017C351.305 218.731 350.615 219.421 349.926 220.089ZM264.024 219.536C263.358 218.869 262.692 218.155 262.048 217.441L262.462 217.073C263.105 217.764 263.771 218.454 264.438 219.122L264.024 219.536ZM353.878 215.876L353.441 215.508C354.039 214.794 354.659 214.035 355.233 213.298L355.693 213.643C355.095 214.403 354.498 215.14 353.878 215.876ZM260.141 215.278C259.521 214.541 258.924 213.781 258.349 213.022L258.809 212.676C259.36 213.436 259.958 214.173 260.578 214.909L260.141 215.278ZM357.416 211.318L356.933 210.973C357.485 210.213 358.013 209.408 358.542 208.602L359.024 208.901C358.496 209.73 357.967 210.536 357.416 211.318ZM256.672 210.674C256.121 209.891 255.592 209.062 255.087 208.257L255.592 207.957C256.075 208.763 256.603 209.569 257.132 210.352L256.672 210.674ZM360.517 206.438L360.012 206.139C360.494 205.31 360.954 204.482 361.39 203.63L361.896 203.883C361.459 204.735 361 205.586 360.517 206.438ZM253.64 205.771C253.18 204.919 252.744 204.067 252.307 203.215L252.835 202.962C253.249 203.791 253.686 204.643 254.145 205.471L253.64 205.771ZM363.137 201.305L362.608 201.052C363.022 200.177 363.389 199.302 363.734 198.427L364.262 198.635C363.918 199.509 363.527 200.407 363.137 201.305ZM251.089 200.614C250.722 199.74 250.354 198.842 250.01 197.944L250.538 197.737C250.883 198.612 251.25 199.509 251.618 200.384L251.089 200.614ZM365.273 195.918L364.722 195.734C365.02 194.836 365.319 193.916 365.595 192.995L366.146 193.156C365.871 194.077 365.572 194.998 365.273 195.918ZM249.045 195.228C248.746 194.307 248.447 193.386 248.195 192.442L248.746 192.304C248.999 193.225 249.297 194.146 249.573 195.044L249.045 195.228ZM366.881 190.371L366.33 190.233C366.56 189.312 366.744 188.368 366.927 187.424L367.502 187.539C367.318 188.483 367.111 189.427 366.881 190.371ZM247.505 189.657C247.299 188.713 247.115 187.769 246.954 186.826L247.505 186.711C247.689 187.654 247.873 188.598 248.08 189.519L247.505 189.657ZM367.938 184.708L367.387 184.616C367.502 183.672 367.617 182.728 367.708 181.784L368.283 181.83C368.191 182.774 368.076 183.741 367.938 184.708ZM246.494 183.971C246.38 183.027 246.265 182.061 246.196 181.094L246.77 181.048C246.839 182.015 246.954 182.958 247.069 183.902L246.494 183.971ZM368.49 178.93L367.915 178.907C367.938 177.963 367.961 176.996 367.961 176.053H368.536C368.536 177.019 368.513 177.986 368.49 178.93ZM246.035 178.216C245.989 177.503 245.989 176.766 245.989 176.053C245.989 175.807 245.989 175.561 245.989 175.316L246.563 175.339C246.563 175.569 246.563 175.807 246.563 176.053C246.563 176.766 246.563 177.48 246.609 178.193L246.035 178.216ZM367.961 174.648C367.938 173.682 367.892 172.738 367.823 171.771L368.398 171.748C368.467 172.692 368.513 173.659 368.536 174.625L367.961 174.648ZM246.655 172.485L246.081 172.439C246.15 171.495 246.219 170.528 246.334 169.561L246.908 169.63C246.793 170.574 246.724 171.541 246.655 172.485ZM367.548 168.94C367.456 167.996 367.318 167.052 367.157 166.108L367.731 166.016C367.892 166.96 368.007 167.927 368.122 168.87L367.548 168.94ZM247.253 166.799L246.701 166.707C246.839 165.763 247 164.796 247.184 163.852L247.758 163.967C247.574 164.911 247.39 165.855 247.253 166.799ZM366.629 163.3C366.422 162.379 366.215 161.435 365.962 160.514L366.514 160.353C366.767 161.297 366.996 162.241 367.18 163.185L366.629 163.3ZM248.401 161.182L247.85 161.044C248.08 160.1 248.332 159.179 248.608 158.259L249.16 158.42C248.884 159.317 248.631 160.261 248.401 161.182ZM365.181 157.752C364.883 156.854 364.584 155.934 364.262 155.036L364.791 154.852C365.135 155.749 365.434 156.67 365.733 157.591L365.181 157.752ZM250.056 155.68L249.504 155.496C249.826 154.575 250.17 153.678 250.538 152.78L251.066 153.01C250.722 153.885 250.377 154.783 250.056 155.68ZM363.205 152.389C362.838 151.514 362.447 150.639 362.034 149.764L362.539 149.534C362.953 150.386 363.366 151.284 363.734 152.158L363.205 152.389ZM252.215 150.386L251.71 150.133C252.1 149.258 252.537 148.406 252.996 147.531L253.502 147.808C253.042 148.659 252.629 149.511 252.215 150.386ZM360.747 147.232C360.288 146.404 359.805 145.575 359.323 144.746L359.828 144.447C360.311 145.276 360.793 146.127 361.253 146.956L360.747 147.232ZM254.88 145.299L254.398 145.022C254.88 144.194 255.386 143.365 255.914 142.559L256.397 142.882C255.868 143.664 255.363 144.493 254.88 145.299ZM357.806 142.329C357.278 141.546 356.727 140.764 356.152 140.004L356.612 139.659C357.186 140.418 357.738 141.224 358.266 142.03L357.806 142.329ZM258.028 140.488L257.568 140.142C258.12 139.383 258.717 138.6 259.314 137.84L259.751 138.209C259.153 138.945 258.579 139.728 258.028 140.488ZM354.429 137.725C353.832 136.989 353.212 136.252 352.568 135.538L353.005 135.147C353.648 135.861 354.268 136.597 354.866 137.357L354.429 137.725ZM261.589 136.022L261.152 135.63C261.796 134.917 262.439 134.203 263.105 133.513L263.519 133.904C262.875 134.595 262.209 135.285 261.589 136.022ZM350.638 133.444C349.972 132.776 349.283 132.108 348.594 131.464L348.984 131.027C349.673 131.694 350.363 132.362 351.052 133.052L350.638 133.444ZM265.54 131.878L265.15 131.464C265.862 130.796 266.574 130.152 267.286 129.507L267.677 129.945C266.942 130.566 266.23 131.211 265.54 131.878ZM346.434 129.553C345.722 128.932 344.964 128.333 344.205 127.758L344.573 127.297C345.331 127.873 346.089 128.494 346.802 129.116L346.434 129.553ZM269.883 128.126L269.515 127.689C270.273 127.09 271.054 126.515 271.835 125.962L272.157 126.423C271.399 126.975 270.618 127.551 269.883 128.126ZM341.908 126.054C341.127 125.525 340.323 124.972 339.519 124.466L339.817 123.983C340.644 124.489 341.449 125.041 342.23 125.594L341.908 126.054ZM274.546 124.811L274.225 124.328C275.029 123.798 275.856 123.292 276.683 122.832L276.982 123.315C276.155 123.798 275.328 124.305 274.546 124.811ZM337.06 122.993C336.233 122.532 335.406 122.072 334.556 121.658L334.809 121.128C335.659 121.566 336.509 122.026 337.359 122.486L337.06 122.993ZM279.463 121.957L279.187 121.45C280.037 121.013 280.91 120.576 281.783 120.184L282.036 120.691C281.163 121.105 280.313 121.52 279.463 121.957ZM331.937 120.438C331.064 120.046 330.191 119.678 329.295 119.333L329.502 118.78C330.398 119.126 331.294 119.517 332.167 119.908L331.937 120.438ZM284.655 119.586L284.426 119.033C285.322 118.688 286.241 118.343 287.137 118.021L287.32 118.573C286.424 118.872 285.528 119.218 284.655 119.586ZM326.607 118.343C325.711 118.044 324.792 117.767 323.873 117.514L324.034 116.962C324.953 117.215 325.895 117.491 326.791 117.813L326.607 118.343ZM290.031 117.675L289.871 117.123C290.789 116.847 291.731 116.593 292.673 116.363L292.811 116.939C291.869 117.169 290.95 117.399 290.031 117.675ZM321.116 116.778C320.197 116.547 319.255 116.363 318.313 116.179L318.428 115.627C319.37 115.788 320.312 115.995 321.254 116.202L321.116 116.778ZM295.591 116.34L295.476 115.765C296.418 115.581 297.36 115.419 298.325 115.281L298.394 115.857C297.452 115.995 296.51 116.156 295.591 116.34ZM315.487 115.765C314.545 115.627 313.603 115.511 312.638 115.442L312.707 114.867C313.649 114.959 314.614 115.051 315.556 115.189L315.487 115.765ZM301.243 115.511L301.197 114.936C302.139 114.844 303.104 114.775 304.069 114.706L304.092 115.281C303.15 115.35 302.185 115.419 301.243 115.511ZM309.812 115.258C308.962 115.235 308.135 115.212 307.285 115.212C307.178 115.212 307.063 115.212 306.941 115.212V114.637C307.063 114.637 307.178 114.637 307.285 114.637C308.135 114.637 308.985 114.66 309.835 114.683L309.812 115.258Z" fill="#9192FF"/>
<path d="M58.6541 170.114C57.6892 170.091 56.7242 170.068 55.7823 169.999L55.8282 169.423C56.7472 169.492 57.7121 169.515 58.6541 169.538V170.114ZM61.5489 170.022L61.5259 169.446C62.4679 169.377 63.4098 169.285 64.3518 169.17L64.4207 169.722C63.4788 169.86 62.5138 169.953 61.5489 170.022ZM52.9104 169.653C51.9455 169.515 51.0035 169.354 50.0616 169.124L50.1765 168.571C51.1184 168.779 52.0604 168.963 52.9794 169.101L52.9104 169.653ZM67.2925 169.216L67.1777 168.663C68.0966 168.456 69.0386 168.226 69.9346 167.973L70.0954 168.525C69.1765 168.779 68.2345 169.009 67.2925 169.216ZM47.2817 168.387C46.3627 168.111 45.4437 167.789 44.5477 167.443L44.7545 166.914C45.6275 167.259 46.5465 167.559 47.4425 167.835L47.2817 168.387ZM72.8524 167.628L72.6456 167.075C73.5416 166.753 74.4147 166.385 75.2877 165.993L75.5174 166.523C74.6444 166.914 73.7484 167.282 72.8524 167.628ZM41.8826 166.315C41.0096 165.924 40.1366 165.464 39.3095 165.003L39.5852 164.497C40.4123 164.957 41.2623 165.395 42.1124 165.809L41.8826 166.315ZM78.1136 165.211L77.8609 164.704C78.6879 164.267 79.515 163.783 80.2962 163.277L80.6178 163.76C79.8137 164.267 78.9636 164.773 78.1136 165.211ZM36.8512 163.484C36.0471 162.955 35.243 162.402 34.4848 161.804L34.8294 161.343C35.5876 161.919 36.3687 162.494 37.1499 163.001L36.8512 163.484ZM83.0072 162.103L82.6625 161.643C83.4207 161.09 84.1789 160.492 84.8911 159.87L85.2587 160.307C84.5465 160.929 83.7883 161.527 83.0072 162.103ZM32.2563 159.962C31.5441 159.341 30.8318 158.673 30.1656 157.982L30.5791 157.568C31.2454 158.259 31.9346 158.903 32.6468 159.548L32.2563 159.962ZM87.3723 158.305L86.9818 157.913C87.648 157.246 88.2913 156.532 88.9116 155.819L89.3482 156.21C88.7278 156.924 88.0616 157.637 87.3723 158.305ZM28.2127 155.819C27.5924 155.082 26.9721 154.322 26.4207 153.563L26.8802 153.217C27.4316 153.977 28.0289 154.737 28.6493 155.45L28.2127 155.819ZM91.1861 153.954L90.7266 153.609C91.278 152.849 91.8294 152.043 92.3578 151.261L92.8403 151.56C92.3119 152.389 91.7605 153.171 91.1861 153.954ZM24.7895 151.146C24.2841 150.34 23.7786 149.511 23.3421 148.66L23.8476 148.383C24.2841 149.212 24.7665 150.041 25.272 150.846L24.7895 151.146ZM94.3107 149.074L93.8052 148.798C94.2647 147.969 94.7012 147.117 95.0918 146.243L95.6202 146.496C95.2297 147.37 94.7931 148.222 94.3107 149.074ZM22.0785 146.035C21.6879 145.161 21.3204 144.263 20.9987 143.365L21.5271 143.158C21.8488 144.056 22.2164 144.953 22.584 145.805L22.0785 146.035ZM96.746 143.802L96.2176 143.595C96.5392 142.721 96.8609 141.8 97.1136 140.902L97.665 141.063C97.3893 141.984 97.0906 142.905 96.746 143.802ZM20.1257 140.603C19.873 139.682 19.6432 138.738 19.4364 137.794L20.0108 137.679C20.1946 138.6 20.4243 139.521 20.6771 140.442L20.1257 140.603ZM98.3772 138.255L97.8258 138.14C98.0326 137.219 98.1934 136.252 98.3312 135.331L98.9056 135.4C98.7677 136.367 98.584 137.311 98.3772 138.255ZM18.9769 134.94C18.8391 133.973 18.7472 133.006 18.7012 132.063L19.2756 132.017C19.3216 132.96 19.4135 133.927 19.5283 134.848L18.9769 134.94ZM99.2272 132.546L98.6529 132.5C98.7218 131.556 98.7448 130.589 98.7448 129.646H99.3191C99.3191 130.612 99.2962 131.579 99.2272 132.546ZM19.2067 129.185L18.6323 129.162C18.6553 128.218 18.7012 127.228 18.7702 126.285L19.3445 126.331C19.2756 127.275 19.2297 128.218 19.2067 129.185ZM98.6988 127.735C98.6529 126.791 98.584 125.824 98.4691 124.88L99.0434 124.811C99.1583 125.778 99.2272 126.745 99.2732 127.712L98.6988 127.735ZM19.6892 123.499L19.1148 123.407C19.2756 122.44 19.4594 121.497 19.6662 120.553L20.2176 120.691C20.0108 121.612 19.827 122.556 19.6892 123.499ZM98.0326 122.072C97.8488 121.128 97.642 120.185 97.3893 119.287L97.9407 119.126C98.1934 120.069 98.4231 121.013 98.584 121.957L98.0326 122.072ZM20.9757 117.929L20.4243 117.767C20.7 116.847 21.0217 115.926 21.3663 115.028L21.9177 115.235C21.5731 116.11 21.2514 117.031 20.9757 117.929ZM96.5622 116.547C96.2635 115.673 95.9189 114.775 95.5283 113.9L96.0567 113.67C96.4473 114.545 96.7919 115.466 97.1136 116.363L96.5622 116.547ZM23.0205 112.611L22.515 112.358C22.9286 111.483 23.3651 110.631 23.8476 109.78L24.353 110.056C23.8705 110.885 23.434 111.736 23.0205 112.611ZM94.3107 111.322C93.8742 110.47 93.3917 109.642 92.9092 108.836L93.3917 108.537C93.8971 109.342 94.3796 110.194 94.8161 111.046L94.3107 111.322ZM25.8464 107.639L25.3639 107.317C25.8923 106.511 26.4667 105.728 27.041 104.969L27.5005 105.314C26.9262 106.074 26.3518 106.856 25.8464 107.639ZM91.324 106.465C90.7726 105.705 90.1982 104.946 89.6009 104.209L90.0374 103.841C90.6347 104.577 91.2321 105.36 91.8064 106.12L91.324 106.465ZM29.3155 103.127L28.879 102.759C29.5223 102.022 30.1885 101.332 30.8778 100.664L31.2684 101.078C30.6021 101.723 29.9358 102.437 29.3155 103.127ZM87.671 102.091C87.0277 101.401 86.3385 100.733 85.6263 100.089L86.0168 99.6742C86.729 100.319 87.4183 100.986 88.0846 101.7L87.671 102.091ZM33.405 99.1448L33.0144 98.7074C33.7496 98.0859 34.5308 97.4874 35.3119 96.9349L35.6335 97.3953C34.8754 97.9478 34.1172 98.5463 33.405 99.1448ZM83.4437 98.247C82.7085 97.6715 81.9274 97.096 81.1462 96.5666L81.4679 96.1062C82.249 96.6356 83.0531 97.2111 83.8113 97.8096L83.4437 98.247ZM37.9999 95.7839L37.6783 95.3005C38.5054 94.7941 39.3324 94.3107 40.1825 93.8503L40.4582 94.3567C39.6311 94.7941 38.7811 95.2775 37.9999 95.7839ZM78.7109 95.0473C77.8838 94.5869 77.0338 94.1265 76.1837 93.7122L76.4364 93.2057C77.3095 93.6201 78.1595 94.0805 78.9866 94.5409L78.7109 95.0473ZM43.0314 93.1367L42.8016 92.6072C43.6746 92.2159 44.5936 91.8706 45.4896 91.5484L45.6734 92.0778C44.8004 92.4001 43.9044 92.7454 43.0314 93.1367ZM73.5876 92.5842C72.6916 92.2389 71.7956 91.9167 70.8996 91.6174L71.0604 91.088C71.9794 91.3642 72.8983 91.6865 73.7944 92.0548L73.5876 92.5842ZM48.4074 91.2261L48.2466 90.6736C49.1656 90.4204 50.1305 90.1902 51.0725 90.006L51.1873 90.5585C50.2454 90.7427 49.3264 90.9729 48.4074 91.2261ZM68.1426 90.8578C67.2236 90.6506 66.2817 90.4664 65.3627 90.3053L65.4546 89.7298C66.3965 89.8909 67.3385 90.0751 68.2804 90.3053L68.1426 90.8578ZM53.9902 90.0981L53.9213 89.5226C54.8633 89.4075 55.8282 89.3155 56.7931 89.2694L56.8161 89.8449C55.8742 89.8909 54.9322 89.983 53.9902 90.0981ZM62.5138 89.937C61.5719 89.8679 60.6299 89.8219 59.665 89.7989L59.6879 89.2234C60.6529 89.2464 61.6178 89.2924 62.5598 89.3845L62.5138 89.937Z" fill="#9192FF"/>
<path fill-rule="evenodd" clip-rule="evenodd" d="M220.441 32.7796C215.088 32.7796 210.746 28.429 210.746 23.0885C210.746 17.7249 215.088 13.3743 220.441 13.3743C225.771 13.3743 230.137 17.7249 230.137 23.0885C230.137 28.429 225.771 32.7796 220.441 32.7796ZM220.441 13.7886C215.318 13.7886 211.183 17.9551 211.183 23.0885C211.183 28.1988 215.318 32.3653 220.441 32.3653C225.542 32.3653 229.7 28.1988 229.7 23.0885C229.7 17.9551 225.542 13.7886 220.441 13.7886Z" fill="#9192FF"/>
<path d="M321.277 67.6541V242.625C321.277 246.285 318.313 249.231 314.683 249.231H60.8828C57.2528 249.231 54.312 246.285 54.312 242.625V67.6541C54.312 63.994 57.2528 61.0475 60.8828 61.0475H314.706C318.313 61.0475 321.277 63.994 321.277 67.6541Z" fill="white"/>
<path fill-rule="evenodd" clip-rule="evenodd" d="M314.706 249.531H60.8828C57.115 249.531 54.0134 246.423 54.0134 242.625V67.6541C54.0134 63.8559 57.115 60.7713 60.8828 60.7713H314.706C318.474 60.7713 321.553 63.8559 321.553 67.6541V242.625C321.553 246.423 318.474 249.531 314.706 249.531ZM60.8828 61.3468C57.4137 61.3468 54.5878 64.1782 54.5878 67.6541V242.625C54.5878 246.124 57.4137 248.955 60.8828 248.955H314.706C318.152 248.955 320.978 246.124 320.978 242.625V67.6541C320.978 64.1782 318.152 61.3468 314.706 61.3468H60.8828Z" fill="#9192FF"/>
<path d="M321.277 67.6541V78.0359H54.312V67.6541C54.312 63.994 57.2528 61.0475 60.8828 61.0475H314.683C318.313 61.0475 321.277 63.994 321.277 67.6541Z" fill="white"/>
<path fill-rule="evenodd" clip-rule="evenodd" d="M321.553 78.3121H54.0134V67.6541C54.0134 63.8559 57.115 60.7713 60.8828 60.7713H314.706C318.474 60.7713 321.553 63.8559 321.553 67.6541V78.3121ZM54.5878 77.7366H320.978V67.6311C320.978 64.1552 318.152 61.3238 314.706 61.3238H60.8828C57.4137 61.3238 54.5878 64.1552 54.5878 67.6311V77.7366Z" fill="#9192FF"/>
<path d="M72.2094 69.5417C72.2094 71.2451 70.8309 72.6033 69.1308 72.6033C67.4537 72.6033 66.0752 71.2451 66.0752 69.5417C66.0752 67.8383 67.4537 66.4801 69.1308 66.4801C70.8309 66.4801 72.2094 67.8383 72.2094 69.5417Z" fill="#016A40"/>
<path d="M80.8247 66.4801C79.1246 66.4801 77.7461 67.8383 77.7461 69.5417C77.7461 71.2451 79.1246 72.6033 80.8017 72.6033C82.5018 72.6033 83.8803 71.2451 83.8803 69.5417C83.8803 67.8383 82.5018 66.4801 80.8017 66.4801H80.8247Z" fill="#016A40"/>
<path fill-rule="evenodd" clip-rule="evenodd" d="M92.4958 72.6033C90.7957 72.6033 89.4172 71.2451 89.4172 69.5417C89.4172 67.8383 90.7957 66.4801 92.4958 66.4801C94.173 66.4801 95.5515 67.8383 95.5515 69.5417C95.5515 71.2451 94.173 72.6033 92.4958 72.6033ZM92.4958 67.0556C91.1174 67.0556 89.9916 68.1605 89.9916 69.5417C89.9916 70.9229 91.1174 72.0278 92.4958 72.0278C93.8743 72.0278 94.9771 70.9229 94.9771 69.5417C94.9771 68.1605 93.8743 67.0556 92.4958 67.0556Z" fill="#9192FF"/>
<path fill-rule="evenodd" clip-rule="evenodd" d="M167.876 72.9486H110.921C109.061 72.9486 107.521 71.4293 107.521 69.5417C107.521 67.6541 109.061 66.1348 110.921 66.1348H167.876C169.736 66.1348 171.276 67.6541 171.276 69.5417C171.276 71.4293 169.736 72.9486 167.876 72.9486ZM110.921 66.7103C109.359 66.7103 108.096 67.9764 108.096 69.5417C108.096 71.107 109.359 72.3731 110.921 72.3731H167.876C169.438 72.3731 170.701 71.107 170.701 69.5417C170.701 67.9764 169.438 66.7103 167.876 66.7103H110.921Z" fill="#9192FF"/>
<path d="M240.269 159.456C240.269 187.01 217.983 209.362 190.483 209.362C162.982 209.362 140.674 187.01 140.674 159.456C140.674 133.605 160.294 112.358 185.428 109.826L187.105 126.193C170.265 127.896 157.1 142.145 157.1 159.456C157.1 177.94 172.057 192.903 190.483 192.903C208.908 192.903 223.842 177.917 223.842 159.456C223.842 156.233 223.382 153.125 222.532 150.179L238.316 145.598C239.579 149.995 240.269 154.645 240.269 159.456Z" fill="#9192FF"/>
<path d="M230.688 159.456C230.688 181.715 212.676 199.74 190.482 199.74C168.266 199.74 150.277 181.715 150.277 159.456C150.277 137.219 168.266 119.172 190.482 119.172C212.676 119.172 230.688 137.219 230.688 159.456Z" fill="white"/>
<path opacity="0.5" d="M230.688 159.456C230.688 181.715 212.676 199.74 190.482 199.74C168.266 199.74 150.277 181.715 150.277 159.456C150.277 137.219 168.266 119.172 190.482 119.172C212.676 119.172 230.688 137.219 230.688 159.456Z" fill="#D1D1FF"/>
<path d="M218.948 159.456C218.948 175.224 206.197 188 190.482 188C174.745 188 161.994 175.224 161.994 159.456C161.994 143.687 174.745 130.911 190.482 130.911C206.197 130.911 218.948 143.687 218.948 159.456Z" fill="white"/>
<path d="M193.722 173.497V177.825H188.231V173.682C184.325 173.451 180.534 172.392 178.191 170.965L181.155 164.221C183.728 165.763 187.174 166.73 190.184 166.73C192.78 166.73 193.722 166.177 193.722 165.256C193.722 161.804 178.627 164.589 178.627 154.368C178.627 149.949 181.821 146.242 188.231 145.345V141.086H193.722V145.276C196.617 145.552 199.419 146.288 201.648 147.532L198.868 154.23C196.18 152.849 193.653 152.181 191.263 152.181C188.575 152.181 187.702 152.964 187.702 153.908C187.702 157.2 202.82 154.46 202.82 164.543C202.82 168.755 199.764 172.439 193.722 173.497Z" fill="#9192FF"/>
<path d="M367.732 93.2748H259.406V26.9097H367.732V93.2748Z" fill="white"/>
<path fill-rule="evenodd" clip-rule="evenodd" d="M368.03 93.574H259.131V26.6335H368.03V93.574ZM259.705 92.9985H367.456V27.209H259.705V92.9985Z" fill="#9192FF"/>
<path d="M279.279 83.6296H273.053V72.1659H279.279V83.6296Z" fill="#D1D1FF"/>
<path d="M291.754 83.6296H285.505V66.9175H291.754V83.6296Z" fill="#D1D1FF"/>
<path d="M304.23 83.6296H297.981V71.1991H304.23V83.6296Z" fill="#D1D1FF"/>
<path d="M316.682 83.6296H310.456V62.4517H316.682V83.6296Z" fill="#D1D1FF"/>
<path d="M329.157 83.6296H322.931V56.858H329.157V83.6296Z" fill="#D1D1FF"/>
<path d="M341.632 83.6296H335.383V48.8702H341.632V83.6296Z" fill="#D1D1FF"/>
<path d="M354.108 83.6296H347.859V36.5779H354.108V83.6296Z" fill="#D1D1FF"/>
<path d="M277.993 47.7653H273.053V42.1486H277.993V47.7653Z" fill="#D1D1FF"/>
<path d="M319.209 46.2H285.666V44.7498H319.209V46.2Z" fill="#D1D1FF"/>
<path d="M270.25 126.929L263.404 107.938C255.638 110.746 250.102 118.205 250.102 126.929C250.102 138.094 259.131 147.117 270.25 147.117C281.393 147.117 290.422 138.094 290.422 126.929C290.422 123.568 289.595 120.415 288.148 117.629L270.25 126.929Z" fill="#EBEBFF"/>
<path d="M290.835 110.447C287.458 103.979 280.727 99.5591 272.938 99.5591C270.526 99.5591 268.228 99.9734 266.069 100.756L272.938 119.747L290.835 110.447Z" fill="#9192FF"/>
<path d="M298.785 237.1H251.113V191.637H298.785V237.1Z" fill="#EBEBFF"/>
<path d="M285.299 205.633H258.579V203.722H285.299V205.633Z" fill="white"/>
<path d="M285.299 211.387H258.579V209.477H285.299V211.387Z" fill="white"/>
<path d="M116.803 174.948H75.3567V104.738H116.803V174.948Z" fill="#EBEBFF"/>
<path d="M108.854 139.843H81.6748V114.913H108.854V139.843Z" fill="white"/>
<path d="M108.67 140.05L81.491 115.12L81.8586 114.683L109.06 139.636L108.67 140.05Z" fill="#EBEBFF"/>
<path d="M81.8586 140.05L81.491 139.636L108.67 114.683L109.06 115.12L81.8586 140.05Z" fill="#EBEBFF"/>
<path d="M95.2757 196.01H0.459473V133.421H95.2757V196.01Z" fill="white"/>
<path fill-rule="evenodd" clip-rule="evenodd" d="M95.5514 196.287H0.183838V133.144H95.5514V196.287ZM0.735228 195.734H95V133.674H0.735228V195.734Z" fill="#9192FF"/>
<path d="M10.4534 180.887L16.5876 169.377L29.2236 181.278L37.6323 156.716L53.347 173.981L63.6855 169.768L82.4328 145.207" fill="white"/>
<path d="M29.3385 181.784L16.6565 169.86L10.7061 181.025L10.2007 180.749L16.4957 168.917L29.0858 180.772L37.5175 156.164L53.4159 173.636L63.5018 169.538L82.2031 145.045L82.6626 145.391L63.8694 169.998L53.2551 174.326L53.1172 174.188L37.7472 157.269L29.3385 181.784Z" fill="#9192FF"/>
<path d="M18.2188 169.331C18.2188 170.206 17.5066 170.919 16.6336 170.919C15.7606 170.919 15.0483 170.206 15.0483 169.331C15.0483 168.456 15.7606 167.743 16.6336 167.743C17.5066 167.743 18.2188 168.456 18.2188 169.331Z" fill="#9192FF"/>
<path d="M30.6942 181.002C30.6942 181.854 29.9819 182.567 29.1319 182.567C28.2588 182.567 27.5466 181.854 27.5466 181.002C27.5466 180.127 28.2588 179.413 29.1319 179.413C29.9819 179.413 30.6942 180.127 30.6942 181.002Z" fill="#9192FF"/>
<path d="M39.3096 156.831C39.3096 157.683 38.5974 158.397 37.7474 158.397C36.8743 158.397 36.1621 157.683 36.1621 156.831C36.1621 155.957 36.8743 155.243 37.7474 155.243C38.5974 155.243 39.3096 155.957 39.3096 156.831Z" fill="#9192FF"/>
<path d="M67.9819 143.964H27.7764V143.388H67.9819V143.964Z" fill="#9192FF"/>
<path d="M225.909 284.727C224.209 273.563 226.53 261.823 232.388 252.178C238.224 242.533 247.528 235.028 258.189 231.368C252.169 235.604 248.47 242.464 245.897 249.369C243.324 256.298 241.647 263.572 238.476 270.225C235.306 276.901 230.297 283.116 223.359 285.602L225.909 284.727Z" fill="#9192FF"/>
<path d="M224.232 284.819C224.002 271.906 221.498 259.061 216.88 247.021C215.249 242.74 213.273 238.481 210.08 235.19C206.886 231.921 202.245 229.757 197.742 230.563C203.348 234.752 206.266 241.681 207.897 248.495C209.528 255.308 210.172 262.398 212.469 269.028C214.767 275.658 219.178 282.034 225.771 284.405L224.232 284.819Z" fill="#9192FF"/>
<path d="M223.359 285.648C220.143 277.016 216.674 268.153 210.218 261.57C203.785 254.963 193.561 251.211 185.129 254.894C191.953 256.436 198.225 260.396 202.567 265.92C205.738 269.972 207.874 274.76 211.16 278.742C214.422 282.725 219.408 285.924 224.462 284.958L223.359 285.648Z" fill="#D1D1FF"/>
<path d="M222.325 285.073C221.016 275.589 219.706 265.943 221.085 256.459C222.463 246.975 226.943 237.514 234.961 232.289C230.527 236.64 229.034 243.246 229.034 249.485C229.034 255.7 230.297 261.869 230.412 268.107C230.504 274.323 229.286 280.929 225.082 285.533L222.325 285.073Z" fill="#D1D1FF"/>
<path d="M226.759 283.691C229.838 275.842 233.123 267.693 239.372 262.076C243.393 258.462 248.516 256.091 253.846 255.354C250.101 258.347 247.758 262.744 245.805 267.14C243.852 271.537 242.175 276.118 239.349 280.008C236.546 283.899 232.296 287.098 227.494 287.305L226.759 283.691Z" fill="#D1D1FF"/>
<path d="M242.359 307.54H207.874L202.544 280.952H247.689L242.359 307.54Z" fill="white"/>
<path fill-rule="evenodd" clip-rule="evenodd" d="M242.612 307.839H207.621L202.199 280.676H248.034L242.612 307.839ZM208.104 307.263H242.152L247.345 281.228H202.912L208.104 307.263Z" fill="#9192FF"/>
<path d="M304.138 291.564V307.54H283.438L292.926 299.805L293.409 290.068L304.138 291.564Z" fill="#D1D1FF"/>
<path d="M296.671 303.787L292.719 300.012L293.11 299.598L297.062 303.35L296.671 303.787Z" fill="#1B1B43"/>
<path d="M302.139 296.375H295.04V295.8H302.139V296.375Z" fill="#1B1B43"/>
<path d="M328.33 292.301L329.088 307.54H308.388L317.119 300.058V290.805L328.33 292.301Z" fill="#D1D1FF"/>
<path d="M320.128 303.12L316.912 300.265L317.302 299.828L320.519 302.683L320.128 303.12Z" fill="#1B1B43"/>
<path d="M326.446 296.674H319.462V296.099H326.446V296.674Z" fill="#1B1B43"/>
<path d="M306.229 199.625C306.573 231.506 309.215 262.859 314.247 293.682H331.707C328.077 270.11 326.423 241.474 328.468 203.538L315.855 193.202L306.229 199.625Z" fill="white"/>
<path d="M292.444 203.86L284.54 239.011C282.657 247.459 282.519 256.229 284.15 264.724L289.71 293.452H307.147L301.863 255.746L314.476 198.243L292.444 203.86Z" fill="white"/>
<path d="M307.4 237.561C307.354 236.824 306.366 220.641 306.251 218.593L301.702 216.935L301.909 216.406L306.826 218.201V218.408C306.826 218.754 307.584 231.046 307.974 237.515L307.4 237.561Z" fill="#BE443D"/>
<path d="M345.171 124.443L346.09 122.21C346.09 122.21 342.712 115.097 343.792 114.153C344.872 113.233 346.595 115.88 346.595 115.88C346.595 115.88 346.09 107.248 347.744 107.178C349.145 107.132 349.03 109.619 349.191 113.371C349.191 113.371 350.041 112.22 351.626 113.417C352.339 112.22 353.855 113.002 354.291 113.739C354.774 113.164 356.865 113.302 356.589 115.742C356.221 118.849 354.774 124.581 354.774 124.581L350.179 128.402L345.171 124.443Z" fill="#FFBC96"/>
<path d="M308.25 154.23L315.257 154.184C327.503 153.079 337.083 143.112 337.083 143.112L345.17 124.443L354.774 124.581L349.145 146.519C348.318 149.672 346.572 152.504 344.137 154.622L324.057 172.07L308.25 154.23Z" fill="#016A40"/>
<path d="M289.113 170.114L292.444 203.86L328.468 203.538L327.204 162.863L308.25 154.23L295.155 159.801L289.113 170.114Z" fill="#016A40"/>
<path d="M266.804 173.382C266.207 172.853 265.472 172.531 264.69 172.485C260.716 172.139 248.264 171.172 248.378 172.139C248.516 173.29 258.005 177.618 258.005 177.618C260.027 179.904 262.048 182.191 264.07 184.478L269.653 175.914L266.804 173.382Z" fill="#FFBC96"/>
<path d="M293.96 157.476C291.387 157.936 289.181 159.571 288.01 161.896L277.395 182.797L269.653 175.914L264.07 184.478C264.759 185.23 265.441 185.989 266.115 186.757C269.124 190.163 272.617 194.698 277.326 195.688C279.716 196.195 281.944 195.205 283.667 193.547C284.908 192.35 286.034 190.854 286.93 189.358L291.18 182.36L304.666 155.611L293.96 157.476Z" fill="#016A40"/>
<path d="M290.835 190.9L288.814 170.137L289.388 170.068L291.41 190.831L290.835 190.9Z" fill="#D1D1FF"/>
<path d="M327.434 169.055L324.057 172.07L327.641 178.032L327.434 169.055Z" fill="#1B1B43"/>
<path d="M350.432 117.652C349.076 117.652 348.961 115.88 348.961 113.371H349.398C349.398 116.34 349.651 117.238 350.432 117.238C350.585 117.238 350.723 117.169 350.845 117.031C351.236 116.616 351.374 115.673 351.42 114.798C351.397 114.176 351.397 113.624 351.42 113.394H351.856C351.856 113.44 351.879 114.038 351.856 114.752C351.925 115.926 352.109 117.077 352.5 117.192C352.714 117.253 352.905 117.223 353.074 117.1C353.533 116.778 353.809 115.811 353.947 114.982C353.947 114.614 353.985 114.184 354.062 113.693L354.498 113.739C354.498 113.785 354.475 114.268 354.383 114.89C354.36 115.788 354.452 116.663 354.82 116.824C355.08 116.931 355.31 116.931 355.509 116.824C355.992 116.501 356.175 115.489 356.198 115.12L356.635 115.166C356.612 115.235 356.497 116.709 355.716 117.192C355.41 117.376 355.057 117.384 354.659 117.215C354.544 117.169 354.246 116.985 354.062 116.317C353.901 116.801 353.648 117.215 353.327 117.468C353.051 117.668 352.737 117.714 352.385 117.606C351.994 117.491 351.764 117.008 351.626 116.409C351.512 116.778 351.374 117.1 351.167 117.33C350.953 117.545 350.708 117.652 350.432 117.652Z" fill="#D28572"/>
<path d="M305.218 162.425C302.162 162.655 299.474 160.376 299.244 157.315L299.175 156.532L298.302 145.69L305.057 145.138L309.376 144.792L310.318 156.417C310.548 159.502 308.273 162.172 305.218 162.425Z" fill="#FFBC96"/>
<path d="M307.216 148.798C305.103 152.527 302.093 155.197 299.175 156.532L298.302 145.69L305.057 145.137L307.216 148.798Z" fill="#1B1B43"/>
<path d="M309.422 137.449L308.067 148.752C308.067 148.752 303.77 152.895 297.452 152.688C295.132 152.619 293.799 150.432 292.995 147.647C292.674 146.496 292.444 145.23 292.283 143.987C291.755 139.797 291.984 135.723 291.984 135.723L301.748 132.454L309.422 137.449Z" fill="#FFBC96"/>
<path d="M307.929 142.099C306.918 138.462 305.08 136.643 302.621 136.252C294.764 140.511 289.664 137.978 285.965 133.236C295.04 135.009 299.014 122.049 307.745 130.681C314.201 132.661 314.086 138.83 310.41 143.871L307.929 142.099Z" fill="#1B1B43"/>
<path d="M311.972 143.48C311.65 145.184 310.18 146.335 308.71 146.058C307.216 145.759 306.297 144.148 306.619 142.444C306.964 140.718 308.434 139.567 309.904 139.866C311.375 140.165 312.317 141.777 311.972 143.48Z" fill="#FFBC96"/>
<path d="M310.318 141.8C309.858 141.869 309.56 142.214 309.353 142.605C309.123 142.997 308.985 143.434 308.917 143.894L308.733 143.917C308.664 143.664 308.664 143.388 308.71 143.135C308.756 142.874 308.848 142.621 308.985 142.375C309.1 142.145 309.284 141.938 309.514 141.777C309.744 141.616 310.065 141.546 310.318 141.616V141.8Z" fill="#1B1B43"/>
<path d="M294.328 142.559C294.328 143.043 294.098 143.434 293.799 143.434C293.523 143.434 293.271 143.043 293.271 142.559C293.271 142.053 293.523 141.661 293.799 141.661C294.098 141.661 294.328 142.053 294.328 142.559Z" fill="#1B1B43"/>
<path d="M298.693 142.191C298.693 142.72 298.44 143.158 298.118 143.158C297.797 143.158 297.544 142.72 297.544 142.191C297.544 141.661 297.797 141.224 298.118 141.224C298.44 141.224 298.693 141.661 298.693 142.191Z" fill="#1B1B43"/>
<path d="M295.522 143.273C295.522 143.434 295.453 143.618 295.384 143.756C295.292 143.894 295.201 144.01 295.086 144.125C294.879 144.355 294.695 144.562 294.649 144.769C294.603 144.999 294.672 145.207 294.856 145.414C295.017 145.621 295.247 145.828 295.453 146.035L295.361 146.173C295.086 146.058 294.81 145.897 294.557 145.667C294.442 145.552 294.328 145.414 294.259 145.23C294.19 145.068 294.19 144.861 294.236 144.677C294.282 144.493 294.373 144.332 294.488 144.194C294.603 144.079 294.718 143.963 294.833 143.871C295.063 143.664 295.269 143.503 295.361 143.25L295.522 143.273Z" fill="#1B1B43"/>
<path d="M295.936 148.061C296.556 147.923 297.108 147.739 297.613 147.416C297.858 147.263 298.095 147.086 298.325 146.887C298.555 146.703 298.785 146.496 298.991 146.265L299.129 146.357C298.854 146.933 298.394 147.439 297.843 147.785C297.268 148.13 296.602 148.291 295.959 148.245L295.936 148.061Z" fill="#1B1B43"/>
<path d="M297.429 139.82C297.291 140.465 299.336 140.672 299.704 140.741C300.002 140.787 300.439 140.81 300.508 140.349C300.577 139.797 299.956 139.728 299.612 139.659C299.267 139.59 297.544 139.198 297.429 139.82Z" fill="#1B1B43"/>
<path d="M294.58 140.211C294.58 140.833 292.949 140.902 292.673 140.925C292.421 140.971 292.076 140.971 292.099 140.534C292.145 139.981 292.627 139.958 292.903 139.912C293.179 139.866 294.603 139.613 294.58 140.211Z" fill="#1B1B43"/>
<path opacity="0.2" d="M304.276 144.125C304.276 145.276 303.334 146.219 302.185 146.219C301.036 146.219 300.117 145.276 300.117 144.125C300.117 142.974 301.036 142.03 302.185 142.03C303.334 142.03 304.276 142.974 304.276 144.125Z" fill="white"/>
<path opacity="0.2" d="M293.845 145.989C293.845 146.68 293.501 147.278 292.995 147.647C292.674 146.496 292.444 145.23 292.283 143.987C293.179 144.217 293.845 145.022 293.845 145.989Z" fill="white"/>
<path d="M145.429 215.922H105.476V213.206H145.429V215.922Z" fill="#9192FF"/>
<path d="M145.429 213.229H111.679L124.476 181.992H158.203L145.429 213.229Z" fill="white"/>
<path fill-rule="evenodd" clip-rule="evenodd" d="M145.613 213.505H111.266L124.27 181.715H158.64L145.613 213.505ZM112.093 212.93H145.222L157.766 182.268H124.637L112.093 212.93Z" fill="#9192FF"/>
<path d="M142.511 210.605H115.999L126.039 186.066H152.551L142.511 210.605Z" fill="#EBEBFF"/>
<path d="M131.989 307.701H131.415V216.774H131.989V307.701Z" fill="#1B1B43"/>
<path d="M163.947 221.056H99.48V215.922H163.947V221.056Z" fill="#D1D1FF"/>
<path d="M47.4655 307.701H46.8911V254.963H47.4655V307.701Z" fill="#1B1B43"/>
<path d="M62.9504 257.403H31.4062C32.0955 254.204 34.8984 251.902 38.1838 251.902H56.1729C59.4582 251.902 62.2611 254.204 62.9504 257.403Z" fill="#D1D1FF"/>
<path d="M55.3687 307.54H38.9878C38.9878 305.537 40.619 303.926 42.5948 303.926H51.7617C53.7375 303.926 55.3687 305.537 55.3687 307.54Z" fill="#D1D1FF"/>
<path d="M71.4968 176.72C72.3009 177.894 73.4726 179.529 73.5875 180.979C73.7713 183.051 70.44 181.6 70.394 181.784L71.4968 176.72Z" fill="#D28572"/>
<path d="M66.3964 179.183V194.675H55.8511V179.183H66.3964Z" fill="#FFBC96"/>
<path d="M66.3963 181.854V192.903C63.088 190.808 60.2161 187.701 57.7119 184.11L66.3963 181.854Z" fill="#1B1B43"/>
<path d="M72.324 177.664C72.0023 183.028 69.9576 189.082 64.3518 187.585C59.9407 186.411 55.093 182.682 55.093 177.319C55.093 171.978 58.7919 167.628 63.3639 167.628C66.2127 167.628 69.8197 169.009 71.4969 171.702C72.5078 173.29 72.4848 175.339 72.324 177.664Z" fill="#FFBC96"/>
<path d="M62.9963 176.122C64.4896 172.139 67.9128 171.748 67.9128 171.748C67.9128 171.748 75.8161 179.598 75.3336 171.495C74.9431 165.049 68.671 165.671 68.671 165.671C65.5924 161.666 60.6758 163.231 58.8838 165.556C57.0688 167.858 57.7121 166.546 53.4848 168.042C49.2575 169.561 51.509 175.984 50.7738 176.467C45.145 176.467 46.1789 182.038 46.1789 182.038L59.4812 186.365L62.6976 177.618L62.9963 176.122Z" fill="#1B1B43"/>
<path d="M64.3748 176.582C65.2019 178.009 64.9721 179.667 63.8923 180.311C62.7896 180.933 61.2273 180.288 60.4232 178.861C59.5961 177.434 59.8029 175.776 60.9056 175.132C62.0084 174.51 63.5707 175.155 64.3748 176.582Z" fill="#FFBC96"/>
<path d="M62.6748 178.286C62.491 177.917 62.3302 177.572 62.0775 177.342C61.9549 177.219 61.8171 177.112 61.6639 177.019C61.5031 176.927 61.3193 176.858 61.1355 176.766L61.1585 176.628C61.3729 176.613 61.5873 176.636 61.8018 176.697C62.0085 176.766 62.2153 176.881 62.3761 177.066C62.514 177.227 62.6518 177.434 62.7207 177.618C62.782 177.833 62.8203 178.048 62.8356 178.263L62.6748 178.286Z" fill="#1B1B43"/>
<path d="M57.2527 158.995C59.7339 158.88 61.8246 160.952 61.9625 163.645C62.0773 166.315 60.1934 168.571 57.7122 168.686C55.2539 168.802 53.1402 166.73 53.0253 164.06C52.8875 161.389 54.7944 159.11 57.2527 158.995Z" fill="#1B1B43"/>
<path opacity="0.2" d="M69.7508 180.703C69.7508 181.808 68.8548 182.728 67.752 182.728C66.6262 182.705 65.7302 181.808 65.7302 180.703C65.7302 179.598 66.6262 178.677 67.752 178.677C68.8548 178.7 69.7508 179.598 69.7508 180.703Z" fill="white"/>
<path d="M75.6553 232.796L41.8596 228.468L48.2236 194.814C48.6601 192.466 50.2224 190.463 52.405 189.473C54.22 188.644 56.2877 188.598 58.1486 189.335L69.6819 194.445C71.8874 195.435 73.4267 197.53 73.7024 199.947L74.3457 210.927L75.0809 223.404L75.6553 232.796Z" fill="#FFA121"/>
<path d="M106.556 208.625L115.516 205.978C116.159 205.794 116.849 205.886 117.4 206.277C119.858 207.889 126.36 212.492 124.729 214.38C123.902 215.324 116.412 213.114 116.412 213.114L105.591 216.153L106.556 208.625Z" fill="#FFBC96"/>
<path d="M75.081 223.404C72.2781 219.79 70.601 215.048 70.0496 209.178L74.3458 210.927L75.081 223.404Z" fill="#1B1B43"/>
<path d="M68.6479 194.031L70.0034 194.606C72.7833 195.803 75.2646 197.599 77.2863 199.832L88.3831 212.078L106.556 208.625L108.945 218.408L86.1086 225.544C84.2936 225.867 82.4556 225.245 81.215 223.91L64.7192 205.932L68.6479 194.031Z" fill="#FFA121"/>
<path d="M88.1533 212.262C88.1074 212.193 82.7084 206.3 78.0215 201.029C73.3807 195.826 66.3275 193.294 66.2585 193.271L66.4423 192.742C66.5113 192.765 73.7023 195.343 78.4351 200.661C83.1219 205.909 88.5439 211.802 88.5899 211.871L88.1533 212.262Z" fill="#1B1B43"/>
<path d="M81.0084 224.094L65.6843 208.234L66.0749 207.843L81.4219 223.703L81.0084 224.094Z" fill="#1B1B43"/>
<path d="M74.4148 283.668L67.1318 297.894L85.5345 307.378L80.6409 296.145L84.6385 287.259L74.4148 283.668Z" fill="#D1D1FF"/>
<path d="M75.4946 297.964L75.3337 297.411L80.572 295.869L80.7328 296.421L75.4946 297.964Z" fill="#1B1B43"/>
<path d="M85.879 293.037L69.1995 286.799L80.6178 251.165C82.5937 245.894 88.636 243.292 94.1499 245.341C99.6408 247.413 102.513 253.352 100.537 258.623L85.879 293.037Z" fill="#016A40"/>
<path d="M102.076 290.62L103.684 307.54H124.385L114.919 299.805L112.69 290.045L102.076 290.62Z" fill="#D1D1FF"/>
<path d="M110.14 302.775L109.865 302.268L114.781 299.552L115.057 300.058L110.14 302.775Z" fill="#1B1B43"/>
<path d="M117.01 292.646L98.9057 295.524L86.5223 259.015L84.2479 252.362L53.4849 252.592C45.8803 252.776 39.8379 246.239 40.5731 238.642L41.8597 228.468L72.3011 232.312L92.289 234.522C100.629 235.949 103.179 240.99 104.925 247.505L117.01 292.646Z" fill="#016A40"/>
<path d="M86.5223 259.015L84.2478 252.339L88.4292 252.201C88.7968 254.71 87.8089 257.518 86.5223 259.015Z" fill="#1B1B43"/>
<path d="M361.115 307.839H12.4753V307.263H361.115V307.839Z" fill="#1B1B43"/>
</svg>
