<svg width="24" height="24" viewBox="0 0 24 24" fill="none" xmlns="http://www.w3.org/2000/svg">
<rect width="24" height="24" rx="12" fill="#1F4B82" fill-opacity="0.52"/>
<path d="M12 9.6C11.4213 9.6 10.8664 9.85286 10.4572 10.3029C10.0481 10.753 9.81818 11.3635 9.81818 12C9.81818 12.6365 10.0481 13.247 10.4572 13.6971C10.8664 14.1471 11.4213 14.4 12 14.4C12.5787 14.4 13.1336 14.1471 13.5428 13.6971C13.9519 13.247 14.1818 12.6365 14.1818 12C14.1818 11.3635 13.9519 10.753 13.5428 10.3029C13.1336 9.85286 12.5787 9.6 12 9.6ZM12 16C11.0356 16 10.1107 15.5786 9.4287 14.8284C8.74675 14.0783 8.36364 13.0609 8.36364 12C8.36364 10.9391 8.74675 9.92172 9.4287 9.17157C10.1107 8.42143 11.0356 8 12 8C12.9644 8 13.8893 8.42143 14.5713 9.17157C15.2532 9.92172 15.6364 10.9391 15.6364 12C15.6364 13.0609 15.2532 14.0783 14.5713 14.8284C13.8893 15.5786 12.9644 16 12 16ZM12 6C8.36364 6 5.25818 8.488 4 12C5.25818 15.512 8.36364 18 12 18C15.6364 18 18.7418 15.512 20 12C18.7418 8.488 15.6364 6 12 6Z" fill="white"/>
</svg>
