<svg width="22" height="22" viewBox="0 0 22 22" fill="none" xmlns="http://www.w3.org/2000/svg">
<path d="M14.6667 12.833C15.8822 12.833 17.048 13.3159 17.9076 14.1754C18.7671 15.035 19.25 16.2008 19.25 17.4163V18.333C19.25 18.8192 19.0568 19.2856 18.713 19.6294C18.3692 19.9732 17.9029 20.1663 17.4167 20.1663H4.58333C4.0971 20.1663 3.63079 19.9732 3.28697 19.6294C2.94315 19.2856 2.75 18.8192 2.75 18.333V17.4163C2.75 16.2008 3.23289 15.035 4.09243 14.1754C4.95197 13.3159 6.11776 12.833 7.33333 12.833H14.6667ZM18.3333 7.33301C18.5764 7.33301 18.8096 7.42958 18.9815 7.60149C19.1534 7.7734 19.25 8.00656 19.25 8.24967V9.16634H20.1667C20.4098 9.16634 20.6429 9.26292 20.8148 9.43483C20.9868 9.60674 21.0833 9.83989 21.0833 10.083C21.0833 10.3261 20.9868 10.5593 20.8148 10.7312C20.6429 10.9031 20.4098 10.9997 20.1667 10.9997H19.25V11.9163C19.25 12.1595 19.1534 12.3926 18.9815 12.5645C18.8096 12.7364 18.5764 12.833 18.3333 12.833C18.0902 12.833 17.8571 12.7364 17.6852 12.5645C17.5132 12.3926 17.4167 12.1595 17.4167 11.9163V10.9997H16.5C16.2569 10.9997 16.0237 10.9031 15.8518 10.7312C15.6799 10.5593 15.5833 10.3261 15.5833 10.083C15.5833 9.83989 15.6799 9.60674 15.8518 9.43483C16.0237 9.26292 16.2569 9.16634 16.5 9.16634H17.4167V8.24967C17.4167 8.00656 17.5132 7.7734 17.6852 7.60149C17.8571 7.42958 18.0902 7.33301 18.3333 7.33301ZM11 1.83301C12.2156 1.83301 13.3814 2.31589 14.2409 3.17544C15.1004 4.03498 15.5833 5.20077 15.5833 6.41634C15.5833 7.63192 15.1004 8.79771 14.2409 9.65725C13.3814 10.5168 12.2156 10.9997 11 10.9997C9.78442 10.9997 8.61864 10.5168 7.75909 9.65725C6.89955 8.79771 6.41667 7.63192 6.41667 6.41634C6.41667 5.20077 6.89955 4.03498 7.75909 3.17544C8.61864 2.31589 9.78442 1.83301 11 1.83301Z" fill="#1F4B82"/>
</svg>
