<svg width="50" height="50" viewBox="0 0 50 50" fill="none" xmlns="http://www.w3.org/2000/svg">
<rect width="50" height="50" rx="10" fill="#1F4B82"/>
<path d="M31.1876 32.1311C30.9597 32.3512 30.6545 32.473 30.3377 32.4703C30.0209 32.4675 29.7178 32.3404 29.4938 32.1164C29.2697 31.8924 29.1426 31.5893 29.1399 31.2725C29.1371 30.9556 29.2589 30.6504 29.479 30.4225L33.4581 26.4435H12.2083C11.8879 26.4435 11.5805 26.3162 11.3539 26.0896C11.1273 25.863 11 25.5556 11 25.2352C11 24.9147 11.1273 24.6073 11.3539 24.3807C11.5805 24.1541 11.8879 24.0268 12.2083 24.0268H33.4581L29.479 20.0478C29.2589 19.8199 29.1371 19.5147 29.1399 19.1978C29.1426 18.881 29.2697 18.5779 29.4938 18.3539C29.7178 18.1299 30.0209 18.0028 30.3377 18C30.6545 17.9973 30.9597 18.1191 31.1876 18.3392L37.2293 24.3809C37.4558 24.6075 37.5831 24.9147 37.5831 25.2352C37.5831 25.5556 37.4558 25.8628 37.2293 26.0894L31.1876 32.1311Z" fill="white"/>
</svg>
