<svg width="50" height="50" viewBox="0 0 50 50" fill="none" xmlns="http://www.w3.org/2000/svg">
<circle cx="25" cy="25" r="24.5" fill="white" stroke="#ECEDF1"/>
<path fill-rule="evenodd" clip-rule="evenodd" d="M29.3773 14.1086C30.5352 12.7566 31.3158 10.8736 31.1022 9C29.4335 9.064 27.4147 10.0738 26.2183 11.4242C25.1438 12.6226 24.2059 14.5375 24.4581 16.3743C26.3194 16.5135 28.2194 15.4622 29.3773 14.1086ZM33.5513 26.0002C33.5979 30.8433 37.9518 32.4544 38 32.4752C37.9647 32.5888 37.3046 34.7708 35.7066 37.0268C34.3238 38.9756 32.8897 40.9165 30.63 40.9581C28.4105 40.9981 27.6958 39.6878 25.1567 39.6878C22.6192 39.6878 21.8258 40.9164 19.7251 40.998C17.5442 41.0764 15.8819 38.8895 14.4895 36.9471C11.6404 32.9743 9.46428 25.7203 12.3872 20.8243C13.8391 18.3939 16.4328 16.8525 19.2497 16.8141C21.3906 16.7741 23.4125 18.2048 24.7214 18.2048C26.0304 18.2048 28.4876 16.4848 31.07 16.7376C32.1509 16.7808 35.1863 17.1582 37.1344 19.9118C36.977 20.0062 33.5128 21.9522 33.5513 26.0002Z" fill="black"/>
</svg>
