<svg width="381" height="403" viewBox="0 0 381 403" fill="none" xmlns="http://www.w3.org/2000/svg">
<line x1="0.5" y1="-2.18557e-08" x2="0.500018" y2="403" stroke="#242424"/>
<line x1="54.7856" y1="-2.41563e-08" x2="54.7857" y2="403" stroke="#242424"/>
<line x1="109.072" y1="-2.39671e-08" x2="109.072" y2="403" stroke="#242424"/>
<line x1="163.357" y1="-2.41563e-08" x2="163.357" y2="403" stroke="#242424"/>
<line x1="217.643" y1="-2.41563e-08" x2="217.643" y2="403" stroke="#242424"/>
<line x1="271.928" y1="-2.41563e-08" x2="271.928" y2="403" stroke="#242424"/>
<line x1="326.214" y1="-2.41563e-08" x2="326.214" y2="403" stroke="#242424"/>
<line x1="380.5" y1="-2.41563e-08" x2="380.5" y2="403" stroke="#242424"/>
<line x1="0.5" y1="53" x2="379.5" y2="53" stroke="#242424"/>
<line x1="0.5" y1="127" x2="379.5" y2="127" stroke="#242424"/>
<line x1="0.5" y1="201" x2="379.5" y2="201" stroke="#242424"/>
<line x1="0.5" y1="275" x2="379.5" y2="275" stroke="#242424"/>
<line x1="0.5" y1="349" x2="379.5" y2="349" stroke="#242424"/>
</svg>
