<svg width="24" height="24" viewBox="0 0 24 24" fill="none" xmlns="http://www.w3.org/2000/svg">
<rect width="23.5" height="23.5" rx="11.75" fill="#1F4B82" fill-opacity="0.52"/>
<path d="M7.84688 16.9269L6.75 9.25H16.75L15.6531 16.9269C15.6105 17.2247 15.462 17.4972 15.2346 17.6944C15.0073 17.8915 14.7165 18 14.4156 18H9.08438C8.78348 18 8.49268 17.8915 8.26536 17.6944C8.03804 17.4972 7.88945 17.2247 7.84688 16.9269ZM17.375 6.75H14.25V6.125C14.25 5.95924 14.1842 5.80027 14.0669 5.68306C13.9497 5.56585 13.7908 5.5 13.625 5.5H9.875C9.70924 5.5 9.55027 5.56585 9.43306 5.68306C9.31585 5.80027 9.25 5.95924 9.25 6.125V6.75H6.125C5.95924 6.75 5.80027 6.81585 5.68306 6.93306C5.56585 7.05027 5.5 7.20924 5.5 7.375C5.5 7.54076 5.56585 7.69973 5.68306 7.81694C5.80027 7.93415 5.95924 8 6.125 8H17.375C17.5408 8 17.6997 7.93415 17.8169 7.81694C17.9342 7.69973 18 7.54076 18 7.375C18 7.20924 17.9342 7.05027 17.8169 6.93306C17.6997 6.81585 17.5408 6.75 17.375 6.75Z" fill="white"/>
</svg>
