<svg width="207" height="118" viewBox="0 0 207 118" fill="none" xmlns="http://www.w3.org/2000/svg">
<path d="M148.018 12.9604C139.834 11.6348 131.432 12.1314 123.466 14.4118C115.499 16.6921 108.183 20.6945 102.086 26.1076C95.9901 31.5206 91.278 38.1982 88.317 45.6207C85.356 53.0431 84.2259 61.0102 85.0146 68.9018C85.8034 76.7934 88.601 84.9682 92.9759 91.6913C97.3508 98.4144 103.185 103.505 110.238 107.664C117.291 111.823 124.89 113.982 133.116 114.444C141.523 114.916 149.704 115.073 157.884 113.477L157.884 94.116C153.006 95.9037 140.666 96.4745 135.473 96.0143C130.28 95.5541 125.274 93.9555 120.844 91.343C116.414 88.7304 112.68 85.1744 109.932 80.9516C107.184 76.7288 105.497 71.9532 105.001 66.9964C104.506 62.0397 105.216 57.0356 107.076 52.3735C108.935 47.7115 111.895 43.5173 115.724 40.1173C119.553 36.7174 124.149 34.2035 129.152 32.7712C134.156 31.3389 139.433 31.027 144.574 31.8596L148.018 12.9604Z" fill="#98ACC6"/>
<path d="M38.1173 76.4003H65.0597L76.6064 98.1049H26.8667L38.1173 76.4003Z" fill="#98ACC6"/>
<path d="M62.9901 0L0 113.982H31.6314L62.9901 57.8091L95.1668 114.255C94.8586 113.709 128.98 113.709 126.798 113.709C118.275 113.709 84.2595 38.903 62.9901 0Z" fill="#1F4B82"/>
<path d="M112.247 74.183C112.043 74.183 111.876 74.1178 111.747 73.9876C111.617 73.8573 111.552 73.6898 111.552 73.4851V55.3412C111.552 55.1365 111.617 54.969 111.747 54.8387C111.876 54.7084 112.043 54.6433 112.247 54.6433H120.039C121.579 54.6433 122.915 54.8852 124.046 55.3691C125.197 55.8343 126.087 56.5414 126.718 57.4905C127.367 58.4396 127.692 59.6399 127.692 61.0914C127.692 62.5243 127.367 63.706 126.718 64.6365C126.087 65.5669 125.197 66.2555 124.046 66.7021C122.915 67.1487 121.579 67.372 120.039 67.372H116.728V73.4851C116.728 73.6898 116.654 73.8573 116.505 73.9876C116.375 74.1178 116.208 74.183 116.004 74.183H112.247ZM116.644 63.5199H119.9C120.698 63.5199 121.329 63.3152 121.792 62.9058C122.275 62.4964 122.516 61.873 122.516 61.0356C122.516 60.3284 122.312 59.7329 121.904 59.2491C121.496 58.7653 120.828 58.5233 119.9 58.5233H116.644V63.5199Z" fill="#719B4D"/>
<path d="M136.841 74.4621C135.172 74.4621 133.706 74.1923 132.444 73.6526C131.201 73.0943 130.237 72.2476 129.55 71.1125C128.864 69.9587 128.521 68.4979 128.521 66.73V55.3412C128.521 55.1365 128.586 54.969 128.715 54.8387C128.845 54.7084 129.012 54.6433 129.216 54.6433H132.806C133.01 54.6433 133.177 54.7084 133.307 54.8387C133.437 54.969 133.502 55.1365 133.502 55.3412V66.7021C133.502 67.9117 133.789 68.8235 134.365 69.4376C134.958 70.0331 135.784 70.3309 136.841 70.3309C137.88 70.3309 138.687 70.0331 139.262 69.4376C139.856 68.8235 140.153 67.9117 140.153 66.7021V55.3412C140.153 55.1365 140.218 54.969 140.347 54.8387C140.496 54.7084 140.663 54.6433 140.848 54.6433H144.466C144.652 54.6433 144.809 54.7084 144.939 54.8387C145.088 54.969 145.162 55.1365 145.162 55.3412V66.73C145.162 68.4979 144.819 69.9587 144.132 71.1125C143.446 72.2476 142.481 73.0943 141.238 73.6526C139.995 74.1923 138.529 74.4621 136.841 74.4621Z" fill="#719B4D"/>
<path d="M147.878 74.183C147.674 74.183 147.507 74.1178 147.377 73.9876C147.247 73.8573 147.182 73.6898 147.182 73.4851V55.3412C147.182 55.1365 147.247 54.969 147.377 54.8387C147.507 54.7084 147.674 54.6433 147.878 54.6433H150.828C151.143 54.6433 151.366 54.7177 151.496 54.8666C151.644 54.9969 151.737 55.0992 151.774 55.1737L158.564 65.9205V55.3412C158.564 55.1365 158.629 54.969 158.759 54.8387C158.889 54.7084 159.055 54.6433 159.26 54.6433H162.599C162.803 54.6433 162.97 54.7084 163.1 54.8387C163.23 54.969 163.295 55.1365 163.295 55.3412V73.4851C163.295 73.6712 163.23 73.8387 163.1 73.9876C162.97 74.1178 162.803 74.183 162.599 74.183H159.621C159.324 74.183 159.102 74.1085 158.953 73.9597C158.824 73.8108 158.74 73.7084 158.703 73.6526L151.913 63.3245V73.4851C151.913 73.6898 151.848 73.8573 151.718 73.9876C151.588 74.1178 151.421 74.183 151.217 74.183H147.878Z" fill="#719B4D"/>
<path d="M166.21 74.183C166.006 74.183 165.839 74.1178 165.709 73.9876C165.579 73.8573 165.514 73.6898 165.514 73.4851V55.3412C165.514 55.1365 165.579 54.969 165.709 54.8387C165.839 54.7084 166.006 54.6433 166.21 54.6433H173.445C175.263 54.6433 176.812 54.9411 178.092 55.5366C179.372 56.1134 180.355 56.9695 181.042 58.1046C181.728 59.2212 182.099 60.6076 182.155 62.2638C182.173 63.0826 182.183 63.799 182.183 64.4131C182.183 65.0273 182.173 65.7344 182.155 66.5346C182.081 68.2653 181.71 69.6982 181.042 70.8333C180.393 71.9685 179.437 72.8152 178.176 73.3735C176.933 73.9131 175.402 74.183 173.584 74.183H166.21ZM170.495 70.1634H173.445C174.243 70.1634 174.901 70.0424 175.421 69.8005C175.959 69.54 176.357 69.1399 176.617 68.6002C176.895 68.0606 177.044 67.3534 177.062 66.4788C177.1 65.9391 177.118 65.4553 177.118 65.0273C177.137 64.5992 177.137 64.1712 177.118 63.7432C177.118 63.3152 177.1 62.8407 177.062 62.3196C177.025 61.0542 176.691 60.133 176.061 59.5561C175.448 58.9606 174.53 58.6629 173.306 58.6629H170.495V70.1634Z" fill="#719B4D"/>
<path d="M184.46 74.183C184.256 74.183 184.089 74.1178 183.959 73.9876C183.829 73.8573 183.764 73.6898 183.764 73.4851V55.3412C183.764 55.1365 183.829 54.969 183.959 54.8387C184.089 54.7084 184.256 54.6433 184.46 54.6433H188.189C188.393 54.6433 188.56 54.7084 188.689 54.8387C188.819 54.969 188.884 55.1365 188.884 55.3412V73.4851C188.884 73.6898 188.819 73.8573 188.689 73.9876C188.56 74.1178 188.393 74.183 188.189 74.183H184.46Z" fill="#719B4D"/>
<path d="M196.098 74.183C195.894 74.183 195.727 74.1178 195.597 73.9876C195.467 73.8573 195.402 73.6898 195.402 73.4851V59.0258H190.449C190.245 59.0258 190.078 58.9606 189.948 58.8304C189.818 58.6815 189.753 58.514 189.753 58.3279V55.3412C189.753 55.1365 189.818 54.969 189.948 54.8387C190.078 54.7084 190.245 54.6433 190.449 54.6433H205.42C205.624 54.6433 205.791 54.7084 205.921 54.8387C206.051 54.969 206.116 55.1365 206.116 55.3412V58.3279C206.116 58.514 206.051 58.6815 205.921 58.8304C205.791 58.9606 205.624 59.0258 205.42 59.0258H200.467V73.4851C200.467 73.6898 200.402 73.8573 200.272 73.9876C200.142 74.1178 199.975 74.183 199.771 74.183H196.098Z" fill="#719B4D"/>
</svg>
