<svg width="24" height="24" viewBox="0 0 24 24" fill="none" xmlns="http://www.w3.org/2000/svg">
<path d="M12 1C9.82441 1 7.69767 1.64514 5.88873 2.85383C4.07979 4.06253 2.66989 5.78049 1.83733 7.79048C1.00477 9.80047 0.786929 12.0122 1.21137 14.146C1.6358 16.2798 2.68345 18.2398 4.22183 19.7782C5.76021 21.3166 7.72022 22.3642 9.85401 22.7886C11.9878 23.2131 14.1995 22.9952 16.2095 22.1627C18.2195 21.3301 19.9375 19.9202 21.1462 18.1113C22.3549 16.3023 23 14.1756 23 12C22.9966 9.08367 21.8365 6.28778 19.7744 4.22563C17.7122 2.16347 14.9163 1.00344 12 1ZM12 21C10.22 21 8.47992 20.4722 6.99987 19.4832C5.51983 18.4943 4.36628 17.0887 3.68509 15.4442C3.0039 13.7996 2.82567 11.99 3.17294 10.2442C3.5202 8.49836 4.37737 6.89471 5.63604 5.63604C6.89472 4.37737 8.49836 3.5202 10.2442 3.17293C11.99 2.82567 13.7996 3.0039 15.4442 3.68508C17.0887 4.36627 18.4943 5.51983 19.4832 6.99987C20.4722 8.47991 21 10.22 21 12C20.9971 14.3861 20.0479 16.6735 18.3608 18.3607C16.6736 20.0479 14.3861 20.9971 12 21ZM13 16.5V18.5H11V16.5H13ZM16 9.5C16.0011 10.0997 15.8668 10.692 15.607 11.2325C15.3473 11.7731 14.9689 12.2481 14.5 12.622C13.7426 13.2089 13.2304 14.0565 13.063 15H11.031C11.1194 14.229 11.3613 13.4836 11.7424 12.8076C12.1235 12.1316 12.6361 11.5387 13.25 11.064C13.4964 10.8668 13.6926 10.6142 13.8226 10.3267C13.9526 10.0392 14.0128 9.72499 13.9981 9.4098C13.9835 9.0946 13.8945 8.78734 13.7384 8.51312C13.5823 8.2389 13.3636 8.0055 13.1 7.832C12.8063 7.64 12.4683 7.52635 12.1182 7.50184C11.7681 7.47734 11.4176 7.5428 11.1 7.692C10.7612 7.85439 10.4769 8.11172 10.2816 8.43269C10.0863 8.75367 9.98848 9.12446 10 9.5C10 9.76522 9.89465 10.0196 9.70711 10.2071C9.51958 10.3946 9.26522 10.5 9 10.5C8.73479 10.5 8.48043 10.3946 8.2929 10.2071C8.10536 10.0196 8 9.76522 8 9.5C7.98513 8.73144 8.19719 7.97555 8.60966 7.32687C9.02213 6.67819 9.6167 6.16553 10.319 5.853C10.9416 5.57478 11.6241 5.4578 12.3038 5.51285C12.9835 5.5679 13.6383 5.79321 14.208 6.168C14.7585 6.53239 15.2102 7.02736 15.5228 7.60874C15.8355 8.19013 15.9994 8.83987 16 9.5Z" fill="#1F4B82"/>
</svg>
