<svg width="24" height="24" viewBox="0 0 24 24" fill="none" xmlns="http://www.w3.org/2000/svg">
<path d="M11.0748 3.25579C11.4141 2.42841 12.5859 2.42841 12.9252 3.25579L14.6493 7.45951C14.793 7.80975 15.1221 8.04885 15.4995 8.07723L20.0303 8.41794C20.922 8.485 21.2841 9.59938 20.6021 10.1778L17.1369 13.1166C16.8482 13.3614 16.7225 13.7483 16.8122 14.1161L17.8882 18.5304C18.1 19.3992 17.152 20.0879 16.3912 19.618L12.5255 17.2305C12.2034 17.0316 11.7966 17.0316 11.4745 17.2305L7.60877 19.618C6.84792 20.0879 5.89997 19.3992 6.11176 18.5304L7.18781 14.1161C7.27746 13.7483 7.15176 13.3614 6.86305 13.1166L3.39786 10.1778C2.71584 9.59938 3.07792 8.485 3.96967 8.41794L8.50042 8.07723C8.8779 8.04885 9.207 7.80975 9.35064 7.45951L11.0748 3.25579Z" stroke="#1F4B82" stroke-width="2"/>
</svg>
