<svg width="24" height="24" viewBox="0 0 24 24" fill="none" xmlns="http://www.w3.org/2000/svg">
<path d="M3.81372 11.1252V20.1921C3.81372 20.7209 4.2424 21.1495 4.7712 21.1495H9.5586V11.1252C9.5586 10.5964 9.12992 10.1677 8.60112 10.1677H4.7712C4.2424 10.1677 3.81372 10.5964 3.81372 11.1252Z" stroke="#1F4B82" stroke-width="1.7" stroke-linecap="round"/>
<path d="M20.0909 12.832H16.2609C15.7321 12.832 15.3035 13.2606 15.3035 13.7894V21.1529H20.0909C20.6197 21.1529 21.0483 20.7242 21.0483 20.1954V13.7894C21.0483 13.2606 20.6197 12.832 20.0909 12.832Z" stroke="#1F4B82" stroke-width="1.7" stroke-linecap="round"/>
<path d="M9.55859 3.8044V10.1681V21.1499H15.3035V3.8044C15.3035 3.27559 14.8748 2.84692 14.346 2.84692H10.5161C9.98727 2.84692 9.55859 3.27559 9.55859 3.8044Z" stroke="#1F4B82" stroke-width="1.7" stroke-linecap="round"/>
</svg>
