<svg width="24" height="24" viewBox="0 0 24 24" fill="none" xmlns="http://www.w3.org/2000/svg">
<path d="M18.75 9H18V6.138C18 2.69625 15.51 0 11.9722 0C8.42025 0 6 2.75325 6 6.138V9H5.25C3.5955 9 2.25 10.3455 2.25 12V21C2.25 22.6545 3.5955 24 5.25 24H18.75C20.4045 24 21.75 22.6545 21.75 21V12C21.75 10.3455 20.4045 9 18.75 9ZM7.5 6.138C7.5 3.58125 9.2475 1.5 11.9722 1.5C14.6693 1.5 16.5 3.537 16.5 6.138V9H7.5V6.138ZM20.25 21C20.25 21.8265 19.5765 22.5 18.75 22.5H5.25C4.42275 22.5 3.75 21.8265 3.75 21V12C3.75 11.1735 4.42275 10.5 5.25 10.5H18.75C19.5765 10.5 20.25 11.1735 20.25 12V21ZM12 13.5C11.172 13.5 10.5 14.1713 10.5 15C10.5 15.5535 10.8038 16.032 11.25 16.2922V18.75C11.25 19.164 11.586 19.5 12 19.5C12.414 19.5 12.75 19.164 12.75 18.75V16.2922C13.1962 16.0327 13.5 15.5535 13.5 15C13.5 14.1713 12.8287 13.5 12 13.5Z" fill="#242424"/>
</svg>
