<svg width="380" height="343" viewBox="0 0 380 343" fill="none" xmlns="http://www.w3.org/2000/svg">
<g clip-path="url(#clip0_488_533)">
<path fill-rule="evenodd" clip-rule="evenodd" d="M337.364 230.083H199.994C197.562 230.083 195.548 228.072 195.548 225.644V25.8388C195.548 23.4105 197.562 21.3995 199.994 21.3995H337.364C339.834 21.3995 341.848 23.4105 341.848 25.8388V225.644C341.848 228.072 339.834 230.083 337.364 230.083ZM199.994 21.5892C197.676 21.5892 195.738 23.4864 195.738 25.8388V225.644C195.738 227.996 197.676 229.893 199.994 229.893H337.364C339.72 229.893 341.658 227.996 341.658 225.644V25.8388C341.658 23.4864 339.72 21.5892 337.364 21.5892H199.994Z" fill="#E0E0E0"/>
<path fill-rule="evenodd" clip-rule="evenodd" d="M178.98 230.083H41.6101C39.1401 230.083 37.1641 228.072 37.1641 225.644V25.8388C37.1641 23.4105 39.1401 21.3995 41.6101 21.3995H178.98C181.45 21.3995 183.426 23.4105 183.426 25.8388V225.644C183.426 228.072 181.45 230.083 178.98 230.083ZM41.6101 21.5892C39.2541 21.5892 37.3541 23.4864 37.3541 25.8388V225.644C37.3541 227.996 39.2541 229.893 41.6101 229.893H178.98C181.336 229.893 183.236 227.996 183.236 225.644V25.8388C183.236 23.4864 181.336 21.5892 178.98 21.5892H41.6101Z" fill="#E0E0E0"/>
<path d="M380 247.233H0V247.043H380V247.233Z" fill="#E0E0E0"/>
<path d="M39.2539 257.857H51.4899V258.047H39.2539V257.857Z" fill="#E0E0E0"/>
<path d="M129.466 255.808H170.164V255.998H129.466V255.808Z" fill="#E0E0E0"/>
<path d="M52.25 264.914H79.8V265.104H52.25V264.914Z" fill="#E0E0E0"/>
<path d="M287.546 255.694H320.378V255.884H287.546V255.694Z" fill="#E0E0E0"/>
<path d="M327.142 255.694H331.968V255.884H327.142V255.694Z" fill="#E0E0E0"/>
<path d="M240.312 260.437H281.276V260.627H240.312V260.437Z" fill="#E0E0E0"/>
<path d="M53.8079 284.91L109.478 264.838L80.6739 185.273L25.0039 205.345L53.8079 284.91Z" fill="#EBEBEB"/>
<path fill-rule="evenodd" clip-rule="evenodd" d="M43.8519 211.491C44.4219 213.047 43.4339 214.451 40.9639 215.324L36.0239 217.107L32.7559 207.963L37.4299 206.293C39.8239 205.421 41.3819 205.99 41.8759 207.394C42.1799 208.266 41.9899 209.139 41.3439 209.822C42.5219 209.822 43.4339 210.353 43.8519 211.491ZM41.1159 212.136C40.8879 211.491 40.3179 211.378 39.4439 211.681L37.2399 212.478L37.9239 214.337L40.0899 213.54C41.0019 213.237 41.3439 212.743 41.1159 212.136ZM35.9859 208.911L36.6319 210.695L38.3799 210.05C39.2539 209.746 39.5959 209.253 39.3679 208.684C39.1779 208.114 38.6079 207.963 37.7719 208.266L35.9859 208.911Z" fill="#E0E0E0"/>
<path d="M42.7878 204.358L45.4098 203.448L48.6778 212.592L46.0938 213.502L42.7878 204.358Z" fill="#E0E0E0"/>
<path d="M47.2339 202.765L49.8179 201.854L52.3639 208.949L56.7339 207.356L57.4939 209.405L50.5399 211.909L47.2339 202.765Z" fill="#E0E0E0"/>
<path d="M55.2139 199.919L57.7979 198.97L60.3439 206.066L64.7519 204.51L65.4739 206.559L58.5199 209.063L55.2139 199.919Z" fill="#E0E0E0"/>
<path d="M62.1679 218.776L84.1319 210.846L83.2579 208.456L61.2939 216.386L62.1679 218.776Z" fill="#E0E0E0"/>
<path d="M51.186 262.79L96.406 246.474L85.88 217.41L40.698 233.726L51.186 262.79Z" fill="#F5F5F5"/>
<path d="M41.002 234.56L86.184 218.245L85.576 216.576L40.356 232.853L41.002 234.56Z" fill="#E0E0E0"/>
<path d="M84.018 223.405C79.686 224.974 75.354 226.542 71.022 228.11C70.642 228.224 70.794 228.793 71.136 228.679C75.4933 227.111 79.838 225.543 84.17 223.974C84.512 223.861 84.36 223.291 84.018 223.405Z" fill="#E0E0E0"/>
<path d="M86.6399 230.728C82.308 232.296 77.976 233.865 73.644 235.433C73.302 235.547 73.4539 236.078 73.7959 235.964C78.1279 234.396 82.4599 232.828 86.7919 231.259C87.1339 231.146 86.9819 230.614 86.6399 230.728Z" fill="#E0E0E0"/>
<path d="M84.6639 225.302C83.2706 225.808 81.8899 226.302 80.5219 226.782C80.1799 226.934 80.2939 227.465 80.6739 227.351C82.0419 226.845 83.4226 226.339 84.8159 225.834C85.1579 225.72 85.0439 225.189 84.6639 225.302Z" fill="#E0E0E0"/>
<path d="M85.956 228.793C79.6987 231.044 73.4413 233.296 67.184 235.547C66.842 235.699 66.994 236.23 67.336 236.116C73.5933 233.865 79.8507 231.601 86.108 229.324C86.45 229.21 86.298 228.679 85.956 228.793Z" fill="#E0E0E0"/>
<path d="M53.9219 233.915C51.5913 234.75 49.2733 235.585 46.9679 236.42C46.6259 236.533 46.7779 237.102 47.1199 236.951C49.4253 236.116 51.7433 235.281 54.0739 234.447C54.4159 234.333 54.2639 233.764 53.9219 233.915Z" fill="#E0E0E0"/>
<path d="M55.9739 239.607C53.6686 240.441 51.3506 241.276 49.0199 242.111C48.6779 242.225 48.8299 242.794 49.1719 242.642C51.5026 241.807 53.8206 240.973 56.1259 240.138C56.4679 240.024 56.3159 239.493 55.9739 239.607Z" fill="#E0E0E0"/>
<path d="M88.4258 235.623C85.4618 236.685 82.4978 237.748 79.5338 238.81C79.1918 238.924 79.3438 239.493 79.6858 239.341C82.6498 238.279 85.6138 237.216 88.5778 236.154C88.9198 236.04 88.7678 235.471 88.4258 235.623Z" fill="#E0E0E0"/>
<path d="M58.1019 245.45C55.7712 246.285 53.4532 247.119 51.1479 247.954C50.8059 248.068 50.9579 248.637 51.2999 248.485C53.6052 247.651 55.9232 246.816 58.2539 245.981C58.5959 245.867 58.4439 245.336 58.1019 245.45Z" fill="#E0E0E0"/>
<path d="M90.174 240.479C83.9167 242.731 77.6593 244.995 71.402 247.271C71.06 247.385 71.212 247.916 71.554 247.802C77.8113 245.551 84.0687 243.3 90.326 241.048C90.668 240.897 90.516 240.366 90.174 240.479Z" fill="#E0E0E0"/>
<path d="M60.1918 251.293C57.8865 252.128 55.5811 252.962 53.2758 253.797C52.9338 253.911 53.0858 254.48 53.4278 254.366C55.7331 253.532 58.0385 252.697 60.3438 251.862C60.6858 251.71 60.5718 251.179 60.1918 251.293Z" fill="#E0E0E0"/>
<path d="M55.8218 267.039L66.6898 263.131L65.7398 260.513L54.8718 264.421L55.8218 267.039Z" fill="#E0E0E0"/>
<path d="M100.32 261.955C86.1078 267.064 71.9085 272.187 57.7218 277.322C57.3798 277.435 57.5318 278.005 57.8738 277.853C72.0605 272.743 86.2598 267.621 100.472 262.486C100.814 262.372 100.662 261.841 100.32 261.955Z" fill="#E0E0E0"/>
<path d="M99.636 260.02C85.424 265.155 71.2247 270.277 57.038 275.386C56.696 275.5 56.81 276.069 57.19 275.956C71.3767 270.821 85.576 265.698 99.788 260.589C100.13 260.437 99.978 259.906 99.636 260.02Z" fill="#E0E0E0"/>
<path d="M41.4579 76.9094C44.4979 85.3706 53.3899 89.8857 61.3319 87.0401L64.1439 86.0156L53.1619 55.4719L50.3119 56.4964C42.4079 59.3421 38.4179 68.4862 41.4579 76.9094Z" fill="#E0E0E0"/>
<path d="M73.3398 77.6682C69.5398 85.7879 59.8498 89.2407 51.7178 85.4465C43.5858 81.6143 40.1278 71.9389 43.9278 63.8192C47.7658 55.6996 57.4558 52.2468 65.5878 56.079C73.7198 59.8732 77.1778 69.5486 73.3398 77.6682Z" fill="#EBEBEB"/>
<path d="M46.3979 75.1261C48.8299 81.8798 56.2779 85.4085 63.0419 82.9802C69.8059 80.5518 73.3399 73.1151 70.9079 66.3614C68.4759 59.6076 61.0279 56.079 54.2639 58.5073C47.4619 60.9356 43.9659 68.3723 46.3979 75.1261Z" fill="#F0F0F0"/>
<path fill-rule="evenodd" clip-rule="evenodd" d="M62.2819 74.8985C61.8006 75.6067 61.1419 76.1253 60.3059 76.4541L60.3819 76.9094C60.4072 77.1118 60.3566 77.3141 60.2299 77.5165C60.1032 77.6936 59.9386 77.8074 59.7359 77.858C59.5079 77.8833 59.3052 77.8327 59.1279 77.7062C58.9506 77.5797 58.8492 77.4027 58.8239 77.175L58.7479 76.8335C57.9372 76.8841 57.2026 76.7577 56.5439 76.4541C55.8852 76.1759 55.3786 75.7964 55.0239 75.3158C54.8719 75.0629 54.7706 74.8479 54.7199 74.6708C54.6946 74.4685 54.7452 74.2661 54.8719 74.0637C54.9986 73.8614 55.1886 73.7475 55.4419 73.7223C55.6192 73.6717 55.7966 73.6843 55.9739 73.7602C56.1259 73.8614 56.2526 73.9878 56.3539 74.1396C56.5566 74.4937 56.8479 74.7593 57.2279 74.9364C57.6079 75.1135 58.0259 75.2147 58.4819 75.24L57.8739 71.5975C56.8859 71.471 56.0752 71.218 55.4419 70.8386C54.8086 70.4845 54.4286 69.9154 54.3019 69.1312C54.1499 68.3471 54.2892 67.6388 54.7199 67.0064C55.1506 66.3741 55.8346 65.9061 56.7719 65.6026L56.6959 65.2231C56.6452 65.0208 56.6832 64.8184 56.8099 64.6161C56.9366 64.439 57.1012 64.3252 57.3039 64.2746C57.5066 64.2493 57.7092 64.2999 57.9119 64.4263C58.0892 64.5528 58.2032 64.7299 58.2539 64.9575L58.3299 65.299C59.2419 65.1978 60.0019 65.3117 60.6099 65.6405C61.1926 65.9693 61.5472 66.4626 61.6739 67.1203C61.7246 67.3732 61.6866 67.6009 61.5599 67.8032C61.4332 67.9803 61.2559 68.0941 61.0279 68.1447C60.8252 68.17 60.6352 68.1321 60.4579 68.0309C60.3059 67.9297 60.1919 67.7779 60.1159 67.5756C60.0399 67.3479 59.8626 67.1709 59.5839 67.0444C59.3052 66.8926 58.9632 66.8167 58.5579 66.8167L59.0899 70.0418C61.2686 70.3201 62.4972 71.1928 62.7759 72.6599C62.9279 73.444 62.7632 74.1902 62.2819 74.8985ZM56.3539 69.4348C56.6072 69.6118 56.9999 69.7509 57.5319 69.8521L57.0379 67.1203C56.5819 67.2973 56.2526 67.525 56.0499 67.8032C55.8726 68.0815 55.8092 68.385 55.8599 68.7138C55.9106 69.0174 56.0752 69.2577 56.3539 69.4348ZM60.9519 74.1017C61.1799 73.7475 61.2559 73.3934 61.1799 73.0393C61.1292 72.7357 60.9646 72.4828 60.6859 72.2804C60.4326 72.0781 60.0146 71.9137 59.4319 71.7872L60.0019 74.8985C60.4326 74.6961 60.7492 74.4305 60.9519 74.1017Z" fill="#E0E0E0"/>
<path d="M47.0439 64.4263C50.5399 58.014 58.5959 55.6616 64.9799 59.1523C71.4019 62.643 73.7579 70.6868 70.2619 77.0991C72.7319 70.8765 70.1859 63.8192 64.3339 60.5941C57.9119 57.1034 49.8559 59.4558 46.3599 65.8681C46.5372 65.3622 46.7652 64.8816 47.0439 64.4263Z" fill="#E0E0E0"/>
<path d="M277.59 46.4037C281.428 57.1034 292.714 62.8707 302.784 59.2661L306.394 57.9761L292.41 19.1609L288.838 20.451C278.768 24.0935 273.714 35.7039 277.59 46.4037Z" fill="#E0E0E0"/>
<path d="M318.06 47.3522C313.196 57.6726 300.922 62.0739 290.586 57.2172C280.288 52.3606 275.88 40.0672 280.706 29.7848C285.57 19.5024 297.882 15.0631 308.18 19.9198C318.516 24.7764 322.924 37.0698 318.06 47.3522Z" fill="#EBEBEB"/>
<path d="M283.86 44.165C286.938 52.74 296.4 57.1793 304.988 54.1059C313.576 51.0326 318.022 41.5849 314.944 33.0099C311.866 24.397 302.404 19.9577 293.816 23.0311C285.228 26.1423 280.744 35.59 283.86 44.165Z" fill="#F0F0F0"/>
<path fill-rule="evenodd" clip-rule="evenodd" d="M304 43.8615C303.417 44.7468 302.581 45.4045 301.492 45.8345L301.568 46.3657C301.619 46.6439 301.568 46.9095 301.416 47.1625C301.264 47.3901 301.049 47.5293 300.77 47.5798C300.491 47.6304 300.238 47.5798 300.01 47.4281C299.807 47.251 299.668 47.0234 299.592 46.7451L299.516 46.2898C298.477 46.3404 297.54 46.1886 296.704 45.8345C295.868 45.4804 295.235 44.9871 294.804 44.3547C294.601 44.0512 294.475 43.7856 294.424 43.5579C294.373 43.2797 294.437 43.0141 294.614 42.7612C294.766 42.5335 294.994 42.3944 295.298 42.3438C295.551 42.2932 295.779 42.3185 295.982 42.4197C296.21 42.5209 296.387 42.6853 296.514 42.9129C296.742 43.3429 297.109 43.6718 297.616 43.8994C298.097 44.1271 298.617 44.2409 299.174 44.2409L298.414 39.6499C297.147 39.4981 296.121 39.1819 295.336 38.7013C294.525 38.246 294.031 37.5251 293.854 36.5386C293.677 35.5268 293.867 34.6162 294.424 33.8067C294.981 32.9973 295.843 32.4029 297.008 32.0234L296.932 31.5681C296.881 31.3152 296.932 31.0622 297.084 30.8093C297.236 30.5563 297.439 30.4046 297.692 30.354C297.971 30.3034 298.224 30.3666 298.452 30.5437C298.705 30.7207 298.857 30.9357 298.908 31.1887L298.984 31.644C300.149 31.5428 301.112 31.6946 301.872 32.0993C302.632 32.5293 303.088 33.1617 303.24 33.9964C303.291 34.3 303.24 34.5782 303.088 34.8312C302.911 35.0588 302.683 35.198 302.404 35.2485C302.151 35.2991 301.923 35.2612 301.72 35.1347C301.492 35.0082 301.34 34.8185 301.264 34.5656C301.188 34.2873 300.973 34.0597 300.618 33.8826C300.263 33.7055 299.82 33.6044 299.288 33.5791L299.972 37.6769C302.733 38.031 304.279 39.1313 304.608 40.9779C304.811 41.9897 304.608 42.9509 304 43.8615ZM296.476 36.8801C296.805 37.1077 297.312 37.2848 297.996 37.4113L297.388 33.9585C296.805 34.1862 296.387 34.477 296.134 34.8312C295.881 35.1853 295.792 35.5774 295.868 36.0074C295.944 36.3615 296.147 36.6524 296.476 36.8801ZM302.328 42.837C302.607 42.3817 302.708 41.9264 302.632 41.4711C302.556 41.0917 302.353 40.7755 302.024 40.5225C301.669 40.2443 301.125 40.0419 300.39 39.9155L301.112 43.8615C301.644 43.6085 302.049 43.2671 302.328 42.837Z" fill="#E0E0E0"/>
<path d="M284.658 30.5437C289.104 22.3861 299.326 19.3886 307.458 23.8658C315.59 28.3051 318.592 38.5116 314.146 46.6313C317.3 38.7393 314.07 29.7469 306.584 25.6871C298.452 21.2478 288.23 24.2073 283.784 32.3649C284.037 31.7326 284.329 31.1255 284.658 30.5437Z" fill="#E0E0E0"/>
<path d="M162.374 300.125C166.212 310.825 177.536 316.592 187.606 312.949L191.178 311.659L177.232 272.882L173.622 274.172C163.552 277.777 158.536 289.387 162.374 300.125Z" fill="#E0E0E0"/>
<path d="M202.882 301.073C198.018 311.356 185.706 315.757 175.408 310.939C165.072 306.082 160.664 293.789 165.528 283.506C170.392 273.186 182.704 268.784 193.002 273.641C203.3 278.498 207.746 290.753 202.882 301.073Z" fill="#EBEBEB"/>
<path d="M168.644 297.848C171.722 306.423 181.184 310.901 189.772 307.789C198.36 304.716 202.844 295.268 199.766 286.693C196.65 278.118 187.188 273.679 178.6 276.752C170.012 279.826 165.566 289.273 168.644 297.848Z" fill="#F0F0F0"/>
<path fill-rule="evenodd" clip-rule="evenodd" d="M188.822 297.545C188.214 298.455 187.365 299.126 186.276 299.556L186.39 300.087C186.44 300.365 186.377 300.618 186.2 300.846C186.048 301.099 185.832 301.25 185.554 301.301C185.3 301.352 185.06 301.288 184.832 301.111C184.604 300.96 184.464 300.745 184.414 300.466L184.338 299.973C183.274 300.049 182.336 299.897 181.526 299.518C180.69 299.164 180.044 298.67 179.588 298.038C179.385 297.76 179.271 297.507 179.246 297.279C179.195 297.001 179.246 296.735 179.398 296.482C179.575 296.229 179.816 296.078 180.12 296.027C180.348 295.977 180.576 296.014 180.804 296.141C181.006 296.242 181.171 296.394 181.298 296.596C181.551 297.052 181.918 297.393 182.4 297.621C182.881 297.848 183.413 297.962 183.996 297.962L183.198 293.371C181.931 293.194 180.905 292.878 180.12 292.423C179.334 291.942 178.853 291.208 178.676 290.222C178.473 289.235 178.65 288.337 179.208 287.528C179.765 286.719 180.626 286.124 181.792 285.745L181.716 285.289C181.665 285.011 181.716 284.746 181.868 284.493C182.02 284.265 182.222 284.126 182.476 284.075C182.754 284.025 183.02 284.088 183.274 284.265C183.502 284.417 183.641 284.632 183.692 284.91L183.768 285.327C184.958 285.226 185.921 285.391 186.656 285.821C187.416 286.225 187.872 286.845 188.024 287.68C188.1 288.009 188.049 288.287 187.872 288.514C187.72 288.767 187.504 288.919 187.226 288.97C186.972 289.02 186.732 288.982 186.504 288.856C186.301 288.729 186.162 288.54 186.086 288.287C185.984 287.983 185.756 287.743 185.402 287.566C185.047 287.389 184.616 287.3 184.11 287.3L184.794 291.398C187.53 291.752 189.075 292.853 189.43 294.699C189.632 295.711 189.43 296.659 188.822 297.545ZM181.26 290.601C181.614 290.829 182.134 291.006 182.818 291.133L182.172 287.68C181.589 287.882 181.171 288.16 180.918 288.514C180.664 288.869 180.576 289.261 180.652 289.691C180.728 290.07 180.93 290.374 181.26 290.601ZM187.15 296.52C187.428 296.09 187.517 295.648 187.416 295.192C187.365 294.813 187.162 294.497 186.808 294.244C186.453 293.966 185.908 293.751 185.174 293.599L185.896 297.545C186.453 297.292 186.871 296.95 187.15 296.52Z" fill="#E0E0E0"/>
<path d="M169.442 284.227C173.888 276.107 184.11 273.11 192.28 277.549C200.412 282.026 203.414 292.195 198.93 300.353C202.084 292.461 198.854 283.468 191.406 279.408C183.236 274.931 173.052 277.929 168.568 286.048C168.821 285.441 169.113 284.834 169.442 284.227Z" fill="#E0E0E0"/>
<path d="M316.654 186.867C319.428 194.569 327.56 198.743 334.818 196.125L337.402 195.214L327.332 167.25L324.748 168.199C317.49 170.779 313.88 179.164 316.654 186.867Z" fill="#E0E0E0"/>
<path d="M345.8 187.55C342.304 194.986 333.45 198.136 326.04 194.645C318.592 191.154 315.438 182.314 318.934 174.915C322.43 167.478 331.284 164.291 338.694 167.82C346.142 171.31 349.334 180.151 345.8 187.55Z" fill="#EBEBEB"/>
<path d="M321.176 185.235C323.38 191.42 330.22 194.645 336.376 192.406C342.57 190.206 345.8 183.376 343.558 177.191C341.354 171.045 334.514 167.82 328.358 170.058C322.164 172.259 318.934 179.051 321.176 185.235Z" fill="#F0F0F0"/>
<path fill-rule="evenodd" clip-rule="evenodd" d="M335.692 185.046C335.261 185.678 334.653 186.146 333.868 186.449L333.944 186.867C333.969 187.044 333.931 187.221 333.83 187.398C333.703 187.575 333.539 187.689 333.336 187.739C333.159 187.765 332.981 187.714 332.804 187.588C332.652 187.486 332.563 187.335 332.538 187.132L332.462 186.791C331.702 186.816 331.031 186.702 330.448 186.449C329.84 186.196 329.371 185.842 329.042 185.387C328.915 185.159 328.827 184.97 328.776 184.818C328.751 184.615 328.801 184.426 328.928 184.249C329.029 184.072 329.194 183.97 329.422 183.945C329.599 183.895 329.764 183.907 329.916 183.983C330.068 184.059 330.195 184.173 330.296 184.325C330.473 184.653 330.739 184.894 331.094 185.046C331.423 185.223 331.791 185.311 332.196 185.311L331.664 182.01C330.752 181.884 330.005 181.656 329.422 181.327C328.865 180.998 328.523 180.467 328.396 179.734C328.244 179.025 328.371 178.38 328.776 177.798C329.181 177.217 329.802 176.787 330.638 176.508L330.6 176.205C330.549 176.003 330.575 175.813 330.676 175.636C330.803 175.459 330.955 175.358 331.132 175.332C331.335 175.282 331.525 175.32 331.702 175.446C331.854 175.573 331.955 175.737 332.006 175.939L332.044 176.243C332.905 176.167 333.602 176.281 334.134 176.584C334.691 176.888 335.021 177.331 335.122 177.912C335.173 178.14 335.135 178.342 335.008 178.519C334.907 178.696 334.755 178.81 334.552 178.861C334.349 178.886 334.172 178.848 334.02 178.747C333.868 178.671 333.767 178.532 333.716 178.33C333.64 178.127 333.475 177.963 333.222 177.836C332.969 177.71 332.665 177.647 332.31 177.647L332.804 180.568C334.78 180.821 335.895 181.618 336.148 182.959C336.275 183.692 336.123 184.388 335.692 185.046ZM330.258 179.999C330.511 180.176 330.879 180.315 331.36 180.417L330.904 177.912C330.499 178.064 330.195 178.266 329.992 178.519C329.815 178.772 329.764 179.051 329.84 179.354C329.891 179.632 330.03 179.847 330.258 179.999ZM334.476 184.287C334.679 183.983 334.755 183.667 334.704 183.338C334.653 183.06 334.501 182.82 334.248 182.617C333.995 182.44 333.602 182.301 333.07 182.2L333.602 185.046C333.982 184.843 334.273 184.59 334.476 184.287Z" fill="#E0E0E0"/>
<path d="M321.746 175.446C324.938 169.565 332.31 167.44 338.162 170.627C344.052 173.815 346.18 181.175 342.988 187.018C345.268 181.365 342.912 174.877 337.554 171.955C331.702 168.73 324.33 170.893 321.1 176.736C321.303 176.306 321.518 175.876 321.746 175.446Z" fill="#E0E0E0"/>
<path d="M164.122 22.1963C166.896 29.8987 175.028 34.0344 182.286 31.4543L184.87 30.5057L174.8 2.58008L172.216 3.52864C164.996 6.10873 161.348 14.494 164.122 22.1963Z" fill="#E0E0E0"/>
<path d="M193.306 22.8793C189.772 30.316 180.918 33.4653 173.508 29.9746C166.06 26.4838 162.906 17.6432 166.402 10.2065C169.898 2.80773 178.752 -0.379434 186.162 3.11127C193.61 6.63993 196.802 15.4805 193.306 22.8793Z" fill="#EBEBEB"/>
<path d="M168.644 20.5648C170.848 26.7494 177.688 29.9746 183.882 27.7359C190.038 25.5353 193.268 18.7056 191.026 12.521C188.822 6.37433 182.02 3.14922 175.826 5.38782C169.632 7.58849 166.402 14.3802 168.644 20.5648Z" fill="#F0F0F0"/>
<path fill-rule="evenodd" clip-rule="evenodd" d="M183.16 20.3751C182.729 21.0075 182.121 21.4754 181.336 21.779L181.412 22.1584C181.437 22.3607 181.399 22.5505 181.298 22.7275C181.171 22.9046 181.019 23.0184 180.842 23.069C180.639 23.0943 180.462 23.0437 180.31 22.9172C180.133 22.8161 180.031 22.6516 180.006 22.424L179.93 22.1204C179.17 22.1457 178.499 22.0319 177.916 21.779C177.308 21.526 176.852 21.1719 176.548 20.7166C176.396 20.4889 176.307 20.2992 176.282 20.1474C176.231 19.9451 176.269 19.7554 176.396 19.5783C176.523 19.4012 176.687 19.3001 176.89 19.2748C177.067 19.2242 177.232 19.2368 177.384 19.3127C177.536 19.3886 177.663 19.5024 177.764 19.6542C177.941 19.983 178.207 20.2233 178.562 20.3751C178.891 20.5522 179.271 20.6407 179.702 20.6407L179.132 17.3397C178.22 17.2132 177.473 16.9856 176.89 16.6567C176.333 16.3026 175.991 15.7714 175.864 15.0631C175.712 14.3549 175.839 13.7099 176.244 13.1281C176.649 12.5463 177.27 12.1163 178.106 11.838L178.068 11.5345C178.017 11.3321 178.055 11.1424 178.182 10.9654C178.283 10.7883 178.423 10.6871 178.6 10.6618C178.803 10.6112 178.993 10.6492 179.17 10.7756C179.347 10.9021 179.449 11.0539 179.474 11.231L179.55 11.5724C180.386 11.4966 181.083 11.6104 181.64 11.9139C182.172 12.2175 182.489 12.6601 182.59 13.2419C182.641 13.4696 182.603 13.6719 182.476 13.849C182.375 14.0261 182.223 14.1399 182.02 14.1905C181.817 14.2158 181.653 14.1778 181.526 14.0766C181.374 13.9755 181.26 13.8363 181.184 13.6593C181.133 13.4569 180.981 13.2925 180.728 13.166C180.475 13.0395 180.158 12.9763 179.778 12.9763L180.272 15.8979C182.248 16.1508 183.363 16.9476 183.616 18.2883C183.743 19.0218 183.591 19.7174 183.16 20.3751ZM177.726 15.3287C177.979 15.5058 178.347 15.6449 178.828 15.7461L178.372 13.2419C177.967 13.3937 177.675 13.596 177.498 13.849C177.295 14.1019 177.232 14.3802 177.308 14.6837C177.359 14.962 177.498 15.177 177.726 15.3287ZM181.944 19.6162C182.147 19.2874 182.223 18.9586 182.172 18.6297C182.121 18.3768 181.969 18.1491 181.716 17.9468C181.463 17.7697 181.07 17.6306 180.538 17.5294L181.07 20.3371C181.45 20.1601 181.741 19.9198 181.944 19.6162Z" fill="#E0E0E0"/>
<path d="M169.214 10.7757C172.406 4.89458 179.778 2.73186 185.63 5.95697C191.52 9.14413 193.686 16.505 190.456 22.3481C192.736 16.6947 190.38 10.2065 185.022 7.28495C179.17 4.05984 171.798 6.22256 168.606 12.0657C168.783 11.6104 168.986 11.1804 169.214 10.7757Z" fill="#E0E0E0"/>
<path d="M349.752 333.476C349.752 338.713 278.198 342.962 189.924 342.962C101.612 342.962 30.0581 338.713 30.0581 333.476C30.0581 328.202 101.612 323.953 189.924 323.953C278.198 323.953 349.752 328.202 349.752 333.476Z" fill="#F5F5F5"/>
<path d="M30.666 170.286C39.102 176.584 50.692 175.256 56.62 167.364L58.71 164.557L28.196 141.791L26.068 144.637C20.178 152.529 22.23 164.025 30.666 170.286Z" fill="#407BFF"/>
<path opacity="0.3" d="M30.666 170.286C39.102 176.584 50.692 175.256 56.62 167.364L58.71 164.557L28.196 141.791L26.068 144.637C20.178 152.529 22.23 164.025 30.666 170.286Z" fill="black"/>
<path d="M62.282 150.442C63.802 160.838 56.582 170.476 46.17 171.993C35.796 173.511 26.106 166.302 24.586 155.906C23.104 145.509 30.286 135.872 40.698 134.354C51.11 132.837 60.8 140.046 62.282 150.442Z" fill="#407BFF"/>
<path d="M34.314 165.391C41.078 170.4 50.616 169.034 55.67 162.28C60.724 155.564 59.318 146.003 52.554 140.994C45.828 135.948 36.252 137.352 31.236 144.068C26.182 150.821 27.588 160.345 34.314 165.391Z" fill="#407BFF"/>
<path opacity="0.3" d="M34.314 165.391C41.078 170.4 50.616 169.034 55.67 162.28C60.724 155.564 59.318 146.003 52.554 140.994C45.828 135.948 36.252 137.352 31.236 144.068C26.182 150.821 27.588 160.345 34.314 165.391Z" fill="white"/>
<path fill-rule="evenodd" clip-rule="evenodd" d="M49.7041 154.881C49.7041 155.893 49.3874 156.842 48.7541 157.727L49.0961 158.068C49.2734 158.245 49.3621 158.473 49.3621 158.751C49.3621 159.03 49.2734 159.257 49.0961 159.434C48.9188 159.611 48.7034 159.687 48.4501 159.662C48.1968 159.662 47.9688 159.561 47.7661 159.358L47.4621 159.055C46.7021 159.637 45.9041 159.991 45.0681 160.117C44.2574 160.269 43.5228 160.218 42.8641 159.966C42.5601 159.839 42.3321 159.7 42.1801 159.548C42.0028 159.371 41.9141 159.143 41.9141 158.865C41.9141 158.587 42.0154 158.347 42.2181 158.144C42.3701 157.993 42.5601 157.904 42.7881 157.879C43.0161 157.853 43.2314 157.891 43.4341 157.993C43.8394 158.195 44.2954 158.258 44.8021 158.182C45.2834 158.106 45.7394 157.929 46.1701 157.651L43.2441 154.54C42.1801 155.046 41.2301 155.324 40.3941 155.375C39.5328 155.4 38.7854 155.084 38.1521 154.426C37.4934 153.743 37.1768 152.959 37.2021 152.074C37.2021 151.163 37.5568 150.265 38.2661 149.38L37.9621 149.076C37.7848 148.874 37.6961 148.646 37.6961 148.393C37.6961 148.115 37.7848 147.9 37.9621 147.748C38.1394 147.571 38.3674 147.482 38.6461 147.482C38.8994 147.482 39.1148 147.584 39.2921 147.786L39.5961 148.052C40.4321 147.369 41.2554 147.002 42.0661 146.951C42.8514 146.901 43.5101 147.154 44.0421 147.71C44.2701 147.912 44.3841 148.153 44.3841 148.431C44.3841 148.684 44.2828 148.912 44.0801 149.114C43.9028 149.266 43.7001 149.354 43.4721 149.38C43.2441 149.38 43.0414 149.304 42.8641 149.152C42.6361 148.975 42.3448 148.912 41.9901 148.962C41.6101 148.988 41.2301 149.127 40.8501 149.38L43.4341 152.187C45.7394 151.074 47.5001 151.138 48.7161 152.377C49.3748 153.06 49.7041 153.895 49.7041 154.881ZM40.3561 153.364C40.7108 153.364 41.1921 153.25 41.8001 153.022L39.5581 150.67C39.2034 151.125 39.0261 151.555 39.0261 151.96C39.0008 152.364 39.1274 152.706 39.4061 152.984C39.6594 153.237 39.9761 153.364 40.3561 153.364ZM47.8801 154.957C47.8801 154.477 47.7281 154.084 47.4241 153.781C47.1708 153.528 46.8414 153.389 46.4361 153.364C46.0308 153.338 45.5114 153.452 44.8781 153.705L47.4621 156.361C47.7408 155.906 47.8801 155.438 47.8801 154.957Z" fill="#407BFF"/>
<path d="M28.006 154.502C27.284 145.965 33.592 138.49 42.142 137.769C50.692 137.048 58.178 143.347 58.9 151.884C57.304 144.219 50.236 138.945 42.408 139.59C33.896 140.311 27.55 147.824 28.272 156.361C28.1453 155.729 28.0567 155.109 28.006 154.502Z" fill="#407BFF"/>
<path opacity="0.3" d="M28.006 154.502C27.284 145.965 33.592 138.49 42.142 137.769C50.692 137.048 58.178 143.347 58.9 151.884C57.304 144.219 50.236 138.945 42.408 139.59C33.896 140.311 27.55 147.824 28.272 156.361C28.1453 155.729 28.0567 155.109 28.006 154.502Z" fill="black"/>
<path d="M272.118 227.465C276.146 238.582 287.888 244.577 298.376 240.821L302.1 239.493L287.584 199.122L283.86 200.45C273.372 204.206 268.128 216.31 272.118 227.465Z" fill="#407BFF"/>
<path opacity="0.3" d="M272.118 227.465C276.146 238.582 287.888 244.577 298.376 240.821L302.1 239.493L287.584 199.122L283.86 200.45C273.372 204.206 268.128 216.31 272.118 227.465Z" fill="black"/>
<path d="M314.26 228.452C309.206 239.151 296.4 243.742 285.684 238.696C274.93 233.65 270.332 220.863 275.424 210.163C280.478 199.464 293.246 194.873 304 199.919C314.716 204.965 319.314 217.752 314.26 228.452Z" fill="#407BFF"/>
<path d="M278.654 225.113C281.846 234.029 291.726 238.658 300.656 235.471C309.586 232.246 314.222 222.419 311.03 213.502C307.8 204.586 297.958 199.957 289.028 203.144C280.098 206.369 275.424 216.196 278.654 225.113Z" fill="#407BFF"/>
<path opacity="0.3" d="M278.654 225.113C281.846 234.029 291.726 238.658 300.656 235.471C309.586 232.246 314.222 222.419 311.03 213.502C307.8 204.586 297.958 199.957 289.028 203.144C280.098 206.369 275.424 216.196 278.654 225.113Z" fill="white"/>
<path fill-rule="evenodd" clip-rule="evenodd" d="M299.63 224.809C298.997 225.745 298.123 226.428 297.008 226.858L297.122 227.427C297.173 227.705 297.11 227.971 296.932 228.224C296.755 228.477 296.527 228.629 296.248 228.679C295.97 228.73 295.716 228.679 295.488 228.527C295.26 228.35 295.121 228.11 295.07 227.807L294.956 227.313C293.867 227.389 292.892 227.237 292.03 226.858C291.169 226.479 290.51 225.96 290.054 225.302C289.852 224.999 289.725 224.733 289.674 224.506C289.624 224.202 289.687 223.924 289.864 223.671C290.016 223.418 290.257 223.266 290.586 223.216C290.84 223.165 291.068 223.19 291.27 223.291C291.498 223.418 291.688 223.595 291.84 223.823C292.094 224.278 292.474 224.619 292.98 224.847C293.487 225.075 294.032 225.201 294.614 225.226L293.778 220.446C292.486 220.269 291.422 219.94 290.586 219.459C289.776 218.953 289.269 218.194 289.066 217.183C288.864 216.146 289.054 215.197 289.636 214.337C290.219 213.502 291.118 212.883 292.334 212.478L292.258 212.023C292.208 211.744 292.258 211.479 292.41 211.226C292.562 210.973 292.778 210.821 293.056 210.77C293.335 210.72 293.601 210.783 293.854 210.96C294.108 211.137 294.26 211.365 294.31 211.643L294.386 212.098C295.628 211.972 296.628 212.136 297.388 212.592C298.174 213.022 298.655 213.667 298.832 214.527C298.883 214.856 298.832 215.146 298.68 215.399C298.503 215.652 298.262 215.804 297.958 215.855C297.705 215.905 297.464 215.867 297.236 215.741C297.034 215.614 296.882 215.412 296.78 215.134C296.679 214.83 296.451 214.59 296.096 214.413C295.716 214.236 295.26 214.135 294.728 214.109L295.45 218.359C298.313 218.738 299.922 219.889 300.276 221.812C300.479 222.874 300.264 223.873 299.63 224.809ZM291.802 217.562C292.157 217.79 292.689 217.979 293.398 218.131L292.714 214.527C292.106 214.754 291.676 215.045 291.422 215.399C291.169 215.779 291.08 216.184 291.156 216.614C291.232 216.993 291.448 217.309 291.802 217.562ZM297.882 223.709C298.186 223.253 298.288 222.798 298.186 222.343C298.11 221.938 297.895 221.597 297.54 221.318C297.186 221.04 296.628 220.838 295.868 220.711L296.59 224.809C297.173 224.531 297.604 224.164 297.882 223.709Z" fill="#407BFF"/>
<path d="M279.49 210.922C284.126 202.461 294.728 199.35 303.24 203.979C311.714 208.608 314.83 219.232 310.156 227.693C313.462 219.497 310.08 210.125 302.328 205.914C293.854 201.285 283.214 204.396 278.578 212.857C278.831 212.2 279.135 211.555 279.49 210.922Z" fill="#407BFF"/>
<path opacity="0.3" d="M279.49 210.922C284.126 202.461 294.728 199.35 303.24 203.979C311.714 208.608 314.83 219.232 310.156 227.693C313.462 219.497 310.08 210.125 302.328 205.914C293.854 201.285 283.214 204.396 278.578 212.857C278.831 212.2 279.135 211.555 279.49 210.922Z" fill="black"/>
<path d="M103.208 44.4686C107.996 57.7864 122.018 64.9575 134.558 60.4423L139.004 58.8488L121.676 10.6618L117.192 12.2554C104.69 16.7326 98.42 31.1887 103.208 44.4686Z" fill="#407BFF"/>
<path opacity="0.3" d="M103.208 44.4686C107.996 57.7864 122.018 64.9575 134.558 60.4423L139.004 58.8488L121.676 10.6618L117.192 12.2554C104.69 16.7326 98.42 31.1887 103.208 44.4686Z" fill="black"/>
<path d="M153.52 45.6827C147.478 58.4694 132.202 63.971 119.396 57.9382C106.59 51.9053 101.08 36.6145 107.122 23.8279C113.164 11.0413 128.44 5.57754 141.284 11.6104C154.09 17.6053 159.562 32.8961 153.52 45.6827Z" fill="#407BFF"/>
<path d="M110.998 41.6988C114.836 52.3606 126.616 57.9002 137.294 54.068C147.934 50.2358 153.482 38.4737 149.644 27.8118C145.806 17.15 134.064 11.6483 123.386 15.4426C112.708 19.2748 107.16 31.0369 110.998 41.6988Z" fill="#407BFF"/>
<path opacity="0.3" d="M110.998 41.6988C114.836 52.3606 126.616 57.9002 137.294 54.068C147.934 50.2358 153.482 38.4737 149.644 27.8118C145.806 17.15 134.064 11.6483 123.386 15.4426C112.708 19.2748 107.16 31.0369 110.998 41.6988Z" fill="white"/>
<path fill-rule="evenodd" clip-rule="evenodd" d="M136.078 41.3193C135.318 42.4323 134.267 43.2544 132.924 43.7856L133.038 44.4685C133.114 44.7974 133.051 45.1136 132.848 45.4171C132.645 45.7206 132.379 45.8977 132.05 45.9483C131.695 46.0242 131.379 45.961 131.1 45.7586C130.821 45.5562 130.657 45.278 130.606 44.9239L130.492 44.3168C129.2 44.3927 128.035 44.2156 126.996 43.7856C125.957 43.3303 125.172 42.7105 124.64 41.9264C124.361 41.547 124.209 41.2308 124.184 40.9778C124.108 40.6237 124.171 40.2949 124.374 39.9913C124.577 39.6878 124.868 39.4981 125.248 39.4222C125.552 39.3716 125.831 39.4095 126.084 39.536C126.363 39.6625 126.578 39.8649 126.73 40.1431C127.034 40.6743 127.49 41.079 128.098 41.3573C128.706 41.6608 129.365 41.8126 130.074 41.8126L129.086 36.1212C127.515 35.9188 126.249 35.5141 125.286 34.907C124.298 34.3253 123.69 33.4273 123.462 32.2131C123.209 30.9737 123.437 29.848 124.146 28.8362C124.83 27.8497 125.907 27.1162 127.376 26.6356L127.262 26.0664C127.186 25.7376 127.249 25.4214 127.452 25.1179C127.629 24.8143 127.883 24.6246 128.212 24.5487C128.541 24.4982 128.858 24.574 129.162 24.7764C129.466 24.9788 129.643 25.257 129.694 25.6111L129.808 26.1423C131.277 26.0159 132.481 26.2056 133.418 26.7115C134.355 27.2427 134.913 28.0268 135.09 29.0639C135.166 29.4433 135.103 29.7848 134.9 30.0883C134.697 30.3919 134.419 30.5816 134.064 30.6575C133.76 30.7081 133.469 30.6575 133.19 30.5057C132.937 30.3287 132.759 30.0883 132.658 29.7848C132.557 29.4307 132.278 29.1398 131.822 28.9121C131.391 28.6845 130.859 28.5707 130.226 28.5707L131.062 33.6549C134.482 34.085 136.407 35.4509 136.838 37.7527C137.066 39.0175 136.813 40.2063 136.078 41.3193ZM126.692 32.6684C127.123 32.9467 127.756 33.1743 128.592 33.3514L127.832 29.0639C127.097 29.3169 126.578 29.6583 126.274 30.0883C125.945 30.5184 125.831 30.999 125.932 31.5302C126.033 32.0108 126.287 32.3902 126.692 32.6684ZM133.988 40.0293C134.343 39.4981 134.469 38.9416 134.368 38.3598C134.267 37.9045 134.001 37.5124 133.57 37.1836C133.139 36.8548 132.468 36.6018 131.556 36.4247L132.468 41.3193C133.127 41.0158 133.633 40.5858 133.988 40.0293Z" fill="#407BFF"/>
<path d="M111.986 24.7764C117.534 14.6458 130.226 10.9274 140.334 16.467C150.48 22.0066 154.204 34.6794 148.656 44.7721C152.57 34.9829 148.542 23.7899 139.27 18.7435C129.162 13.2039 116.47 16.9223 110.922 27.053C111.226 26.2688 111.581 25.51 111.986 24.7764Z" fill="#407BFF"/>
<path opacity="0.3" d="M111.986 24.7764C117.534 14.6458 130.226 10.9274 140.334 16.467C150.48 22.0066 154.204 34.6794 148.656 44.7721C152.57 34.9829 148.542 23.7899 139.27 18.7435C129.162 13.2039 116.47 16.9223 110.922 27.053C111.226 26.2688 111.581 25.51 111.986 24.7764Z" fill="black"/>
<path d="M294.994 92.1243C297.692 99.6749 305.672 103.773 312.816 101.193L315.362 100.282L305.482 72.8495L302.936 73.7602C295.83 76.3403 292.258 84.5358 294.994 92.1243Z" fill="#407BFF"/>
<path opacity="0.3" d="M294.994 92.1243C297.692 99.6749 305.672 103.773 312.816 101.193L315.362 100.282L305.482 72.8495L302.936 73.7602C295.83 76.3403 292.258 84.5358 294.994 92.1243Z" fill="black"/>
<path d="M323.608 92.8073C320.188 100.092 311.486 103.204 304.19 99.7507C296.894 96.3359 293.778 87.6471 297.198 80.3621C300.656 73.0772 309.358 69.9659 316.616 73.3807C323.912 76.8335 327.066 85.5223 323.608 92.8073Z" fill="#407BFF"/>
<path d="M299.402 90.5307C301.606 96.6015 308.294 99.7507 314.374 97.5501C320.454 95.3874 323.608 88.7095 321.404 82.6387C319.238 76.5679 312.55 73.4187 306.47 75.5814C300.39 77.7821 297.236 84.4599 299.402 90.5307Z" fill="#407BFF"/>
<path opacity="0.3" d="M299.402 90.5307C301.606 96.6015 308.294 99.7507 314.374 97.5501C320.454 95.3874 323.608 88.7095 321.404 82.6387C319.238 76.5679 312.55 73.4187 306.47 75.5814C300.39 77.7821 297.236 84.4599 299.402 90.5307Z" fill="white"/>
<path fill-rule="evenodd" clip-rule="evenodd" d="M313.69 90.3031C313.259 90.9354 312.651 91.4034 311.866 91.7069L311.942 92.0864C311.993 92.2887 311.955 92.4784 311.828 92.6555C311.727 92.8326 311.575 92.9337 311.372 92.959C311.195 92.9843 311.017 92.9464 310.84 92.8452C310.688 92.7187 310.599 92.5543 310.574 92.352L310.498 92.0105C309.763 92.0611 309.105 91.9599 308.522 91.7069C307.939 91.454 307.483 91.1125 307.154 90.6825C307.002 90.4548 306.913 90.2651 306.888 90.1134C306.863 89.911 306.901 89.7213 307.002 89.5442C307.129 89.3672 307.306 89.266 307.534 89.2407C307.686 89.2154 307.838 89.2407 307.99 89.3166C308.142 89.3924 308.269 89.5063 308.37 89.658C308.547 89.9616 308.801 90.1892 309.13 90.341C309.485 90.4928 309.865 90.5813 310.27 90.6066L309.7 87.3436C308.813 87.2424 308.091 87.0147 307.534 86.6606C306.977 86.3317 306.635 85.8258 306.508 85.1429C306.356 84.4346 306.483 83.7896 306.888 83.2078C307.268 82.6513 307.876 82.234 308.712 81.9557L308.674 81.6522C308.623 81.4498 308.649 81.2601 308.75 81.083C308.877 80.906 309.029 80.8048 309.206 80.7795C309.383 80.7542 309.561 80.7921 309.738 80.8933C309.915 81.0198 310.017 81.1842 310.042 81.3866L310.118 81.6901C310.954 81.6142 311.638 81.7154 312.17 81.9937C312.702 82.2972 313.019 82.7399 313.12 83.3217C313.171 83.5493 313.133 83.7517 313.006 83.9287C312.905 84.1058 312.753 84.207 312.55 84.2323C312.373 84.2829 312.208 84.2576 312.056 84.1564C311.904 84.0552 311.803 83.9161 311.752 83.739C311.676 83.5367 311.511 83.3722 311.258 83.2458C311.005 83.1193 310.701 83.056 310.346 83.056L310.84 85.9397C312.765 86.1926 313.855 86.9768 314.108 88.2921C314.235 89.0004 314.095 89.6707 313.69 90.3031ZM308.332 85.3705C308.585 85.5476 308.953 85.6867 309.434 85.7879L308.978 83.3217C308.573 83.4734 308.281 83.6758 308.104 83.9287C307.927 84.1817 307.863 84.4599 307.914 84.7635C307.965 85.0164 308.104 85.2188 308.332 85.3705ZM312.474 89.5822C312.677 89.2786 312.753 88.9624 312.702 88.6336C312.651 88.3806 312.499 88.153 312.246 87.9506C312.018 87.7736 311.638 87.6344 311.106 87.5333L311.6 90.3031C312.005 90.126 312.297 89.8857 312.474 89.5822Z" fill="#407BFF"/>
<path d="M299.972 80.8933C303.126 75.1261 310.346 73.0392 316.122 76.1885C321.86 79.3377 323.988 86.5468 320.834 92.2761C323.076 86.6985 320.758 80.3621 315.514 77.4785C309.738 74.3293 302.518 76.4161 299.364 82.1834C299.541 81.7534 299.744 81.3234 299.972 80.8933Z" fill="#407BFF"/>
<path opacity="0.3" d="M299.972 80.8933C303.126 75.1261 310.346 73.0392 316.122 76.1885C321.86 79.3377 323.988 86.5468 320.834 92.2761C323.076 86.6985 320.758 80.3621 315.514 77.4785C309.738 74.3293 302.518 76.4161 299.364 82.1834C299.541 81.7534 299.744 81.3234 299.972 80.8933Z" fill="black"/>
<path d="M294.69 209.139L232.56 186.715L264.708 97.9675L326.838 120.354L294.69 209.139Z" fill="#407BFF"/>
<path opacity="0.8" d="M294.69 209.139L232.56 186.715L264.708 97.9675L326.838 120.354L294.69 209.139Z" fill="white"/>
<path fill-rule="evenodd" clip-rule="evenodd" d="M274.626 115.459C274.018 117.242 272.156 117.736 269.42 116.749L263.91 114.776L267.596 104.569L272.802 106.429C275.5 107.415 276.412 108.971 275.842 110.564C275.5 111.513 274.702 112.12 273.676 112.272C274.702 113.107 275.082 114.245 274.626 115.459ZM271.852 114.093C272.08 113.41 271.7 112.879 270.674 112.499L268.28 111.627L267.52 113.714L269.952 114.586C270.94 114.928 271.586 114.776 271.852 114.093ZM269.686 107.681L269.002 109.654L270.978 110.375C271.928 110.716 272.574 110.564 272.802 109.881C273.03 109.236 272.65 108.743 271.7 108.402L269.686 107.681Z" fill="#407BFF"/>
<path d="M278.806 108.591L281.694 109.654L278.008 119.86L275.12 118.798L278.806 108.591Z" fill="#407BFF"/>
<path d="M283.746 110.375L286.634 111.437L283.784 119.329L288.648 121.112L287.85 123.389L280.06 120.581L283.746 110.375Z" fill="#407BFF"/>
<path d="M292.676 113.6L295.564 114.624L292.676 122.554L297.578 124.3L296.742 126.614L288.99 123.806L292.676 113.6Z" fill="#407BFF"/>
<path d="M285.342 135.341L260.832 126.5L261.82 123.844L286.33 132.685L285.342 135.341Z" fill="#407BFF"/>
<path opacity="0.4" d="M297.616 184.438L247.152 166.264L258.894 133.823L309.32 151.998L297.616 184.438Z" fill="#407BFF"/>
<path d="M308.978 152.946L258.552 134.772L259.236 132.875L309.662 151.049L308.978 152.946Z" fill="#407BFF"/>
<path d="M260.832 141.108C265.671 142.853 270.509 144.599 275.348 146.344C275.69 146.458 275.842 145.927 275.5 145.775C270.661 144.03 265.823 142.297 260.984 140.577C260.642 140.425 260.49 140.994 260.832 141.108Z" fill="#263238"/>
<path d="M257.868 149.266C262.707 151.011 267.545 152.756 272.384 154.502C272.726 154.616 272.878 154.084 272.536 153.933C267.697 152.187 262.859 150.442 258.02 148.697C257.678 148.583 257.526 149.152 257.868 149.266Z" fill="#263238"/>
<path d="M260.072 143.195C261.618 143.751 263.176 144.308 264.746 144.864C265.088 145.016 265.24 144.447 264.898 144.333C263.327 143.777 261.769 143.22 260.224 142.664C259.882 142.512 259.73 143.081 260.072 143.195Z" fill="#263238"/>
<path d="M258.666 147.103C265.658 149.607 272.637 152.124 279.604 154.654C279.946 154.767 280.098 154.236 279.756 154.084C272.789 151.58 265.81 149.063 258.818 146.534C258.476 146.42 258.324 146.989 258.666 147.103Z" fill="#263238"/>
<path d="M294.386 152.794C296.97 153.73 299.554 154.666 302.138 155.602C302.518 155.716 302.632 155.185 302.29 155.033C299.706 154.122 297.122 153.199 294.538 152.263C294.196 152.149 294.044 152.681 294.386 152.794Z" fill="#407BFF"/>
<path d="M292.106 159.169C294.69 160.105 297.274 161.028 299.858 161.939C300.2 162.09 300.352 161.521 300.01 161.407C297.426 160.471 294.842 159.536 292.258 158.6C291.916 158.486 291.764 159.017 292.106 159.169Z" fill="#407BFF"/>
<path d="M255.892 154.692C259.211 155.88 262.517 157.082 265.81 158.296C266.152 158.41 266.304 157.841 265.962 157.727C262.669 156.538 259.363 155.349 256.044 154.16C255.702 154.046 255.55 154.578 255.892 154.692Z" fill="#263238"/>
<path d="M289.75 165.695C292.334 166.631 294.918 167.554 297.502 168.465C297.844 168.616 297.996 168.047 297.654 167.933C295.07 166.998 292.486 166.062 289.902 165.126C289.56 165.012 289.408 165.581 289.75 165.695Z" fill="#407BFF"/>
<path d="M253.954 160.155C260.921 162.659 267.9 165.176 274.892 167.706C275.234 167.82 275.386 167.288 275.044 167.175C268.052 164.645 261.073 162.116 254.106 159.586C253.726 159.472 253.612 160.041 253.954 160.155Z" fill="#263238"/>
<path d="M287.394 172.221C289.978 173.157 292.562 174.08 295.146 174.991C295.488 175.143 295.64 174.573 295.298 174.46C292.714 173.524 290.13 172.588 287.546 171.652C287.204 171.538 287.052 172.107 287.394 172.221Z" fill="#407BFF"/>
<path d="M292.448 189.219L280.326 184.818L281.39 181.896L293.512 186.26L292.448 189.219Z" fill="#407BFF"/>
<path d="M242.63 184.097C254.993 188.549 267.343 193.013 279.68 197.491C283.176 198.73 286.672 199.982 290.168 201.247C290.51 201.361 290.662 200.83 290.32 200.716C277.957 196.239 265.595 191.774 253.232 187.322C249.736 186.057 246.253 184.805 242.782 183.566C242.44 183.414 242.288 183.983 242.63 184.097Z" fill="#263238"/>
<path d="M243.39 181.934C255.753 186.412 268.115 190.876 280.478 195.328C283.974 196.593 287.457 197.845 290.928 199.084C291.27 199.236 291.422 198.667 291.08 198.553C278.717 194.101 266.367 189.649 254.03 185.197C250.534 183.933 247.038 182.668 243.542 181.403C243.2 181.289 243.048 181.82 243.39 181.934Z" fill="#263238"/>
<path d="M318.174 133.102L307.306 129.194L308.522 125.779L319.39 129.725L318.174 133.102Z" fill="#263238"/>
<path d="M269.648 82.1834L195.548 49.0217C194.902 48.7561 194.636 47.9973 194.902 47.3522L215.802 0.758875C216.106 0.151795 216.866 -0.151745 217.474 0.151795L291.612 33.2756C292.22 33.5791 292.524 34.3 292.22 34.945L271.32 81.5384C271.054 82.1834 270.294 82.449 269.648 82.1834Z" fill="#407BFF"/>
<path opacity="0.6" d="M228.836 30.354L216.524 24.8144C215.726 24.4729 215.384 23.5623 215.726 22.7655L220.324 12.5211C220.666 11.7243 221.616 11.3828 222.376 11.7243L234.726 17.2639C235.524 17.6053 235.866 18.516 235.524 19.3128L230.926 29.5572C230.546 30.354 229.634 30.6955 228.836 30.354Z" fill="white"/>
<path opacity="0.6" d="M212.648 33.7309C215.941 35.198 219.235 36.6651 222.528 38.1322C223.63 38.6634 224.428 36.9181 223.288 36.4248C219.995 34.9324 216.701 33.4526 213.408 31.9855C212.306 31.4923 211.508 33.2376 212.648 33.7309Z" fill="white"/>
<path opacity="0.6" d="M227.848 40.5226C231.141 41.9897 234.435 43.4694 237.728 44.9618C238.83 45.4551 239.628 43.7097 238.526 43.2165C235.233 41.7494 231.939 40.2696 228.646 38.7772C227.506 38.284 226.746 40.0293 227.848 40.5226Z" fill="white"/>
<path opacity="0.6" d="M242.326 47.4661C245.619 48.9332 248.913 50.4003 252.206 51.8674C253.308 52.3607 254.106 50.6533 252.966 50.1221C249.673 48.655 246.379 47.1878 243.086 45.7207C241.984 45.2275 241.186 46.9349 242.326 47.4661Z" fill="white"/>
<path opacity="0.6" d="M258.248 54.1439C261.541 55.6111 264.835 57.0782 268.128 58.5453C269.268 59.0385 270.028 57.2932 268.926 56.7999C265.633 55.3328 262.339 53.8657 259.046 52.3986C257.906 51.9053 257.146 53.6128 258.248 54.1439Z" fill="white"/>
<g opacity="0.6">
<path d="M208.316 42.3438C211.761 43.9374 215.207 45.531 218.652 47.1246C224.149 49.6541 229.659 52.1835 235.182 54.713C236.449 55.3201 237.728 55.9146 239.02 56.4963C240.008 56.9517 240.882 55.4719 239.856 55.0166C236.411 53.423 232.965 51.8294 229.52 50.2358C224.023 47.7063 218.525 45.1768 213.028 42.6473C211.736 42.0656 210.457 41.4711 209.19 40.864C208.202 40.4087 207.328 41.8885 208.316 42.3438Z" fill="white"/>
</g>
<path opacity="0.3" d="M272.536 43.1406L267.216 40.7502C265.734 40.1052 265.088 38.3978 265.734 36.9181C266.418 35.4383 268.128 34.7933 269.61 35.4383L274.892 37.8287C276.374 38.4737 277.02 40.219 276.374 41.6609C275.728 43.1406 273.98 43.7856 272.536 43.1406Z" fill="black"/>
<path d="M232.522 291.246H143.108C133.038 291.246 124.906 283.089 124.336 273.186V59.7594C124.906 49.5908 133.038 41.4332 143.108 41.4332H232.522C242.592 41.4332 250.762 49.5908 250.762 59.6456V273.072C250.762 283.089 242.592 291.246 232.522 291.246Z" fill="#263238"/>
<path d="M232.522 45.6069H209.304C207.784 45.6069 206.492 46.7072 206.302 48.2249L206.188 48.9458C205.694 52.6262 202.578 55.3581 198.854 55.396H176.776C173.052 55.3581 169.936 52.6262 169.442 48.9458L169.366 48.2249C169.176 46.7072 167.884 45.5689 166.364 45.5689H143.108C135.356 45.5689 129.048 51.7915 129.01 59.5317C129.01 59.557 129.01 59.595 129.01 59.6456V273.072C129.01 280.812 135.318 287.073 143.07 287.073H232.484C240.236 287.073 246.506 280.812 246.544 273.072V59.6456C246.506 51.9053 240.274 45.6448 232.522 45.6069Z" fill="#407BFF"/>
<path opacity="0.8" d="M232.522 45.6069H209.304C207.784 45.6069 206.492 46.7072 206.302 48.2249L206.188 48.9458C205.694 52.6262 202.578 55.3581 198.854 55.396H176.776C173.052 55.3581 169.936 52.6262 169.442 48.9458L169.366 48.2249C169.176 46.7072 167.884 45.5689 166.364 45.5689H143.108C135.356 45.5689 129.048 51.7915 129.01 59.5317C129.01 59.557 129.01 59.595 129.01 59.6456V273.072C129.01 280.812 135.318 287.073 143.07 287.073H232.484C240.236 287.073 246.506 280.812 246.544 273.072V59.6456C246.506 51.9053 240.274 45.6448 232.522 45.6069Z" fill="white"/>
<g opacity="0.7">
<path d="M182.4 47.9972C182.4 48.9458 181.64 49.7805 180.652 49.7805C179.664 49.7805 178.866 48.9837 178.828 47.9972C178.828 47.0107 179.626 46.2139 180.614 46.2139C180.614 46.2139 180.627 46.2139 180.652 46.2139C181.602 46.2139 182.4 47.0107 182.4 47.9972Z" fill="black"/>
<path d="M195.016 46.2139H188.898C187.948 46.2139 187.15 47.0107 187.15 47.9972C187.15 48.9458 187.948 49.7426 188.898 49.7426H195.016C195.966 49.7426 196.764 48.9458 196.764 47.9972C196.764 47.0107 195.966 46.2139 195.016 46.2139Z" fill="black"/>
</g>
<path d="M138.814 53.4989H140.676V55.396H138.814V53.4989Z" fill="#407BFF"/>
<path d="M142.576 53.4989V55.396H144.438V53.4989V51.6397H142.576V53.4989Z" fill="#407BFF"/>
<path d="M146.338 49.7426V51.6397V53.4989V55.396H148.2V53.4989V51.6397V49.7426H146.338Z" fill="#407BFF"/>
<path fill-rule="evenodd" clip-rule="evenodd" d="M235.524 49.8943V55.396H227.202V54.0301H226.29V51.2603H227.202V49.8943H235.524ZM230.85 51.2603H228.076V54.0301H230.926L230.85 51.2603Z" fill="#407BFF"/>
<path opacity="0.2" d="M129.01 232.853C129.01 230.69 136.762 202.727 153.748 173.321C170.772 143.916 191.786 163.987 212.192 131.736C232.598 99.4472 234.878 45.5689 234.878 45.5689H211.128C211.128 45.5689 206.606 105.897 184.984 113.789C163.324 121.682 129.01 169.717 129.01 169.717V232.853Z" fill="white"/>
<path opacity="0.2" d="M143.184 287.452H157.244C157.244 287.452 234.992 176.66 246.544 156.74V135.303C235.942 160.193 143.184 287.452 143.184 287.452Z" fill="white"/>
<path d="M237.728 221.736H138.852V80.438H237.728V221.736Z" fill="white"/>
<path fill-rule="evenodd" clip-rule="evenodd" d="M161.804 100.092C161.804 102.862 159.486 104.531 155.116 104.531H146.338V88.2921H154.66C158.916 88.2921 161.006 90.0375 161.006 92.5417C161.006 94.0973 160.208 95.3494 158.84 96.0703C160.664 96.7153 161.804 98.1192 161.804 100.092ZM150.898 91.5931V94.7423H154.052C155.572 94.7423 156.37 94.2111 156.37 93.1488C156.37 92.1622 155.572 91.5931 154.052 91.5931H150.898ZM157.168 99.561C157.168 98.4607 156.332 97.9295 154.736 97.9295H150.898V101.193H154.736C156.332 101.193 157.168 100.661 157.168 99.561Z" fill="#407BFF"/>
<path d="M164.198 88.2921H168.796V104.531H164.198V88.2921Z" fill="#407BFF"/>
<path d="M172.064 88.2921H176.662V100.889H184.414V104.531H172.064V88.2921Z" fill="#407BFF"/>
<path d="M186.238 88.2921H190.836V100.889H198.588V104.531H186.238V88.2921Z" fill="#407BFF"/>
<path d="M186.998 122.554H147.972V118.343H186.998V122.554Z" fill="#407BFF"/>
<path d="M229.254 185.501H148.96V133.861H229.254V185.501Z" fill="#E0E0E0"/>
<path d="M229.254 135.379H148.96V132.381H229.254V135.379Z" fill="#407BFF"/>
<path d="M155.382 143.005C163.058 143.005 170.747 143.005 178.448 143.005C178.828 143.005 178.828 142.436 178.448 142.436C170.747 142.436 163.058 142.436 155.382 142.436C155.002 142.436 155.002 143.005 155.382 143.005Z" fill="#263238"/>
<path d="M155.382 155.981C163.058 155.981 170.747 155.981 178.448 155.981C178.828 155.981 178.828 155.412 178.448 155.412C170.747 155.412 163.058 155.412 155.382 155.412C155.002 155.412 155.002 155.981 155.382 155.981Z" fill="#263238"/>
<path d="M155.382 146.344C157.84 146.344 160.31 146.344 162.792 146.344C163.134 146.344 163.134 145.775 162.792 145.775C160.31 145.775 157.84 145.775 155.382 145.775C155.002 145.775 155.002 146.344 155.382 146.344Z" fill="#263238"/>
<path d="M155.382 152.529C166.478 152.529 177.587 152.529 188.708 152.529C189.05 152.529 189.088 151.96 188.708 151.96C177.587 151.96 166.478 151.96 155.382 151.96C155.002 151.96 155.002 152.529 155.382 152.529Z" fill="#263238"/>
<path d="M208.582 142.436C212.686 142.436 216.803 142.436 220.932 142.436C221.274 142.436 221.274 141.867 220.932 141.867C216.803 141.867 212.686 141.867 208.582 141.867C208.24 141.867 208.24 142.436 208.582 142.436Z" fill="#407BFF"/>
<path d="M208.582 152.529C212.686 152.529 216.803 152.529 220.932 152.529C221.274 152.529 221.274 151.96 220.932 151.96C216.803 151.96 212.686 151.96 208.582 151.96C208.24 151.96 208.24 152.529 208.582 152.529Z" fill="#407BFF"/>
<path d="M155.382 164.632C160.626 164.632 165.87 164.632 171.114 164.632C171.494 164.632 171.494 164.063 171.114 164.063C165.87 164.063 160.626 164.063 155.382 164.063C155.002 164.063 155.002 164.632 155.382 164.632Z" fill="#263238"/>
<path d="M208.582 162.925C212.686 162.925 216.803 162.925 220.932 162.925C221.274 162.925 221.274 162.356 220.932 162.356C216.803 162.356 212.686 162.356 208.582 162.356C208.24 162.356 208.24 162.925 208.582 162.925Z" fill="#407BFF"/>
<path d="M155.382 173.321C166.478 173.321 177.587 173.321 188.708 173.321C189.05 173.321 189.088 172.752 188.708 172.752C177.587 172.752 166.478 172.752 155.382 172.752C155.002 172.752 155.002 173.321 155.382 173.321Z" fill="#263238"/>
<path d="M208.582 173.321C212.686 173.321 216.803 173.321 220.932 173.321C221.274 173.321 221.274 172.752 220.932 172.752C216.803 172.752 212.686 172.752 208.582 172.752C208.24 172.752 208.24 173.321 208.582 173.321Z" fill="#407BFF"/>
<path d="M224.39 194.797H205.124V190.13H224.39V194.797Z" fill="#407BFF"/>
<path d="M151.62 212.781C171.304 212.781 190.975 212.781 210.634 212.781C216.182 212.781 221.73 212.781 227.278 212.781C227.658 212.781 227.658 212.212 227.278 212.212C207.619 212.212 187.948 212.212 168.264 212.212C162.716 212.212 157.168 212.212 151.62 212.212C151.24 212.212 151.24 212.781 151.62 212.781Z" fill="#263238"/>
<path d="M151.62 209.367C171.304 209.367 190.975 209.367 210.634 209.367C216.182 209.367 221.73 209.367 227.278 209.367C227.658 209.367 227.658 208.797 227.278 208.797C207.619 208.797 187.948 208.797 168.264 208.797C162.716 208.797 157.168 208.797 151.62 208.797C151.24 208.797 151.24 209.367 151.62 209.367Z" fill="#263238"/>
<path d="M232.066 102.786H214.738V97.3604H232.066V102.786Z" fill="#263238"/>
<path d="M216.79 263.207H157.776C150.898 263.207 145.312 257.629 145.312 250.762C145.312 243.894 150.898 238.317 157.776 238.317H216.79C223.668 238.317 229.254 243.894 229.254 250.762C229.254 257.629 223.668 263.207 216.79 263.207Z" fill="#407BFF"/>
<path fill-rule="evenodd" clip-rule="evenodd" d="M179.512 248.561C179.512 252.241 176.738 254.556 172.292 254.556H169.48V258.806H164.882V242.566H172.292C176.738 242.566 179.512 244.881 179.512 248.561ZM174.876 248.561C174.876 247.081 173.926 246.171 172.026 246.171H169.48V250.951H172.026C173.926 250.951 174.876 250.041 174.876 248.561Z" fill="white"/>
<path fill-rule="evenodd" clip-rule="evenodd" d="M191.824 255.656H184.946L183.692 258.806H178.98L186.162 242.566H190.684L197.904 258.806H193.116L191.824 255.656ZM190.456 252.279L188.366 247.081L186.276 252.279H190.456Z" fill="white"/>
<path d="M206.872 252.962V258.806H202.274V252.924L196.08 242.566H200.944L204.782 249.016L208.658 242.566H213.104L206.872 252.962Z" fill="white"/>
<path d="M256.006 293.637C253.65 293.523 251.446 292.385 249.698 290.791C247.988 289.198 246.696 287.149 245.632 285.062C242.782 279.484 241.414 273.186 241.68 266.925C241.756 265.597 241.87 264.231 242.44 263.017C243.048 261.803 244.112 260.779 245.442 260.589C247.418 260.285 249.166 261.879 250.42 263.435C256.158 270.492 259.084 279.75 258.514 288.818C258.362 291.019 257.602 293.181 256.006 293.637Z" fill="#407BFF"/>
<path d="M266.532 281.343C264.594 277.36 264.48 272.579 265.734 268.329C267.026 264.042 269.648 260.247 272.916 257.212C276.488 253.873 281.048 251.293 285.95 251.293C288.04 251.255 290.282 251.824 291.574 253.456C292.942 255.239 292.828 257.705 292.22 259.83C291.27 263.359 289.18 266.47 286.71 269.126C284.202 271.744 281.314 273.983 278.426 276.221C275.196 278.688 271.662 281.306 267.596 281.609" fill="#407BFF"/>
<path d="M266.836 294.889C267.406 290.412 270.902 286.655 275.006 284.682C279.11 282.709 283.784 282.216 288.306 282.026C289.332 281.95 290.358 281.913 291.346 282.216C292.296 282.52 293.208 283.241 293.474 284.189C293.816 285.479 292.98 286.769 292.144 287.794C287.166 293.751 279.376 297.279 271.586 297.09C270.674 297.052 269.762 296.976 268.926 296.634C268.09 296.293 267.368 295.648 267.102 294.775" fill="#407BFF"/>
<path d="M245.556 264.08C250.952 277.284 255.284 290.905 258.514 304.83C259.426 308.801 260.237 312.785 260.946 316.782C261.022 317.161 261.554 317.009 261.516 316.63C258.97 302.591 255.284 288.78 250.458 275.349C249.09 271.504 247.633 267.697 246.088 263.928C245.974 263.586 245.404 263.738 245.556 264.08Z" fill="#263238"/>
<path d="M261.82 311.394C261.554 303.198 262.2 294.965 264.48 287.111C266.76 279.295 270.712 272.085 276.108 265.977C279.528 262.107 283.518 258.73 287.774 255.808C288.078 255.618 287.812 255.125 287.508 255.315C280.212 260.323 273.828 266.66 269.344 274.324C265.24 281.305 262.884 289.16 261.858 297.203C261.25 301.908 261.098 306.651 261.25 311.394C261.25 311.735 261.82 311.735 261.82 311.394Z" fill="#263238"/>
<path d="M262.086 300.087C268.508 292.65 277.514 287.452 287.242 285.707C287.584 285.631 287.432 285.1 287.09 285.176C277.286 286.921 268.166 292.157 261.668 299.708C261.44 299.973 261.858 300.391 262.086 300.087Z" fill="#263238"/>
<path d="M276.374 317.237V307.486H262.732H249.128V317.237C249.128 317.237 248.596 334.501 258.21 336.094H262.732H267.292C276.868 334.501 276.374 317.237 276.374 317.237Z" fill="#407BFF"/>
<path opacity="0.5" d="M276.374 317.237V307.486H262.732H249.128V317.237C249.128 317.237 248.596 334.501 258.21 336.094H262.732H267.292C276.868 334.501 276.374 317.237 276.374 317.237Z" fill="black"/>
<path d="M131.062 113.789L119.244 109.54C118.712 109.312 118.408 108.705 118.598 108.174L126.844 85.3706C127.072 84.8394 127.68 84.5358 128.212 84.7255L140.03 89.013C140.562 89.2028 140.866 89.8098 140.676 90.341L132.43 113.144C132.202 113.714 131.594 113.979 131.062 113.789Z" fill="#263238"/>
<path opacity="0.3" d="M131.062 113.789L119.244 109.54C118.712 109.312 118.408 108.705 118.598 108.174L126.844 85.3706C127.072 84.8394 127.68 84.5358 128.212 84.7255L140.03 89.013C140.562 89.2028 140.866 89.8098 140.676 90.341L132.43 113.144C132.202 113.714 131.594 113.979 131.062 113.789Z" fill="white"/>
<path d="M134.558 111.741L122.208 127.449C122.208 127.449 109.82 109.616 105.146 105.746C100.89 102.217 105.45 110.83 105.45 110.83C105.45 110.83 105.488 126.007 105.982 126.424C106.514 126.842 119.814 146.192 126.616 140.425C133.418 134.62 140.41 112.879 140.41 112.879L134.558 111.741Z" fill="#B97964"/>
<path d="M134.292 97.4742C134.292 97.4742 141.208 99.4851 142.006 101.041C142.842 102.558 140.296 113.676 140.144 113.714C140.068 113.714 137.294 113.069 135.242 112.575C134.102 112.31 133.456 111.133 133.798 110.033C134.064 109.312 134.254 108.515 134.292 107.984C134.33 107.605 129.922 105.822 129.998 104.607C130.036 103.393 130.682 103.545 130.682 103.545C130.682 103.545 128.364 102.483 128.82 101.23C129.428 99.6748 131.062 100.016 131.062 100.016C131.062 100.016 129.77 98.6504 129.998 97.6639C130.378 96.1462 134.292 97.4742 134.292 97.4742Z" fill="#B97964"/>
<path d="M130.454 103.849C132.278 104.152 134.026 104.645 135.698 105.366C136.002 105.48 136.306 104.987 135.964 104.873C134.254 104.152 132.468 103.621 130.606 103.317C130.264 103.241 130.112 103.811 130.454 103.849Z" fill="#A24E3F"/>
<path d="M130.758 100.282C132.848 100.547 134.862 101.23 136.686 102.255C136.99 102.445 137.294 101.951 136.952 101.762C135.052 100.699 132.924 100.016 130.758 99.7128C130.378 99.6748 130.378 100.244 130.758 100.282Z" fill="#A24E3F"/>
<path opacity="0.3" d="M133.646 90.7584C133.456 91.3655 132.924 91.7069 132.468 91.5552C131.974 91.4413 131.746 90.8343 131.936 90.2651C132.088 89.658 132.62 89.3166 133.076 89.4683C133.57 89.5822 133.798 90.1892 133.646 90.7584Z" fill="white"/>
<path d="M70.186 84.8394C73.112 79.4136 74.366 73.4566 76.57 67.6514C77.216 65.944 78.622 64.0469 79.876 62.6809C81.738 60.632 86.754 58.2037 88.616 58.0899L97.926 59.6076C107.388 58.3934 108.946 72.2804 109.25 81.6522C109.516 90.986 106.894 100.661 101.536 108.326C100.472 109.843 99.256 111.361 97.622 112.234C95.57 113.296 93.138 113.144 90.858 112.993C83.068 112.386 74.632 111.058 69.388 105.328C71.326 102.331 72.504 98.8781 72.846 95.3115C71.364 98.4607 68.856 101.117 65.854 102.862C63.878 101.142 61.902 99.4093 59.926 97.6639C65.208 92.959 67.298 90.3031 70.186 84.8394Z" fill="#263238"/>
<path d="M104.766 101.989C104.766 101.989 109.44 102.407 112.556 107.757C115.672 113.107 118.712 117.508 118.712 117.508L108.68 124.186L104.766 101.989Z" fill="#407BFF"/>
<g opacity="0.8">
<path d="M104.766 101.989C104.766 101.989 109.44 102.407 112.556 107.757C115.672 113.107 118.712 117.508 118.712 117.508L108.68 124.186L104.766 101.989Z" fill="white"/>
</g>
<path d="M112.062 148.317C110.96 147.596 109.516 147.52 108.186 147.52C98.078 147.407 88.008 148.355 78.09 150.29L76.38 151.125C75.012 150.366 73.15 150.897 72.01 151.96C70.87 153.06 70.224 154.578 69.654 156.02C64.524 168.73 59.622 181.555 56.164 194.759C55.366 197.832 54.682 201.247 56.164 204.017C57.95 207.28 61.978 208.418 65.626 209.063C77.52 211.188 89.68 211.302 101.764 211.34C104.69 211.34 107.844 211.302 110.276 209.632C113.658 207.28 114.456 202.727 114.836 198.629C116.28 183.68 116.166 168.616 114.38 153.705C114.152 151.694 113.734 149.455 112.062 148.317Z" fill="#263238"/>
<path d="M100.662 325.812L109.022 326.647L115.178 305.513L102.486 304.109L100.662 325.812Z" fill="#B97964"/>
<path d="M110.238 322.966H107.236C106.552 322.966 105.944 323.308 105.526 323.839C103.816 326.191 102.524 325.281 100.662 323.08C99.484 322.966 99.142 324.332 99.066 324.674L96.824 332.793C96.634 333.476 97.014 334.159 97.698 334.349C97.8246 334.4 97.9513 334.425 98.078 334.425C101.688 334.425 103.398 334.425 107.92 334.425H121.714C125.476 334.425 126.236 330.631 124.716 330.289C117.724 328.734 112.822 326.685 110.656 324.674C110.238 324.332 110.656 324.067 110.238 322.966Z" fill="#263238"/>
<path fill-rule="evenodd" clip-rule="evenodd" d="M114.684 325.698C113.747 325.698 112.809 325.584 111.872 325.357C111.796 325.319 111.758 325.243 111.796 325.129C111.796 325.078 111.821 325.053 111.872 325.053C112.29 324.825 116.052 323.08 116.964 323.763C117.154 323.877 117.23 324.067 117.23 324.294C117.192 324.674 117.002 325.015 116.698 325.243C116.09 325.622 115.368 325.774 114.684 325.698ZM112.48 325.129C113.582 325.319 115.596 325.622 116.47 324.977C116.698 324.788 116.812 324.56 116.85 324.256C116.85 324.18 116.812 324.105 116.736 324.029C116.204 323.687 114 324.446 112.48 325.129Z" fill="#407BFF"/>
<path fill-rule="evenodd" clip-rule="evenodd" d="M111.91 325.357C111.885 325.382 111.847 325.382 111.796 325.357C111.758 325.319 111.72 325.243 111.758 325.205C111.758 325.015 112.632 321.373 114.684 321.6C115.178 321.676 115.33 321.904 115.368 322.132C115.482 323.08 113.126 324.939 112.024 325.395L111.91 325.357ZM114.456 321.866C113.164 321.866 112.404 324.029 112.138 324.863C113.354 324.218 115.064 322.701 114.95 322.132C114.95 322.056 114.95 321.942 114.57 321.904L114.456 321.866Z" fill="#407BFF"/>
<path d="M112.29 325.243C111.264 325.395 110.314 326.002 109.782 326.874" stroke="#407BFF" stroke-linecap="round" stroke-linejoin="round"/>
<path d="M114.152 326.647C113.126 326.798 112.176 327.406 111.606 328.278" stroke="#407BFF" stroke-linecap="round" stroke-linejoin="round"/>
<path d="M116.47 327.823C115.444 327.975 114.494 328.582 113.924 329.454" stroke="#407BFF" stroke-linecap="round" stroke-linejoin="round"/>
<path opacity="0.3" d="M111.948 316.668L111.188 319.248L101.346 317.768L101.498 315.643L111.948 316.668Z" fill="black"/>
<path d="M71.668 326.495L80.028 327.292L86.222 306.158L73.492 304.792L71.668 326.495Z" fill="#B97964"/>
<path d="M81.244 323.611H78.28C77.596 323.611 76.988 323.953 76.57 324.522C74.86 326.836 73.568 325.964 71.668 323.763C70.49 323.611 70.186 324.977 70.072 325.357L67.83 333.476C67.64 334.121 68.058 334.842 68.704 335.032C68.8307 335.057 68.9574 335.07 69.084 335.07C72.732 335.07 74.442 335.07 78.926 335.07H92.758C96.52 335.07 97.28 331.314 95.722 330.934C88.768 329.417 83.828 327.368 81.662 325.357C81.282 324.977 81.7 324.712 81.244 323.611Z" fill="#263238"/>
<path fill-rule="evenodd" clip-rule="evenodd" d="M85.6901 326.381C84.7528 326.356 83.8281 326.242 82.9161 326.04C82.8401 326.002 82.7641 325.888 82.8021 325.812C82.8274 325.761 82.8654 325.724 82.9161 325.698C83.3341 325.509 87.0581 323.763 88.0081 324.446C88.1601 324.56 88.2741 324.75 88.2361 324.939C88.2361 325.357 88.0461 325.698 87.7421 325.926C87.1341 326.305 86.4121 326.457 85.6901 326.381ZM83.4861 325.812C84.5881 326.002 86.6401 326.267 87.4761 325.66C87.7041 325.471 87.8561 325.205 87.8561 324.939C87.8941 324.864 87.8561 324.75 87.7801 324.712C87.2481 324.332 85.0441 325.129 83.4861 325.812Z" fill="#407BFF"/>
<path fill-rule="evenodd" clip-rule="evenodd" d="M82.9541 326.04C82.9034 326.04 82.8654 326.04 82.8401 326.04C82.7641 326.002 82.7641 325.926 82.8021 325.85C82.8021 325.698 83.6761 322.018 85.6901 322.283C86.2221 322.321 86.3741 322.587 86.3741 322.777C86.4881 323.763 84.1701 325.584 83.0301 326.078L82.9541 326.04ZM85.5001 322.549C84.2081 322.549 83.4861 324.674 83.2201 325.546C84.4361 324.901 86.1461 323.384 86.0321 322.777C86.0321 322.739 86.0321 322.587 85.6521 322.549H85.5001Z" fill="#407BFF"/>
<path d="M83.3341 325.926C82.3081 326.078 81.3581 326.685 80.7881 327.557" stroke="#407BFF" stroke-linecap="round" stroke-linejoin="round"/>
<path d="M85.1961 327.33C84.1701 327.444 83.2201 328.089 82.6501 328.961" stroke="#407BFF" stroke-linecap="round" stroke-linejoin="round"/>
<path d="M87.476 328.506C86.45 328.62 85.5 329.227 84.968 330.137" stroke="#407BFF" stroke-linecap="round" stroke-linejoin="round"/>
<path opacity="0.3" d="M72.3521 318.413L72.5421 316.288L82.9541 317.351L82.1941 319.931" fill="black"/>
<path opacity="0.2" d="M116.584 165.391C116.584 165.391 110.428 171.842 98.42 171.955C86.374 172.069 72.884 165.088 72.884 165.088L74.404 162.508L109.022 166.264L115.672 162.508L116.584 165.391Z" fill="black"/>
<path d="M117.648 169.11C117.648 169.11 124.944 199.008 128.25 225.644C129.238 233.726 130.796 248.296 129.01 256.264L114.304 318.869L98.7999 317.313C102.714 289.691 106.628 256.795 106.628 243.742L85.5759 178.292L117.648 169.11Z" fill="#407BFF"/>
<path opacity="0.2" d="M95.912 210.543C95.874 210.846 104.234 176.622 104.234 176.622C104.234 176.622 106.514 204.548 98.078 217.866L95.912 210.543Z" fill="black"/>
<path d="M111.34 155.906C111.34 155.906 96.3299 163.949 75.8479 162.432C75.6452 162.432 75.4426 162.419 75.2399 162.394L73.9479 163.266C71.5919 167.25 68.4759 175.56 68.5519 186.715C68.9699 204.131 71.5919 231.221 71.8199 237.065C71.8452 237.09 71.8706 237.103 71.8959 237.103C71.7439 241.58 71.5539 244.995 71.4019 246.664C69.2739 269.543 68.5519 321.031 68.5519 321.031L84.0939 321.259C84.0939 321.259 95.7599 243.363 96.0639 238.582C96.0892 238.051 96.1146 237.507 96.1399 236.951L96.8619 228.641C97.5839 221.015 98.5339 212.516 98.9899 203.941L100.168 190.054C110.39 186.677 115.862 171.652 117.648 169.11C114.95 159.283 113.772 160.155 111.34 155.906Z" fill="#407BFF"/>
<path d="M69.5019 124.375L64.2959 106.58C67.6019 101.648 83.9419 97.8916 83.9419 97.8916L94.7339 98.4607C94.7339 98.4607 98.8759 99.4093 102.41 100.548C107.16 102.103 109.706 103.317 110.846 105.935C110.846 105.935 112.822 111.779 111.644 123.73C111.302 127.031 110.542 144.409 111.492 150.063L118.18 163.153C98.4959 178.481 73.2639 163.153 73.2639 163.153C74.1379 160.459 76.1139 154.464 76.4939 151.808C76.2279 148.469 75.2779 146.23 73.8339 140.349C73.5679 139.211 69.9959 125.514 69.5019 124.375Z" fill="#407BFF"/>
<g opacity="0.8">
<path d="M69.5019 124.375L64.2959 106.58C67.6019 101.648 83.9419 97.8916 83.9419 97.8916L94.7339 98.4607C94.7339 98.4607 98.8759 99.4093 102.41 100.548C107.16 102.103 109.706 103.317 110.846 105.935C110.846 105.935 112.822 111.779 111.644 123.73C111.302 127.031 110.542 144.409 111.492 150.063L118.18 163.153C98.4959 178.481 73.2639 163.153 73.2639 163.153C74.1379 160.459 76.1139 154.464 76.4939 151.808C76.2279 148.469 75.2779 146.23 73.8339 140.349C73.5679 139.211 69.9959 125.514 69.5019 124.375Z" fill="white"/>
</g>
<path d="M93.9742 98.5366C92.8342 97.3984 92.3402 97.1328 92.5682 95.5012C92.7202 94.2491 93.1002 92.9591 93.5942 91.669L91.9222 89.8478L83.1822 81.6522C83.6002 87.3057 83.8662 95.8048 79.5342 99.0678L93.9742 110.716V98.5366Z" fill="#B97964"/>
<path opacity="0.2" d="M92.5301 95.8806C90.1361 94.5906 87.5141 92.3141 87.7041 89.5822C87.8181 88.406 88.0081 87.3056 88.2741 86.6227L93.2141 92.6935C92.8721 93.7179 92.7581 94.3629 92.5301 95.8806Z" fill="black"/>
<path d="M80.864 72.6219C81.966 81.2348 82.27 84.9152 86.906 89.2786C93.898 95.8806 104.158 93.1867 105.64 84.5358C106.97 76.7576 104.918 63.971 96.254 60.6321C87.742 57.369 79.762 63.971 80.864 72.6219Z" fill="#B97964"/>
<path d="M93.366 75.885C93.404 76.8715 93.86 77.7062 94.43 77.7442C95 77.7821 95.456 77.0233 95.456 76.0368C95.456 75.0502 94.962 74.2155 94.392 74.1776C93.822 74.1396 93.366 74.8985 93.366 75.885Z" fill="#263238"/>
<path d="M102.068 75.1641C102.03 76.1126 102.448 76.9474 103.018 77.0612C103.588 77.1371 104.044 76.4162 104.082 75.4676C104.12 74.519 103.702 73.6843 103.132 73.6084C102.6 73.5325 102.106 74.2155 102.068 75.1641Z" fill="#263238"/>
<path d="M91.618 72.584C91.732 72.584 91.846 72.546 91.922 72.4701C93.214 71.1801 94.734 71.5216 94.772 71.5216C95 71.5975 95.19 71.4457 95.228 71.218C95.266 70.9904 95.114 70.7627 94.886 70.6869C94.81 70.6869 92.91 70.2315 91.314 71.8251C91.162 71.9769 91.162 72.2804 91.352 72.4322C91.428 72.5081 91.5167 72.5587 91.618 72.584Z" fill="#263238"/>
<path d="M104.994 68.6379C105.095 68.5874 105.171 68.5115 105.222 68.4103C105.336 68.2206 105.222 67.9929 104.994 67.8791C102.828 66.8167 101.118 67.7273 101.042 67.7653C100.852 67.8791 100.776 68.1447 100.89 68.3344C101.042 68.5241 101.308 68.6 101.498 68.4862C101.574 68.4482 102.904 67.7653 104.652 68.6C104.766 68.638 104.88 68.6759 104.994 68.6379Z" fill="#263238"/>
<path d="M98.4202 74.3672C98.4202 74.3672 99.9022 77.5544 101.498 79.4895C101.764 79.831 101.612 80.3622 101.232 80.5519C100.168 80.9692 98.8762 80.6657 98.8762 80.6657L98.4202 74.3672Z" fill="#A24E3F"/>
<path d="M94.1641 74.2155L96.1401 73.8361C96.1401 73.8361 95.0001 75.2779 94.1641 74.2155Z" fill="#263238"/>
<path d="M102.79 73.6843L104.842 73.4187C104.842 73.4187 103.588 74.7846 102.79 73.6843Z" fill="#263238"/>
<path d="M78.546 67.8791C77.368 69.5865 79.686 74.519 79.686 74.519C79.686 74.519 83.866 73.2669 84.094 79.5274C85.614 79.793 87.324 73.9499 87.096 68.0688C86.792 64.7678 80.598 64.8816 78.546 67.8791Z" fill="#263238"/>
<path d="M98.8001 60.9356C96.9381 57.1034 93.7461 55.7375 85.1581 59.38C77.3681 62.7189 82.3081 74.2534 84.0941 79.5274C84.4741 80.6657 94.3541 68.1447 94.3541 68.1447L98.8001 60.9356Z" fill="#263238"/>
<path d="M78.5081 79.7551C79.6101 81.5004 81.2821 82.5628 82.8401 82.8664C85.1581 83.3596 86.2221 79.6412 85.3481 77.3647C84.5501 75.3537 82.2701 74.0637 80.0281 74.5949C77.8621 75.0881 77.2541 77.7821 78.5081 79.7551Z" fill="#B97964"/>
<path opacity="0.2" d="M81.7001 76.7197C80.9401 76.4541 80.1801 76.9473 79.9521 77.5544C79.6481 78.2753 80.0661 79.9827 82.3081 80.5139" stroke="black" stroke-linecap="round" stroke-linejoin="round"/>
<path d="M95.57 82.7146C96.292 83.7391 97.546 84.3461 98.762 84.1944C98.914 84.1564 99.066 84.0805 99.066 83.8908C99.066 83.777 98.914 83.5873 98.762 83.6252C97.736 83.7391 96.672 83.2837 96.064 82.449C95.95 82.2972 95.798 82.2593 95.684 82.3352C95.532 82.4111 95.456 82.6008 95.57 82.7146Z" fill="#263238"/>
<path d="M92.2259 155.071C87.3619 151.732 81.2819 150.176 75.3919 150.708L72.5039 158.296C80.5979 165.543 90.4399 166.53 101.308 166.188C102.828 160.573 97.1279 158.41 92.2259 155.071Z" fill="#263238"/>
<path d="M114.912 150.214C114.152 148.735 112.518 147.558 110.846 147.786C109.592 147.976 108.604 148.924 107.73 149.835C104.348 153.477 101.726 157.841 100.092 162.546L100.738 166.188C101.852 165.707 102.98 165.24 104.12 164.784C107.274 163.494 110.58 162.128 112.936 159.624C115.33 157.158 116.546 153.25 114.912 150.214Z" fill="#263238"/>
<path d="M106.096 163.153C106.096 165.695 104.082 167.706 101.536 167.706C99.0278 167.706 96.9758 165.695 96.9758 163.153C96.9758 160.649 99.0278 158.638 101.536 158.638C104.082 158.638 106.096 160.649 106.096 163.153Z" fill="#263238"/>
<path d="M103.512 181.062C103.157 175.648 102.79 170.235 102.41 164.822L100.282 166.226C93.6319 175.901 90.7439 188.043 92.2639 199.691C95.1139 200.185 98.0019 200.374 100.852 200.222C100.041 198.528 99.2306 196.82 98.4199 195.1C100.928 194.152 102.6 191.647 103.246 189.029C103.892 186.449 103.702 183.718 103.512 181.062Z" fill="#263238"/>
<path d="M112.746 186.753C113.962 185.083 114.152 182.921 114.038 180.872C113.62 174.384 109.858 168.237 104.31 164.86L103.398 164.139C106.628 173.89 106.02 184.438 105.336 194.683C107.515 194.253 109.693 193.81 111.872 193.355C111.188 192.027 110.504 190.471 111.036 189.067C111.378 188.195 112.176 187.512 112.746 186.753Z" fill="#263238"/>
<g opacity="0.3">
<path d="M100.776 159.358C102.334 159.055 104.006 159.776 104.88 161.104C105.754 162.47 105.602 164.405 104.576 165.657C103.588 166.871 101.84 167.364 100.32 166.871C98.8378 166.378 97.7358 164.898 97.6598 163.304C97.5838 161.483 98.9138 159.852 100.624 159.396C100.966 159.283 100.814 158.751 100.472 158.827C98.6858 159.321 97.3178 160.914 97.0898 162.735C96.9378 164.519 97.9638 166.378 99.5978 167.175C101.194 167.971 103.246 167.668 104.614 166.454C105.982 165.202 106.362 163.077 105.678 161.407C104.842 159.472 102.638 158.41 100.624 158.827C100.244 158.865 100.396 159.434 100.776 159.358Z" fill="black"/>
</g>
<g opacity="0.3">
<path d="M103.284 159.624C101.498 161.711 100.054 164.063 99.0278 166.643C98.8758 166.985 99.4458 167.137 99.5598 166.795C100.548 164.329 101.954 162.014 103.702 160.003C103.93 159.738 103.512 159.321 103.284 159.624Z" fill="black"/>
</g>
<g opacity="0.3">
<path d="M105.564 160.876C106.754 159.333 107.945 157.79 109.136 156.247C109.212 156.133 109.136 155.944 109.022 155.868C108.87 155.792 108.718 155.83 108.642 155.982C107.451 157.525 106.26 159.055 105.07 160.573C104.956 160.724 105.032 160.914 105.146 160.99C105.298 161.066 105.45 160.99 105.564 160.876Z" fill="black"/>
</g>
<g opacity="0.3">
<path d="M105.716 160.952C107.084 160.396 108.414 159.751 109.706 159.017C110.01 158.827 109.744 158.372 109.402 158.524C108.161 159.232 106.881 159.852 105.564 160.383C105.412 160.459 105.298 160.573 105.336 160.762C105.374 160.876 105.564 160.99 105.716 160.952Z" fill="black"/>
</g>
<g opacity="0.3">
<path d="M97.204 162.508C94.392 161.901 91.618 160.99 89.034 159.776C88.692 159.624 88.388 160.117 88.73 160.269C91.39 161.521 94.164 162.47 97.052 163.077C97.394 163.153 97.546 162.584 97.204 162.508Z" fill="#263238"/>
</g>
<path d="M64.2959 106.58C58.8999 111.779 64.9419 131.888 64.9419 131.888L82.1179 127.373C82.1179 127.373 78.0139 112.234 73.9099 108.402C70.4519 105.177 67.2599 103.659 64.2959 106.58Z" fill="#407BFF"/>
<g opacity="0.8">
<path d="M64.2959 106.58C58.8999 111.779 64.9419 131.888 64.9419 131.888L82.1179 127.373C82.1179 127.373 78.0139 112.234 73.9099 108.402C70.4519 105.177 67.2599 103.659 64.2959 106.58Z" fill="white"/>
</g>
<path d="M104.652 124.527L93.8979 109.464C93.4799 108.895 93.6319 108.136 94.2019 107.719L103.132 101.344C103.702 100.965 104.462 101.079 104.88 101.648L115.634 116.711C116.052 117.28 115.938 118.077 115.368 118.456L106.438 124.831C105.868 125.248 105.07 125.096 104.652 124.527Z" fill="#407BFF"/>
<path opacity="0.6" d="M102.41 108.895L101.156 107.15C100.852 106.694 100.966 106.049 101.422 105.746L102.676 104.835C103.132 104.494 103.778 104.607 104.12 105.063L105.374 106.808C105.678 107.263 105.564 107.908 105.108 108.212L103.854 109.123C103.398 109.464 102.752 109.35 102.41 108.895Z" fill="white"/>
<path opacity="0.6" d="M99.0659 107.681C99.5979 108.414 100.13 109.148 100.662 109.881C100.814 110.147 101.232 109.844 101.042 109.616C100.51 108.882 99.9779 108.136 99.4459 107.377C99.2559 107.15 98.8759 107.415 99.0659 107.681Z" fill="white"/>
<path opacity="0.6" d="M101.498 111.096C102.03 111.829 102.562 112.563 103.094 113.296C103.246 113.524 103.664 113.258 103.474 113.031C102.942 112.272 102.41 111.526 101.878 110.792C101.726 110.564 101.308 110.83 101.498 111.096Z" fill="white"/>
<path opacity="0.6" d="M103.93 114.473C104.462 115.231 104.994 115.978 105.526 116.711C105.678 116.939 106.096 116.673 105.906 116.408C105.374 115.674 104.842 114.94 104.31 114.207C104.158 113.941 103.74 114.245 103.93 114.473Z" fill="white"/>
<path opacity="0.6" d="M106.362 117.887C106.894 118.621 107.426 119.354 107.958 120.088C108.148 120.354 108.528 120.088 108.338 119.822C107.806 119.089 107.274 118.355 106.742 117.622C106.59 117.356 106.172 117.66 106.362 117.887Z" fill="white"/>
<g opacity="0.5">
<path d="M97.052 109.123C98.2173 110.64 99.3827 112.171 100.548 113.714C100.662 113.827 100.814 113.865 100.928 113.79C101.08 113.752 101.156 113.524 101.042 113.41C99.8767 111.892 98.6987 110.375 97.508 108.857C97.432 108.743 97.28 108.667 97.128 108.743C97.014 108.819 96.938 109.009 97.052 109.123Z" fill="white"/>
</g>
<path d="M88.5779 122.668C88.3879 123.085 88.1599 123.541 87.9319 124.072L85.5759 128.473L90.7439 132.268C91.8079 130.674 93.7079 129.839 94.8859 128.967C96.8239 127.639 97.1279 124.983 98.0019 124.489C100.396 123.161 105.564 122.592 105.298 120.999C105.032 119.443 99.5219 120.771 99.5219 120.771C99.5219 120.771 105.222 118.608 104.918 117.166C104.538 115.155 103.854 115.497 103.854 115.497C103.854 115.497 104.272 114.283 103.17 113.714C102.448 113.334 98.6479 114.017 94.6199 116.939C94.6199 116.939 95.6459 115.687 97.5459 113.903C98.2679 113.182 99.6359 112.841 100.282 111.779C101.232 110.261 97.5079 110.413 95.2279 112.348C92.9859 114.283 90.3639 119.177 88.5779 122.668Z" fill="#B97964"/>
<path d="M103.854 115.421C102.182 115.801 100.51 116.18 98.99 116.977C97.204 117.925 95.798 119.329 94.506 120.847C94.24 121.112 94.658 121.53 94.886 121.226C96.14 119.785 97.546 118.381 99.256 117.47C100.738 116.711 102.372 116.332 104.006 115.99C104.348 115.914 104.196 115.345 103.854 115.421Z" fill="#A24E3F"/>
<path d="M99.5598 120.467C98.7998 120.885 98.0018 121.226 97.3178 121.682C96.6718 122.099 96.1018 122.668 95.8358 123.389C95.7978 123.541 95.9118 123.693 96.0258 123.731C96.1778 123.768 96.3298 123.693 96.3678 123.541C96.6338 122.896 97.1658 122.441 97.7358 122.099C98.4198 121.682 99.1418 121.34 99.8258 120.961C100.168 120.809 99.8638 120.316 99.5598 120.467Z" fill="#A24E3F"/>
<path d="M67.0698 131.319C67.0698 131.319 71.0218 147.141 73.1118 148.735C75.2018 150.328 76.8738 151.846 80.9018 149.721C84.9678 147.634 93.0998 129.346 93.0998 129.346L87.1338 125.703L78.6598 135.417L77.3678 128.397L67.0698 131.319Z" fill="#B97964"/>
</g>
<defs>
<clipPath id="clip0_488_533">
<rect width="380" height="343" fill="white"/>
</clipPath>
</defs>
</svg>
